<mxfile host="Electron" modified="2023-05-02T10:00:25.739Z" agent="Mozilla/5.0 (Windows NT 10.0; Win64; x64) AppleWebKit/537.36 (KHTML, like Gecko) draw.io/21.2.1 Chrome/112.0.5615.87 Electron/24.1.2 Safari/537.36" etag="3hJxBLivXjPPNV-TegYF" version="21.2.1" type="device">
  <diagram name="Страница 1" id="38nZzOW1xaRM-5qMc7_m">
    <mxGraphModel dx="2062" dy="1909" grid="1" gridSize="10" guides="1" tooltips="1" connect="1" arrows="1" fold="1" page="1" pageScale="1" pageWidth="827" pageHeight="1169" math="0" shadow="0">
      <root>
        <mxCell id="0" />
        <mxCell id="1" parent="0" />
        <mxCell id="0TxXQybrsUDYrA-Kx0nE-1" value="" style="shape=image;verticalLabelPosition=bottom;labelBackgroundColor=default;verticalAlign=top;aspect=fixed;imageAspect=0;image=data:image/png,iVBORw0KGgoAAAANSUhEUgAAAeMAAACXCAYAAAAmszNbAAAYsUlEQVR4nO3dO2/zynYG4JcHH7B/QpAiHekNaKsKUlF9ANGNKzXBgTqyFBsXAVyqCOCGLMXOOGmiNC5i8hdofoFk4JgsUp4y7amYgqTEm3jRxSPK7wMI2J83TY40a7jINSNTieM43u12+OOPP0Cn4ed3Hn5+5+Hndx5+fufh53ee7PP7k+yGEBER/XS/drsdxuOx7HYQERH9SNvtFkocx7GiKIjjWHZ7iOgEHL9Ew5WNX5apiYiIJGMyJiIikozJmIiISDImYyIiIsmYjImIiCRjMiYiIpKMyZiIiEgyJmMiIiLJmIyJiIgkYzImIiKSjMmYiIhIMiZjIiIiyZiMiYiIJGMyJiIikozJmIiISDImYyIiIsmYjImIiCRjMiYiIpKMyZiIiEgyJmMiIiLJmIyJiIgkYzImIiKS7E+73U52G4iIiH6s3W4HJY7jWFEUxHEsuz1EdAKOX6LhysYvy9RERESSMRkTERFJxmRMREQkGZMxERGRZEzGREREkjEZX1wAS1GgZC8rkN0gIjqK4/WYwGr/PAJLgTJxEQEAIriT/L+v6TuP9T1uJxkHFhTFQm3XRy4mioKJe8Mfe2ClA9qAl/5Id0LEq6nUZl3V0PuM2t1rH9/xeI3cyeHighcZg3E7yfioCO7chpDdjCaRi4nhJYM5jvevzUKV3TJJBtBndKYB9/FPGK+6g3D/3nyYnvENd5EqFpsY8WaBi36SgQVFmaB4zXelY0l088k4sDTYNz7io481hO7g7Z4G8xmG0Gd0niH38c8br1M8Ozog1vgYYBHjp7jtZBxYMDzA9H2Y5f+XlsiqV0zpXIKioFyZCSylUr5pLbHtj3N4lfcbfgpg/AB1X/oql4YObVJq21z/3gv7Kl3VVuZz9lePpTmwI/uofBblN3VqCbKhz6rls7rPob79rX1Z2iByJzV3Amk/5Lat3y5tQ2mfJ8XPPZI2Li8T2+3jte791G/XNX5qt0v3XRzGTfOg1fjtOk7Vh3HzfpqOXficjkxZNOyjPO7LbW3qr8BSoBgeAAFbK/5+bXs7nK+zc2ehXS37+Y4q/w0n4wBWWkqqncYJPyGgQ9cF1vnLvegDa6FD14Ht1+HngaXA2OZLNyEcva0JFhTNxtg/lLJi34Rn5AMqwtcWgGdAWY4O+w8d6J6RbpeWVNLfbxO5EygG4OfbChta0yBdeoD5goU6xSrfBuhwwvTfaUknsBQsR7kSXdrW8wOuoc8iF/P1rPT5C9jz8iD4whaA6effQ+koV2s/kJyoDvOI+WP2jp+7JHNcXiK2u4zX8vsx07HYpc/r40e26Gt72i96BpT3p1zfeDB6lLsjdwLNxqGf4hCz9Xx/odbWX9NVds489PXR6YRO5+vD+9I+Xw5lfGFjvt8mgJU0et/m0bL5IuQSbjQZpwHdUEqKvraAPsN//Ns/QKw/DlfFrzaE+YL//GdAfIbZT/HuAfrsscf8Qpbg/OJJZ7qCbwLCfi12jukX5y/UBV7qtmsV4NUWMP0VDodVsXgxj5eZglfYQofz3G3xyXRVCmj1ETMd8N5zLVUX2PSaR2vpM3WBTd38zvih+LP0ZD7Szmz/iSJ3DjtNGgenxM89uoVx2axzbFxsvBbVx88VdRmnkYu5LdKL9Z771x2E+xNgy3moemB8rAV05y13XBWLzWb/78uN5RPO1/sNp3gyUYjXIhWLTf58fB03mYyzgHbejk/Oh58CEH/CP/7rv0PfB0cyuM2nKf73/wBsv9IPV8NIb/qwa4+AT5Hsq2z6ZALYIrnAT7arU9wu71ByqZRB0jtDzyiVboyaa23PSP8f4MebHgOtXDY/f/6vS58VSz8a7LFfWb2aXMGP8dD4Xjq2X9jQlB7vM7DSq/g3/Pmv+f9xSvzcn9sYl62tbImNfuM1ubgYoeHa8OBo/PRUjttTSj75fWR3eaesFC9fLGsj6BDYX081iT6wFsC4cTBf6lzU9XzdRTLHLmyt25TihdxeMg4saLaA6XdILqYKVX3ETBew/+dvQPAODyaepsA//Uv+0jQpE/vjfJC3dHqaFI/LEkZyQqnfxbHEkiuvxTFCR4dnFDvdzJda9q/SZ2L6aSkGMDoHTQR3osHGBUuuXfssvYrfH3NrVOagwmRENVyF9mh/YUVpw3bit/0K2+w9/P33QsP7x8+9uZVx2ahLbPQZr+mdXdude2v89JSP27Rs2zshl2L/NleKX/Bc1Pl83Y262CCOY/hmduP048rUHgyjptRQkcz76CMNgIrHmQ7893/BTS6/Dydy8Yn9BVzkYukh93WGlk5XHzBGfbkkePdyV8sqHsbIXe0fhJ+i01W1+jiDjnSOLT3utvtlHDB9TuZfXzuES3q1ar5c6isBXfusLC15Fa5Y07JlU4364u0HoP8Fc82GaHoPfePnrtzQuGw8fJfY6DNek7ut5js7dIufU6Xl8wvvFIX1XE3Kn1OHaaTDYVrOZZccy53P1/1MV9n6BA8XmAVrdGPJGKU5imOKpSb1cQZd2LC9w7xpsnowO9Gn34ns9XWG9OsA5YVB2UrSXABNnx3ohQUA9dsdE32sIaBj9qjiUCKZF+90A6thlWV64vPe26/eaoK29msqfVZTd+mzwCpd3adzPLkr1shdwoOJl6Y+6tr+PoSAaHwPp8TPnbmZcdmgY2x0Ha+BlcyPty7FaI2fM2QXK8ey34nfetBGOuAtCwup6mbCIGxo+3GbLN7rPvdcdy6L4E7SKl7XsdypNN79fN2qfK7qcwFyhhtLxi1zjpm0JLG/Ys2uHvUZHrNf1kaHVbjZAqcu+85RF5v9arzD3O0WThgXr4DVBTahA9ha83b7dhXnjDV7XJjzVRcbJLvLHXc5QtjwBffk7trDsnVQTrHKSl/pvg346LDI+4iOn+t0hXC0LM4NwUEYrzBN5400WwDwYOTny7TkD0t4Rvb1g0u3HwBM+E1/PODE+LkftzUuj+sYG63jNYlHw2uJi72O25XngvOxnZ78tZFeO9976TKzunhLqmnpOWY5ChHWlCR0J8yN2+TipM9FR/VcpmE9yxZ0de+vF/OwjuZYxb7z+brNdAUfRm4fXrfpmTMpcRzHiqIgjuPrHonoqGTuaD07ftKJ3Am09azxguSn4vgdtsidJF+zuYM/xUn9ZeP3xu6MiYiIfh4mYyIiIslYpiYaOI5fouFimZqIiOhG/NrtdgCS7ExEw8TxSzRcu92OZWqSj/FHMjH+SCaWqYmIiG4EkzEREZFkTMZERESSMRkTERFJxmRMREQkGZNxT4FVfNh35E4anqZERETUbvjJOH2EmJJ79X2cWB/Jo8eyRxUmDx/H+IEPL6DeIndSiNvy65pxTFSVPK2qKSaVY49MorMNOhkHVvKIsbEfpw8mTx5OPltrVzuRJY8eyx7zlz4GkE9boZOZ8ON8/MaIYx8Xf548USsVi00uDn0TgA4nzP2M57qr+SW7ASfLHhrtl59VmQTU4moHvvb+iYjopxnonXEEd+kBuoPnlgu1+lKghUqxpabcXa7I1M8PB7Bqyjfl4yZ36um2da90v5dsL92Zrn1es12lvBhYtfFH1EXXc2FgNZ/v6GCgyTjEp0D3uVrdQZgrA/qmByMfDIFVLXf7Jjyjbd4ugjsx4JV/6k6g2ciVd0LM1nO40RSrbP+hAz1fAtosDu/lau2lwerT5+EnxL78HcLRi/87cidQDOTK4yEc2NB4gqST1Z8LAdScz767bcMw0GSc0Efa6b+8T+TpXbbpF8vd0xV8ExD2a/WuNBW5c9hCh1442SWLunTnDYt9dlWx2Gxy/5bTXhqqS/Z5gFdbwPRXOOxKxeLFBMQaH8zGdIL6cyH1MehkLD7Djhva0HIlEsMz4e/PasldtvlUrXdPn0wAW3zVnaACK737fcOf/5r7efSBZIH1GZn3Gu2lAevX59HXFtBHqL1Ujb6wBeAZpbKhUXtPQ9Tu2LmQehloMtYw0gFsv7qV1erKvtk8bHpyOm6MQl4VvyVzcoYH00/udv/++8lv5PrtpeHr1edpZWb22DiFYxa+gZC9zqze0M/yHefCH2SgyVjF40wHhI3XE2qyhbsJ9QFjAN57dUfBu1e9w9D/grlmQ5RLhvumJfvbXvD29Kz20vD16vPkLvpoZeYK8Uk/VNu5kHoZaDLOvu+blNuqC0WbFzIF7x4OdxNTPCc7Ku4n++rUy6J4hyEEhN703eJkf8Ke49CECO5kglPXVp3VXroD3fs8sAx4jd8yqIvPZF9c4Uq9tJ4LqY/hfs84/b7vozuBZiiFVXy6E2KTr7cJG5pi5zdAGB9OYOpig/jBglLYT7LSuVq2M+FvmhOeutggxASapiA7qu6E2HTNkhdtL92D9j6P4E402MKEH/ePT+gOwpa4JipqPxdSd0ocx7GiKIjjWHZb6Idi/JFMjD+SKYu/wZapiYiI7gWTMRERkWRMxkRERJIxGRMREUn2a7fbAUgmkYlkYfyRTIw/kmm323E1NcnH+COZGH8kE1dTExER3QgmYyIiIsmYjImIiCRjMiYiIpKMyZiIiEgyJmMiIiLJmIyJiIgkYzImIiKSjMmYiIhIMiZjIiIiyZiMiYiIJGMyJiIikozJmIiISDImYyIiIsmYjImIiCRjMiYiIpKMyZiIiEgyJmMiIiLJmIyJiIgkYzImIiKSjMmYiIhIMiZjIiIiyZiMiYiIJGMyJiIikozJmIiISDImYyIiIsmYjImIiCRjMiYiIpKMyZiIiEgyJmMiIiLJmIyJiIgkYzIm+uECS4FiBe3bTFxEAIAI7iT/7/P3T7fte/owgKUouOxhkliduF0iVa5BJuPInUBRLFT7LOnMIXzwdIMCC4qiDCa2knGgFF9MenehePFTll4MXbKvIxeTUix9d6xH7hKe7uB5mvw7sJRqfNck68o4KGygYvFiQtivNWP6tgwyGRNdQ/S1Tf/LgzGUpKY7COMYcRwjjn2YntH5jvV0KhabGPFmAfWqx/m5pk8mIGy81oVh9IG1AMyn6UWOFVgKFM3G2M/iKEYch5ittW9MyBE+1gL67LEYU4X4Tl6r3NuO3Ak0G3DC0hjIj9/pE0x4eL/xIc1kTFRgwnF0wFvihm6CO5ri2dEBscbH4NpOBdMnmAC8mgwSfawhYOIiuTiwYHiA6ReTXHbBtVl80+VW9IG10DF77HO8AK+2gO684dDMdAx477k74SmezPrP8pb8iGRcKXeU7nqq5b5J4URcWw6sKWV2Ok7lrqVacqrfLimTVkpT+9Jq+rr6XdH9e1i8wdEF7Hn7Z9nW59lcWyGGsj7K911dv53Qt+rDOPev+nLm0RJo4Xh1pfqGfZTKnHWFhdrPgI5IEkgxqQDZHSTMJ+RzZ9c43G83cREhgrv0gFxpuE1bH57WjuwCY4yHPrk4+sIWwLj0S8kYKN4Ja6Nygr49d5+MA0vBchQeyhyhA90zDieLyMV8PcuVQsL6E3GpXOKbHoxcMLYe5ywR3IkBr/xTdwLFAPx822FD44nuTMk809EyYapzn3sGtM+XQxlN2NAUBcr7U+Fn89wV4Kl9eyi19+QZufaEcPRifDcLYCW1wv3vj5alZF7zGcyHV3r4VtMkGxfLqzUl6j5xaMBPttksoCLEpwAwfug23dDSh6e3Awg/BaCPoJWPmY2Vunns8BMCOkblX9JG0Es/ShL0Fl83HHIDTsYejMrdajVhTVelUov6iJmeK1moC2zq5r66BGhum9bjnCFy57CFDr0QYUmJxvRXuSvkLImwTHm26Qq+CXjG8TvEzn2uOwj3NcD0jqfmZ2L9kSa/E/s2cjG3BWC+oHd1sdCec+NIxWKzKty5wfQRH32/VGv6DKcUT9HHGqJ0J9v93GPCX1VvgfVKNjuipQ9Pb0eEr+QWt3DOna6Kc8Who0PYJ85jayPoEPgM+//qdxlwMjZzdw25yfvKdmmpbp+wNdiivEm+xKbBHueDLlW6QjO8akC1HqdmP0e3ywRWukDhDX/+a/5wSYnGM0oXJEb5coRONX12oMPD8ujg79jnffXp23w8ZXenNSfcVuWLz14nr2SeTthaZYqHzqHicZYvrx5Z5NQ1Dkul7Yy4WIY6rx1t1MUG/h1fxA04GXcRwZ1osOGUytClzdQFNvn/vzWqc2Z1Zer9Nh2PU7Ofo9uJ35KLBMOD6W+wUIG//17dzPTLFyQx4njT/86IqtQF3hwdwp7XJJgefX6iTn1biqdvW3BToi426bgQsLX2OWfqRn2cQc9K1bWLnM6JQw0jHcD26wLJ7QLjoWs7xCdC4PgF47Hy9Y2772Scza+89PkKRlqia5lfSOZz0m1OOk4L/S+YazaE6aP2Rkd9wBjA9pYnQe6AuniBCQH79b34P67R5/uDXqpvVRTWczUpnwhPPKFNV+lc4QC+SjIIuVJv8GpD6DMUc/E5cZjeebesjejkzHZ0i9O0nJ3NLR8ZJ8m6idJisAEk6PtOxmln5ecsAqtUOgms0oq/dIVhy8q+4D23TZfj9CUERGEerywrDZbu2gKLK1UvaoqVbwKeV1yPcI0+zx3zUn2brCI9fE0rsBTUzmQIG9p+HASwDK/73HN5DA3gxDccWanagOGhWqI+Mw7VxVsyL21UV8AHVo8//HFmO7SRfrjjBZKqYCnWk7Uz+YSfzlvnx0m6bkJ3ngul8NoEfWPuOxljilW6om8/1wsffn5iebpCOFoW5zngIIxLC1DKc8bb/DYdjtObCb/ljyqoiw1CB2lZMH0tRwj5xxguK13MBeS/RnGNPj+4VN+q2de00v0sRyHCmtqh7oS5cWDAa7wQLJmu4MMozG1nUyt0vqQ6AwAmXiof6rlxmHyfOHT0yhqF5SjsMe1xXjsqq53VR8xQPOdq9hh+6Y9+TFf5qZHDuolyu4+u1r4hShzHsaIoiONYdlvoh2L8kUyMv1sQwFIMbGsS6W3v+3xZ/DEZk3SMP5KJ8XcbIncCbT27fGUvsNLv7K9OWsV9bUzGdDMYfyQT4+9WJHewqPxpznMkq7zXs9u8KwaYjOmGMP5IJsYfyZTF350v4CIiIrp9v3a7HYAkOxPJwvgjmRh/JNNut2OZmuRj/JFMjD+SiWVqIiKiG8FkTEREJBmTMRERkWRMxkRERJIxGRMREUnGZEx0JwJLKT2B7Mg2+6fhpA+D7/gkqC7734tcTPhM4x+oX0xlinH5MzEZEzUJLCjKpPAow8idFJ5uk706P26upHZ/XZPejYncSXJSTR+pl52cB/p2iL4NkzHRSUz4cYw4eyXPOzz96l53EO7358P0jG+4U0genxdf8A/zq4sN/LENTTHgwYOhJH8X+HJ/a5hu2+Vj6qdgMia6BHWBTehAFzbmJ94hH0zx7OiAWOPjJ9ftiH4QJmOiS1EXeDEBYb+ePVeaPGw9k87DlWq9R+fZAitX8m6et63sI3IxyZXL68rLhbJ66fiRO4GxdRDGPkyY8OMQs7XGMvUtauvrQhxV+zpbQxBYxf9fF5f7bQY+DXNNTMZEF6SNdABbfJ15Rxt9bU/7Rc+A8v6UlrtDOLoHo3O5O4Cl2YAT7n9/tCwlc8+A9vlyKKeXKgHqYpOUKKMvJO8gKVuyTH1rmvs6cifpM4DjQyzBhlaOJc+AAT/Z5khpOrAULEdhYUpH9wxeoJUwGRNdUPGO9kSRi7ktAPMFvR/BqjsI95lPxeLFPKPcrWKxKT2Q3fQR7/c/xZMJiPVHNdmrC2xu9GHuVCff1wFebQHTz/ffsVgy4bdcaU1XcfFZwuojZjrgvTMb5zEZE13QyXe0woaWlfCyO5ZTbifHD8W7E20EHQKfYZdfTuaqha1VVpDTvWno67Sq4Rml0rLhVXdjPnW44EqnWfb70mCLi72Ru8FkTHRB4acAMMbDKXe0udXZm963xJehLjaI4xi+KWBr7XPONFxtfW36uW8L7F+bntWaCO5Eg418fIdw9Au/mTvAZEx0KZGLpQfozvOFy7MqOle/t1/FknH4CQEdI63fEaerdG4PHlhNvG+Vvk6/I749d+EDAEQfWAvAfOFXndowGRNdQuRiotkQuoO3K9zVaiMd8Jb7cmJgKairGkLY0PYrYwJYhtd97jmwiqtcT0zkNACNfZ2VsOfF8nVg9f/ue5rY8/PDgcUydZ1fshtANEweDKWYDU0/xuZKK5bUxRuctQZbU2AD0J0QoTOHti5upzsh3jCHohjZD3ILulpMV/DfFSjK4UemH/dfREa3r6Wv1cUGISbQ0ngDkMRS7z/mMcUqdLDVDOyHi+nDNw0Y576HO6PEcRwrioI4jmW3hX4oxh/JxPgjmbL4Y5maiIhIMiZjoqsIYNU8TKL44kplIkqwTE3SMf5IJsYfycQyNRER0Y34tdvtACTZmUgWxh/JxPgjmXa7XVKm3u12+OOPP2S3Z7D4+Z2Hn995+Pmdh5/fefj5nSf7/FimJiIikuz/AVyZuw3TGgJBAAAAAElFTkSuQmCC;" vertex="1" parent="1">
          <mxGeometry x="-290" width="483" height="151" as="geometry" />
        </mxCell>
        <mxCell id="0TxXQybrsUDYrA-Kx0nE-2" value="" style="shape=image;verticalLabelPosition=bottom;labelBackgroundColor=default;verticalAlign=top;aspect=fixed;imageAspect=0;image=data:image/png,iVBORw0KGgoAAAANSUhEUgAAAeoAAACiCAYAAACOEY6PAAAVtElEQVR4nO3dP4/qXn7H8Y9XP2kfQpQinT0r8aOKUpk+Er7NVNNEq9uZEje3iDTlFJFuY8pxd7VpMmmmyNiPAD8CZqQdu0i5ZdqtnMIGbGPAMPwx8H5JI90L5mDgy/n6fM8xNrIsy9Tg/f1dv//+e9NdaIH372t4/76G9+9reP++hvfva+rv3x/OuC8AAGALEjUAAB1GogYAoMNI1AAAdBiJGgCADvvt/f298Y5+v3/iXQEAAJI0m80W/zbWnZ5lGIbW3AWg4/j+Aper/v2l9A0AQIeRqAEA6DASNQAAHUaiBgCgw0jUAAB0GIkaAIAOI1EDANBhJGoAADqMRA0AQIeRqAEA6DASNQAAHUaiBgCgw0jUAAB0GIkaAIAOI1EDANBhJGoAADqMRA0AQIeRqAEA6DASNQAAHUaiBgCgw0jUAAB0GIkaAIAO++39/f3c+wAAAErKudnIsixr2sgwDK25C0DH8f0FLlf9+0vpGwCADiNRAwDQYSRqAAA6jEQNAECHkagBAOgwEvVNijQyDBnzv1F07h0CToj4XycabX8/opEhYzBRKklKNRmU///19rus+tpPh0S9i2gkwxipMczSiQaGocHk1B/hDqJR0Tk5CoqbbD9R9jw8626hYy49zte54vhPJ4PlgccNHIA0vl5joEsMyzZI1AeRavLdU3zu3dgknWjgBHnHlGWLv+nYPPee4WJcQJyvcwvxb/tKFq8tlBs4Jxj9mRpPM2XTsU7/TroKS59l6MbyrOtM1iTqA4hGlryO917p24ti29eva+qYcFKXEOfr3F78D/XDt6X4RW9XmLiaDH/4shXr5QpfMIn6q6KRnEByw1Bu/b6iTLhakinmdQxD9epUNKqXc1qUGRfPs/yrt5t8xFL/Tuai/Fcvjy33qXUZqd5W7eh9ZT4qGhXt1uYI17Sx8l7UX9Qll2Evzdni/DCxsj3+m15P83bpZNAwUi32c9t2RdvVr8Wmec/iPSw/oGXcm3f9ze1seu7K+7RmGmRdG7X3r/ktHjR+jofQv6sdjLXoH3farvKQQTV2W7z2fZCovyTSqCinNU5zJR+KZcu2a0d56ZteYlu2Lc0+l7dHI0POrFy+SuTb23ZhJMPy1A+XJaAsdBU45S9yqs+ZpMCR8dRbtp/4sgOn2K4oYRWP3yadDGQ4KpWeEvnyZG3qcJ4CyX3U2BzqubwPsuUnxf+LElo0MvTUK5Upi3294mm3DjtnnB8iVtrEf/31zMuqLb6DSjUZLOe9uyL9nO33wMCR8Xpf+mwCOa2TaaSR5UmLKYZEvadaog8cWR+PyxJ97On7AQ62o5+eYrm6L8doq/5xh+1UbdvyYrnhfAqlxWvfE4l6b8WXc0M5Lf2cSfaD/uPf/kHxy9vy6P+np9h91H/+sxR/JPNb9RpI9sO3HeZ65skvrHagw2eFrhR7P6tB4obVuSRzrMem7baK9NOL5YbPWj6tqfGju77UFv2UF9vyf7RbuDN8rs0fmt/0YEvBa2lPzbGm1zbP2DldiPPNWsWKdMD4r0on3+UVByQn0Sbu04m+e3FxYLxj+7avZNGhbPleb99ZjaflfkL557Bof6h7V5W4aS+QUxq9OoFk+z9Kz9W2f9yxH5XyxO4EcsOs+eB13WvfE4l6T/Mvp/9r/SKK5COW4j/oH//132UvAj3vqNz7of73/yTNPosAtdSzdw3YRB9x3lbd8N6VNFM+kMm3a1LdriyWZ60pA6WfygcotfKg0zCmCJziPinMpjt0GvVS/OXOj16ybsT51r3cEiu7xX9+4NGT1eapo5HyQdQv/fmve78AKfZkfXXFdrmN+chunxXt/bvqZ231ZCvW4lhro3xuPPasE6zCri4myxJf8qxSKX23/nH7doXYk9VYYTreaydR72NR8miReFxTpvlND3Ys73/+JkWvCoryzD/9S/kQPC89h/3yF3ZLcioS5np95dM1eefY3MSstF1ZqcSYZUp8W4FTDT63XCZa/NXeEzcsykiS0zp4U00GljztOA2Aw+pKnG/UJlZ2if9Uby/x9hF//MfFSvL5+/P3P+37GlRdsV2U5HdO1pVV3+erNJnjaWkV9vY57gM+sX6VF9C17R9b96MF21dYJOT6R3Ss106i3lkgx2kok6zI58XsniXJ1LcHW/rv/9IkH2YsyyHxhxYHqulET4FKp5BsSU7mnfpqKPFJil6D0qjA1F1fpVHNUvIRtxo9mN8elisqi+edrQ7D1xv+kG/H8n62CNv0TS+x5D6e45QP5DoU5xufvk2s7BL/+ehqZUFSnf0Xfbc8xVvfnz0UJfkDN6rK2rJN6u9TsQah16rEsDR8nq8rCNTQRR1f2/6xdT+6ZI2nCl2tDF7mDv3aSdT7qMzhrFMtt5nfHmTHnrxgOU+br8qcl1WKc1R3OoWkOAWjvshqvkK31HkNf/iy64s2GrZbJ317USxbD99MLUs836tBGo02rOAsOvHgdfsRZsMXp/HUIFZ9H1dn4nyDlrHSNv6jUT4fv3UpRRwrbvX+7GF+ILMuM+4Z91bPloKnxXc2GuXzuitiT9aiQ8kXErae645G1UrAnkl+P/nameW+tu0f2/ejZcPnJB98WMWo+YivnUS9s83zdQtFOWVxZD4/SrYf9G3+YKunxUBivtiqTdsl5ni6WJ24nCueyU9qixzMsabzOZxN2y32qzpHbXn9yhyzOZ4qb670vE89JRt++CAflQd62trBDPU8L//NF4ooVIvF6DiYbsX5ei1jZWv85/PcTuAqbPXjHS23q889W/kPxgTOch7a6tmN88uHLl2b419FYsmf56mXKGkoZdh+oqT3tPwVt10OSIbPCuWovG6l1dTJXqqLyQzDUVBZqNa+f2zdj1aYGk9DuQrkjKKjvnYjy7Ks8Q7D0Jq7AHQc399uSyeD/BSlK/j5Uhxe/fvLiBoAgA4jUQMAOmDDr9C1/JW0a0XpG7hCfH+By0XpGwCAC/Lb+/v72jsNwzjhrgA4JL6/wOUq52ZK3+gk4g/nRPzhnCh9AwBwQUjUAAB0GIkaAIAOI1EDANBhJGoAADqMRH0A0ah6ofd0MthwFSkAANq7zkRdXAau/NNzx7wUYn75uPnlG/MLz6t/x7WUsbN0Mtj4E4pc0hOnlV9VbOPPeo5u8Uc9T+vqEnU0yi8T1w+z4qL0+YXpH16so3Vy+eXj5pdcs+TpSNepxY1wFWbl+M2UZaG4yidOz9R4WorD0JVky09Kt9HXHd1v596Bg5pf6DusX0M0D7bx0Z742O0DAG7VFY2oU02eAsn29WPLAV5zebHhqiwNJfR6lad5Prq4Ckxt4/rz5iP8DVeMKdo95P7iyrT9zBu2WylZRqPG+APaaNsXRqPN/R1WXVGiTvQRq/3csO0rKZUWQzeQUw6UaLRaQg9dBc62ecJUk4GjoH7rZCDLU6lklOjh5bsm6VDP8/YTX3a5rDQdL1/L0fYXF2uXzzz5ULwoqSfy7erd6WQgw1Gp5J7IlyeLzhN7a+4LJTX0Z6fet8tyRYk6Z/es/R+8SPLF6NwNqyX04bNCV4q9n2uviZpOvsuLbdmVjjBfYGb7vzReZF5T4+m09P/z7C8u1SE/80g/vVhu+KxlU6bGj64Uv+iNTI09NPeF2MfVJer4I2m5oSerVHZxAlfhosfLR+fu/WoNfXjvSprps6nzikbFqPmX/vzX0u3pm/KF4F/IysfYX1yw3T7z9HMm2T01Hsamn5pJCpxaKdJpHAsB263rC7GXK0rUlnq2pNlnu1JdUyl5Pu9bdFzr9VXJufEf8zlAJ5Ab5qPkv/9p7xdy/P3F5dvpMy8qOg/fNk4LuZUzJeZ/X6z64Lacoi+8QVeUqE19e7Cl2NPPPeq8lVGIeae+pOB1taHoNVgdmdh/0XfLU1wvQy52LW9vdsBh7Zf2F5dvp888H32vregcIT5xo7b1hdjLFSXq+fnMeQlvdUHr5kVV0Wug5ShkqB95Q9V25qd/PY6rI5M4VmxvOnc6by/2vmu5C6kmg4H2Xef1pf3FFWj/mUcjR8HGsyGa4jNvi5W42MnWvhD7uK7zqIvzmb9NBrIco7La0PYTTcs1vNiTZXjlDZRky87NHE+V3Y1kVNrJV2SvlgJdhdPNydAcT5VoIMsyNH9W2080bZtBD7q/uAbbP/NUk4ElL3YVZrvHp2xfyZa4Bqq294XYnZFlWdZ4h2FozV3A0RF/OCfiD+dUj7+rKn0DAHBtSNQAAHQYiRoAgA4jUQMA0GG/vb+/r73TMIwT7gpQRfzhnIg/nFM5N7PqG51E/OGciD+cE6u+AQC4ICRqAAA6jEQNAECHkagBAOgwEjUAAB1GogYAoMNI1AAAdBiJGgCADiNRAwDQYSRqAAA6jEQNAECHkagBAOgwEjUAAB1GogYAoMNI1AAAdBiJGgCADiNRAwDQYSRqAAA6jEQNAECHkagBAOgwEjUAAB1GogYAoMNI1AAAdBiJGgCADiNRAwDQYSRqAAA6jEQNAECHkagBAOgwEjUAAB1GogYAoMNI1AAAdBiJGrhi0ciQMYq2bzOYKJUkpZoMyv//evsL6UQDY6SWWwMokKiBXUUjGcZAk1ImSycDGYax8jeYtEl31y2dDPLEb96pn9+iycBQ2/yOI2iIYXQXiRo4GFdhlimb/yW+5FmtR6fdYGo8zZRNxzIP1eJ4qrDvyTIcBQrkGJZeHhI9Dw/0BDgdEvxZkKiBYzHHmia+7NjTd3o2AHsiUQPHZI716Eqx93OnudlolJfNqyX18vxuMZdcqx9X55srd6xpp/m5K22kEw1K5fymknVlP2vPn04Gcma+kiyUK1dhlujhxaL03THz9QbrPstoZMhwAkmxPKthaqcSY01xWMTsyhRRKR63tDHfx2i07jmuE4kaODKrZ0ua6XPHHiX2LFkfj0UpPZFvB3L26ZgCR8br/Z7tRBpZnuQni8f3nmqJPnBK+xnKrVUQzPE0L6Wnn5rlt2g8zSh9d9GGz3L4nCkLXUm2/CSf3pmO8wmSdDKQ4ag09ZPIlyerskjRktcPF1NDoSvl00XPGrZqY7mPjop2DjhF02UkauDIzLv+fg+0fSWLbGZq/OhK8Yveds3Uh2pn/vhp3rEuuKGyRftD3btS/PK2eiBgjjXNao9Ft7T9LCsi/fRiuWH5s63HWaKPWHLvl1sM710tD2DbtLHYSYU3dpRHogaOLP2c7ffA/l11tGD1ZCvWR3LKdob64duKPYtFRGhWVEoCp1bSdoLSRpZ6thS8Lmsx0Wsgqa87s20bBff+5g72SNTAkSUfsRYd0gUyx9OiVDmfm+RcaKxyw9IZD4u/qcbluA+cRRJ2gmXZe6c2bhCJGjimdKKnQLL9H7uPAmaf1ZJj8qFYtnqWJJlqXVHf2E57w+f8lDNbgV7J1Jgrzo+fbVqEkb7pJV7Obed/pSTdpo0bRqIGjiWdaGB5im1fv/YZEsSerMXS6EgjJ5Dcx8XowurZUvC0KEdHI0NNlcJt7WwUjaory/dM8rgSjdMm8+mR79WpkWi0XJVt3qlfWi2+uqq7RRs3jEQNHEwgp9wJWZ764RdWprqhkt5T0Z6joLIoTDLHv+Tby87vqZco8e2VZmw/2djORsNnhXIqc4ZuSCnyZhWnG87nkufHcOZ4qvz3fUrx/9RTsoj9fI66Wtqurure3sbtMrIsyxrvMAytuQs4uluPv2hk5Keg3Njq1q649fg7tHQykOX1V+ak191+6+rxx4gaAHAC9bUN+SlZt7iKe1ckauBkIo0aLtyx9leagCuRl7Xt2ulXjmZ+QtWoBUrf6CTiD+dE/OGcKH0DAHBBfnt/f197p2EYJ9wVoIr4wzkRfzincm6m9I1OIv5wTsQfzonSNwAAF4REDQBAh5GoAQDoMBI1AAAdRqIGAKDDSNQAGkUj4+tXLkonGvBra8CXkKiBr4hGMoxB5dJ86WTQ+POgg8l+Ka+5vepzdk06GeRJvrjOsJRqMlhebQln1hC36C4SNXAUrsKsdEm//Pp9XxihVtsL3Vie1d2O1hxPFfY9WYajQIEcw9LLQyJ+1vnCkeDPgkQNnII51jTxZceevh+glxv+8GUr1ssbPSZw7UjUwKmYYz26Uuz9PNicbf/OrN6QTjSolckby81tt6s8ZFAt4dfaKD8+nQzkzHwlWShXrsIs0cOLRem7w6KRIWMUVadaShWgaGTIcAJJsTyrYTonGlWnZ1aqR/n0x8Yrxm1pY76P0Wjdc1wnEjVwQlbPljTT5xd7l+inp1iu7sul5Ggkw/LUD0sl99BV4DR0qG22U7Vty4vlhpmmY1NSpJHlSX5StJGo97TscM3xVNl0LDP91Cy/ReNpRum76wJH1sdj8ZmGcksVoOFzHieSLT/J4yaPheIgzlFpeiaRL0/WIpGmmgwsef2wNH0j5VM6zxq2amO5j46KdqZj1Q5VrxKJGjgh866/5yMDOaWRhhNItv9Dy7yXavIUSG5YTYbDZ4WVUXzb7UqikQwnkBtuSrSmxtNnrdxtjjXNGm5HN7lh6frQQ927UvzytmXUGumnF8sNy5+zqfGjK8UvymdnEn3Ekls6shzeu1oetLZpY7GTCm/siI9EDZxQ+jnb85HbFqetdoRz1Q6x7XaF2JPlBLL9+kKwoX74tmLPYnHRrSuqJoFTK2k7QWkjSz1bCl6Xh4HRayCprzuzbRsF9/7mDvxI1MAJJR+xFp3TV5hj/fLt5WhjUWJep9ohbt1uzvYVFgm5Pr9sjqelFei1uUbcHLc8lbL4m2pcjqfAKVWFlmXvndq4QSRq4FTSiZ5WStYHUpyvXB6xzEWvgWT3ZO2yXYk1nip0pcBpHjkPn/MRvq1ADc3i2hUxNdu08CJ900u8nNvO/0pJuk0bN4xEDZxCOtHA8hTbvn4dZHiQz+nJfSxGG3kpWoFTHflGIzmB5D7OF9203a5q+JzIt2N5VjFqjkYyyg0kH4plq1fP8rguVk+2Yn0k5Rvn0yDfqwdy0Wg5NWPeqV9aLb66qrtFG7csW2PDXcDRXUz8hW4m2ZmfLG9KfDuTtPLnhvs9xbr21NRg6Na2q+7bLtuFrjLZfra8Oczc0vOG7mFeXxddTPztqyFuQ3c1plZjoPq5lzdfidPK45LMt+sxkt9W3m5zG837eI3q8WcUN64wDENr7gKOjvjDORF/h5VOBrK8/sqc9Lrbb109/ih9AwBOoL6GYT59c3uruHdFogbOItKo4cIda3+xCbhg5niqxLdrp185mvlJ6bxtrEPpG51E/OGciD+cE6VvAAAuyG/v7+9r7zQM44S7AlQRfzgn4g/nVM7Na0vf7+/v+v3330+2U9eG9+9reP++hvfva3j/vob372vq7x+lbwAAOoxEDQBAh5GoAQDoMBI1AAAdRqIGAKDDSNQAAHQYiRoAgA4jUQMA0GH/D02AguCAv6h/AAAAAElFTkSuQmCC;" vertex="1" parent="1">
          <mxGeometry x="310" y="-5.5" width="490" height="162" as="geometry" />
        </mxCell>
        <mxCell id="0TxXQybrsUDYrA-Kx0nE-3" value="" style="shape=image;verticalLabelPosition=bottom;labelBackgroundColor=default;verticalAlign=top;aspect=fixed;imageAspect=0;image=data:image/png,iVBORw0KGgoAAAANSUhEUgAAAeoAAAB9CAYAAABteSB1AAAWm0lEQVR4nO3dPW+zWJsH8D+Pbmk+wmqL7SAjeVyttsL9SiZNKjerUTooTZNipZQpVkoDZehuzTbrbVJs4BOYT2BHmkCx5VNuO9XZ4oDNm+2D3wDn/5MszdwhcAzX4YLrHIImhBDr9Rq//fYb6Djcf6fh/jsN999puP9Ow/13GpX997crtYWIiIiO8GO9XmM8HnfdDiIiom9ptVrt/bkmhBCapkEIcaUmEdE5sf8SDZdK/2Xpm4iIqMeYqImIiHqMiZqIiKjHmKiJiIh6jImaiIiox5ioiYiIeoyJmoiIqMeYqImIiHqMiZqIiKjHmKiJiIh6jImaiIiox5ioiYiIeoyJmoiIqMeYqImIiHqMiZqIiKjHmKiJiIh6jImaiIiox5ioiYiIeoyJmoiIqMeYqImIiHqMiZqIiKjHmKiJiIh67Md6ve66DURERN/WoTysCSGEpmkQQlypSUR0Tuy/RMOl0n9Z+iYiIuoxJmoiIqIeY6ImIiLqMSZqIiKiHmOiJiIi6jEm6l6I4GgatPzjRF03iIhOwj5N5zPsRB050DQHjV0g9THRNEz89NqtUhc5WUe2EGT/ZHoJxNu002ZdTgp/Uj9pRY4GbeKjeKRSf7L72NLwDb3v7vId+nR2fLTSh331koadqHdK4T+6iLtuxj6pj4kVyE4sxOaznOtdt+yCdNzPTCB4P9CpU3wsYsB+wA2d3kjJAPruLt+gT0eOBs1wMQ5F6Tsm3gpW5WKbzucmE3XkGHB73tPTjwVi08PPG+rEKvT7GUwEeN+XqdMPyDzNNP3dDKHv7nLrfTr1J7ACE14iUC0Q6PMlxHKO2/zm3bu9RB05sALADkPY1Z9tSjYTlKtqWUlW01AdSoqcaolHoSTXUBqqrjf5jIHxHfRNqaw6lrVtk9bY5ubvXlpX5Qo3cipl58jJ1lsZT9uxjtq+qH4plZKlfo+ZCay+di+TfiwQw0Y1Tx/afupPat+5qdweObKNsrzO0l1vdNZ3zxP/h/t00/dpXq45lrN2HlouW3e5q9fPB7V9WPyFWl/Oq1zPUL4OUTwflfrhjmU2+7748wPrvyU3lqgjOFnpqXFIKPlEDBOmGWPxUTik6QcWsQmzkkAiR4O18pBsSjwJPPNQE5x6aSi0EVjloP9aAQgsaC+j7foTD2ZgZcvpmC+3v39I6k+gWUBYbCtcGPs650uQdbwp3optgLxqFkJsrpIjR8PLqFDSy9rafo6Mjvmzjdh9bL7wSH08ujFM76lU9j7f9qXYNWB8PheOa8DSXae67LvniH+VPl39PnbWXxXOK0jhT7bj3leXVbnMkaG2uOr5KLAK/TCEHbt4rO6rwIKFsHQ82p/vhu2GEnUWyHtKT+nXCjBn+I9/+wfEi4/tlfKri9h+xn/+MxB/Jvm/4j0AzNl9i3JOnvzC8slm+obQBmL3tXzXZoflcpE+x3PTcgdFeHVj2OFbIbnJhIh4gY/Gm4hXuLEJ70mtvDx9q4y1ZXfGQbGGrc+xVBmTm75BJDMsDHklbAUAYheGth3/qq5DafttmB6SzUE6sK/owvrQd/dTjr+z9emy1H+Em12QXMWOvjy+2/5/uSJVvKNtcT6yw8JEuykebJSOb7YQwtIJ9Yjz3cDdTKLOA9n7uXucJPmMgfhv+Md//XeYmwMqO7X9MMX//h+A1VcWJAZGZlPQ7JPgc8fY6vTBBrCCvOiXyzUpL1cUwzV2lNPTL8iL+UopzWq4/g6s7GdAKJbqZaxaKf74sUQ5IWWBWXbXEtqQiTO7qobVVC5U3H6e8A8tN74rx4kxgokYm3M9XU0/+u7BVh6Iv3Z9Wl54jKB0fxo5MFzAS37i9z+P/gL1vnFEOapYtdDny02FoVT0a3M+UlGdVHru9Q/AbSTqyIHhxrBDhcRj69D1e8zMGO7//B2I3hFk46H/9C/Fy1VZeg7HxeA+kJyyANptDHlBKk8kzatYFZYrKpTjhEDimQis8nidXZmJKT+VfWJnJaQQsFTGvWWr4E8MuGg5DNC4Kh+y6LDrWE3xFtpA8FJoW4vtm8VlTmgnXUdf+u5eKvHXpk/L8d6Dd/zxL5uZ5Pn++evXY78Dyn0jK8krJ2v9DmMUqxaHKZ2PTnDp9ffJDSTqAJbVUG6ukWNIcowle0zov/8Lvrwk316xxZ/YhGKWVLaPWxw46WfB3FSOjd6DwhW0jrsxCncAW8lnrHSlLWdPZ+N12Xb3TdCqmT7BM2O4rwodNZ+F/Xz6rM5dE8XKbXuAjULbzrj9jeq+z8ZAFYfg6Cx61Hf3bl4l/tr0aXn3Pa5fjZeZf+DRcBEf3D9HyEry6qZ48szKBfSudR9xPmrj0uvvoRtI1KiMN+5SLk3p9zOYsQs32I7T6rKnZSWq7HnOVo9b5MFcmeSUz2YtdPTpkwezOnGiYbldZMIzMbvXN9utTdCKnD0zIVWfaUbjBUjjYzQHZ32rPh8tx6o2bVPdfhuxC2NzkOREplYzWuk8etN391CMP9U+HTlyPP7g9JA4Rqy0f46QX8jsujJt6Mv6/Ke8uDeqM+yziXQbx5yP2rj0+vvnBhL1/rGtjawsvbmKza8ozRnu8182RthcdOeTrVTWXaDPl5tZ3tuxk1X92UN9jmXiAa6xf7lNu8pj1IY7Lo0x6/Ml5OoK230ZIdnzbGP+TPPLwUvkKd7yUlm2bgshFCajl0WvcBWfj5bjevnz1mfafpEdIhm9bP+K1KVOiLRHv/ruborxd7BPy3FuK7ARKj1zrLhcdezZkH8wJijM9TBGZnk5Oejd8o+xZE+iVM9vWjYsUGjrMeejNi69/r7RhBBC0zQIIbpuC9FVRI480d7Kn3Vk/6UmqT+Rjz7dSJzfKpX+ewN31ERERLeLiZqIiKjHWPomGjj2X6LhYumbiIho4H6s12sAMqsT0TCx/xINV56Hd2HpmzrH+KMuMf6oSyx9ExERDRwTNRERUY8xURMREfUYEzUREVGPMVETERH1GBN1S5FTfuF66k9u9o0tRETUveEn6ux1bFrhs/s1i6czRsVXQ2avbRzf3eQbW+iyUn9Sitvq55JxTFQn3+61LyY1R+H99XR2g07UkSNf1zYORfZyePmC+NnCuNhJTr6TNYBVfL0b305DR7MRimL8CggR4pQ3eBIdJ3uNZR6HoQ3AhJcU/o3nuk786LoBR8tfyB5W398sg21+sQ1fev1ERERbA72jTuG/BIDp4enABV5zedFBrYDTUEKvVnmax6MjOA0loep25R1+tmzTJ1vvOdtLN0b1mDcsVytZRk5j/BGpUD0XRs7+8x2pGWiiTvAZQ31s2PSQFEqLoR3AKgZK5NRL6KGNwDo0TpjCn1gIqv/qT2C4KJSMEswWj/DTKd7y9ScezGJZaTnffpeLtZcGq80xTz4Rb0rqCTyz/OPUn0CzUCi5J/DgwuDJk47WfC4E0HA+u3bbhm+giVoyR8bxv7xJ8tnduR2WS+jTN4Q2ELuv9bvZTOo/wo1NmKUToZxgZno/Md9kXh3z5bLw/920l4bqnMc8wqsbww7fsF2VjvmzDcQLfDBT0xGaz4V0LoNO1PFnorigC6NQdrECG+HmjCfvzu2Heg19+mADWOGr6eQVOdld80/8/mfh39MPyIngJ2TlS7SXBqzdMU+/VoA5QuNlbPqFFYDAqpQircZ7IaLDdp0L6WwGmqgNjEwAqy+1Ul1TKTkf981OXLuNUcq58S9yDNAKYIfyLvmvX4/+IpdvLw1fq2OeVXRm93uHhezSkxL558SqD30v1zgXEoDBJmod9zMTiF28HlHnLd2F6HcYAwje6yuK3oP6nYn5Bx4NF3G1DLlpmlzf6oy3tSe1l4av1TGXd987KzoXiE/6pg6dC+lsBpqo8+eZZQmvPqF1/6Sq6D3A9i5kiie5ovJ68se/nuflO5M4Rmzue3Zari92H7FtQgp/MsGx87xOai/dAPVjHjkWgr1PQzTFp1wXZ+JSKwfPhXQuw32OOnue+d6fwLC00mxD00uwLNbwYheG5hYXQCK2Jzd9voS4c6CV1iNnZNdLgTbC5f5kqM+XSDCBYWjIt2p6CZaqGfSs7aVbcPiYp/AnBtzYRijaxydMD8mBuCYqO3wupPPQhBBC0zQIIbpuC31TjD/qEuOPuqQSf4MtfRMREX0HTNREREQ9xkRNRETUY0zUREREPfZjvV4DkAPaRF1h/FGXGH/UpTwP78JZ39Q5xh91ifFHXeKsbyIiooFjoiYiIuoxJmoiIqIeY6ImIiLqMSZqIiKiHmOiJiKivSJHg1Z9TeH5twJHq78N8TQp/Mn+tykOwSATdepPoGkOGt7OC0cb/kGhnogcaJo2vFhLfUw0LWu7tuc7UF9FjrbntaMy+Zw1cTbEzLVjO/VfSq9ojZxqDMtP9WvLfFBYprSAjvmzjdh9HXT8DzJRE11D+rXK/iuAdfG7ifOIHA2a4WIcCgix/STeChbfNz0Y0wcbiF28NoVd+oFFDNgP53kPdHPMJJgtjCsm6xQfixjm7L782kzTQyLKsVx8/XXqT2C4gJfkPw9hB1Y5WU8fYCPA+zC6cCMmaqK9bHieCQQv6OPNc1HqT2AF8h3Vb5VzuD5fQvDdwcMxfYANIGjILunHAjFsnCVPRw6sALDDaszomC8Fltd6wX36gUVsYnbfZnsRXt0YpvcT22ZO8eSZQPBeuIOe4sFu3pdD8S0Sda2EUrk7qpVOtEnppFz/eXMpUWk7tbuaehmreTlZaq2Vuzbl2ezDu6azu5v/hGfGcB8P79tDMZCP9ZViKj9mxWPZdBz3Hmt5RwL7Gcrn1gOxs7etlWU237v4c8bmCWRyKSccYHucH1DMq6pxVz5OKfyXACiUmw/ZFwvHtyO/+Bjjrk2eTr+wAjCu/JJ+NwYqd9DGqJq8h+XmE3XkaHgZJdvSSeLBDKztOEfq43ExK5RXkuaTcqUEE9pBqZR4cDsnSeFPLATVf/Un0CwgLLYdLgyeEM9MjnPtLEVmlGMgsGB8Pm9LdbELQ9OgvT+U/u2xcLV48Fhn5VBzZCh9I+XYaWjrY7W0EFiwEMplsrt2xubppjJTl0u2DWXvNnFXPk4JPmMA4zu1SsuBWDi+HUDyGQPmCLXozftG07h58okYJmohb4xgVv5JJu8VvoYafEL+kVExJIlnCgA7P6aX7Ptt4ZkQsEPlnyeeKWB6orjW0N63DvX1qCwnv68pzNJyobABUWtCaAvAFHt3Qc/0Nf7kfrfFZo/bKPy/3P9tYy200RxLe/9N4VgnnjAry9T6SZv1ieYYr7a1vE82Sw0qNvsaf+rnkMO/t+847Y/hwu8fiIXj23HonJwtlcWzuQ3Q5nhq6AuN/9YTKvE34Dtqu3C1XphIUFsuKy1vrsoMuHF1keKMRwPuOISoDvJVruyswEZYWkZhOw3r2blcLnKyyRI/8fufxc3Jsk9gVUpNVvW+m85l+uTBRICXnYPVijHQVotjvSrcMujzZaECdNz6lFTKsIzNc9FxPyuWbHdMuFKNu+pxysSfyZnae1o7DtHnS4Q2EC8+vl1VZsCJWkUKf2LAhVcpbVcW0+dYFn++supj0E2l780yittpWM/O5eJf5AWEFcAOl5jrwF+/1hezw+rFioAQS/VxSlKnz/HTMxG7jw0Ty1rEwJH2Hmv9DmO0O+leOnYYm6fT72cw8/J344SrU+LOwMgEsPo6Q+I7Q/yrtiP+RAJkJe4YtZDfVRIfsNtO1Pl4znOb2a7ZeOSB8Qw5fpQtc9R2DjD/wKPhIrbD2gxe2Ux5Yl4NdtBlmPT5M2zEcF/fyz+4RAxsNqpyrPPZrgqz0y8dO4zN89HvIW+qI0SvLmJzhnKePiXusjv2A3MvlJzYjrux0kbwtcJ2LHtHnMnHKisT0waevG87UWcHsjgtP3Iq5ZjIqcxMzGZCHpiBGL0XllHZTltxjNj0kDRmaSA/Mdfu7iKHs2svaoq30AaCoDy57xIxUNimyrHW89npRvWPQmQnuJbru3R7SUVe/rZgBaiXvU+MOxkzcpii/kBJiz96cmI7jJG5vVMGZDWxEiup/wi3dDEgZ8aX4iz18ejGML2nUnm9MXkPyG0nakzxls083IwtIyyP103fkIxeyuMq8JCIt/I4SnWMelVcRmE7rdkIDzz3qs+XSDzANQrjQi8jJHxe9rKmb5tju3005BIxsKV2rOWzryK0K+PDWUwXlr107DA2z0dWcQDAxnNt3ODUuJMxk3hmbU7Byyhp8Rz1ae2ozcrW7zFD+ZxruGOElT94Mn0TCO14G2dyQk+t3TtnlQ+EJoQQmqZBTj4juj7GH3WJ8dcHERzNwqohyfZ73adTiT8mauoc44+6xPjrh9SfwFjMzl91iZzsmf63o2abXxoTNQ0C44+6xPjrC3nni9qfMz2FnI2+mPXzbhpgoqaBYPxRlxh/1CWV+LvxyWRERETD9mO9XgOQWZ2oK4w/6hLjj7qU5+FdWPqmzjH+qEuMP+oSS99EREQDx0RNRETUY0zUREREPcZETURE1GNM1ERERD3GRE1E7aU+JtV3thMhhT/RWr8lLXLa/853wkRNdIrIgaZNSq9zTP1J6S1E+Uf5lYG7pD4mtfVeN1mm/kSeULPXGuYn5uorEonofJioiS7CRigERP6R73w8+q4hcuQr/MZhYZ1CIPFWsK54J6LPlwjHLgzNQoAAlib/jvL5/jYzDVv2qlW+zvSsmKiJrkGfY5l4MGMXjy3vrFN/Aisw4SX1lxXo8yVPikQ3joma6Fr0OZ5tIHZfW5SrU3wsYsB+hvLLfyKnXB6v3HFHjgbNicol+h3LRE7556k/gbXykIgQNmyEIsFsYbD0PUSVoZTaMVSMo2qMNI03b5bJPwyYVpioia7IGJkAVvhSvalOP7CIAXNkqC3uT7J37+bl8QQeXBjV8nhgwfh8zpYJYTfd6QcWLIRymeyufXMHn35hBSAvdbL0PTQRHMMFvGQTJ6OX7XyHNnFUjZHalhwNL6OkNAxkBhYv7lpgoia6Iv1ufNTvje+2p8DaZLXNyTPCqxvDDt+wzZs65s82EC/wUTzD2iHEJrtO8WAD8eKjMtZtI9yVgfU5lqK4HRo2HfNlfjxbxNG+GMlM30T5XdD6PWYmELwzU6tioia6ovRrddTvrQq34Pp8ubk7Ce3SyrECEFiVMqMVHNdY+4GJ+GZN8eSZiF2j9tRCqzhSipHska3Nugy48dm+yLfARE10RclnDGCMO9Xx5uwxqPgzUd6GXZkZLj9L9TFu+hbyC77QjuEa9Uf9zhNHKfyJARcekmIZ3Tzzl7lxTNRE15L6eAkA03tqcacq73wQvODgZPEsqa+UB8CJZGlaJB5MBHiPcN44yuZY2M98MuEUTNRE15D6mBguYtPDz5a3tvr8JzxT3vWUJ+CkKFfS83LmYzmpRw7/6hOVRU555nXyiRgm5JzFM8ZRlvSL49GRw9J3Wz+6bgDRbQpgaeUxPTsUWB416CtnVs8jB5qlobRW00NSmG2rz5dIMIFhaHB3LEOE6RvCdw2atv0nOxSbsvb54miKt8TDyrCw6Q52iNC2YJ36Hb4RTQghNE2DEKLrttA3xfijLjH+qEsq8cfSNxERUY8xURN1IoLT8OKOLl+4QUT9xNI3dY7xR11i/FGXWPomIiIauB/r9RqAzOpEXWH8UZcYf9SlPA/vogkhxHq9xm+//XalJt0e7r/TcP+dhvvvNNx/p+H+O43K/mPpm4iIqMf+H5EWN6XjohiJAAAAAElFTkSuQmCC;" vertex="1" parent="1">
          <mxGeometry x="-290" y="240" width="490" height="125" as="geometry" />
        </mxCell>
        <mxCell id="0TxXQybrsUDYrA-Kx0nE-4" value="" style="shape=image;verticalLabelPosition=bottom;labelBackgroundColor=default;verticalAlign=top;aspect=fixed;imageAspect=0;image=data:image/png,iVBORw0KGgoAAAANSUhEUgAAAeoAAACBCAYAAAAPKfkXAAAUUUlEQVR4nO3dPW/jQHoH8P8cFriPEKRIR/oAr8pUwz6AuI0rdwd3wyYA2bgI4NKdG7JIYXaLq6I0LmKyDyB+AsnAmUSQ8sq0V00KUhLfJFGvpKT/DxAWS41GpDSch/PMyBRaa42a+XyOnz9/1jdTR/z8DsPP7zD8/A7Dz+8w/PwO0/b5/aGnfSEiIqIOGKiJiIgG7Md8Pm9sHI1GPewKERERzWazyv9F2xy1EAItm4noAvD8JbpcbecvU99EREQDxkBNREQ0YAzUREREA8ZATURENGAM1ERERAPGQE1ERDRgDNREREQDxkBNREQ0YAzUREREA8ZATURENGAM1ERERAPGQE1ERDRgDNREREQDxkBNREQ0YAzUREREA8ZATURENGAM1ERERAPGQE1ERDRgDNREREQDxkBNREQ0YAzUREREA8ZATURENGA/5vN53/tAREREhXpcFlprXS8khEDLZiK6ADx/iS5X2/nL1DcREdGAMVATERENGAM1ERHRgDFQExERDRgDNRER0YAxUN+cGI4QEIuHE/e9Q0Q94blA68WOgLACZH3vCBiou4sdCOGg9VTOAlhCwAqG8JWuETtFh2QjLDZJP4V+H/e6WzRgl97m17mFc6H4fkTlsea7HLgssGrHISCEhUtsevtioD5YhuDJQ9L3bmySBbDsMO+MtF4+pq7R957RRbqANr/ODZwLsSMgTA+jSFeOMfVnsAcyQtydQlQ6lkgl8MzbCdYM1AeKHRPewHus7HOCRPr4fUWdEfXnEtr8Otd+LmSBBTuU8FONeoLAcKfQUxfXcOTjZx8SCSaftxGpGagPETuwQ0BFEVT9uWXqqX7VlyGw8vRNfUosdurpnQ6pxZYUV73e9CsBRncwlim/+pzcap86p5XqddWu1GOnNucXO0W9tXnBNXU0Pov6QV1y6vWS9dbmj9Nutp8LbcfTXi4LrJY5zGI/t5Ur6q6eIpvmRIvPsPyCxjmQ4XOSAOoFna9DOp7HlfTzmjLLz778/Jb6DzW6qx1oh/5wp3KVl1jV9lmr45RLHBio9xbDKVJorVNb6RcSSEhZu+rLPjFJJKQEZt+r7bEjYM98pMv0TgpfbtsFp5niihRCu3ryfs8AhDbE6/2q/tSHDO2inAF3unr9NllgQdgopaJS+PBgbupkXsOiAxnjvbwPyK/+tdbLq/3YEXi9L6Umi33lWp++9dnmj9FuupwL9eNZpFw7nI/IEFiree+zyz4xSQB5b3Yr3vU8Dm2YXy9FmQgq8fBU/6xCGzaiyvexez/RXfzmIYHCQ7kdduoPdyiHat2ml0BFi2mSGI7pAcsplBT3rydcA6BbrNl82yKlAaUjrbXWqfYlNKSv0/xJrQAt/XRZPPWlhvT1f//7P5TKaR0paKhI/8+/5v/qNa9fvEd1m248v6qjvKto7uvWcuXjlHrt2xb72qiu9rrFcW6sM/W13Phey4Jrj4Gajnb+Dq7NL99oz3azz7mw/jxaHG9a/j+kllvKrY6heh5FCs1ya4+lrUizznyfsHrUvr+dzuM1+9n62XWsv4vGMRSPtrZzzP5weZyR0mgcS1v7PY6285cj6j1kwRO8RML/vX6+J/1KgOQP+Md/+TfIZIJ8gBHjIwTUwxj/+38AZt/FlaWJewkkk88drjRTfCV5XXXjBwVghnzwkpdrUy1XlsAz16SFsm/kg5JaStBuGUeEdvEcEOlp93RcIxV/uXOi12IYbX7rXm5pN7udC9n3DJD36DQ+jR3kA6zf+PNf9z4AIPFgHviTsXLWwnCnpQVYpUK7nMddqAdUeqJj119bTKZTH/DMUip9t/5we7lC4sFszSKN8exLJJ55lhXoDNS7WqZAOgQeZcAwfuFRJvD+629A/IGwSNf80z+X82h56jkalU/SLcGpOBHWGyGfvsk7xPYqZqVyZaW0otZIfYnQrjZGVVtRmj9qn4kqUmERYHduzBkCy4SHHacB6HSG0uY36tJudjkX8vle+fhr8+Kr5I/LleSLz+fvf9r3GABIv5GS7xysjTuMACRfaee363QeH+Bk9RsufvsSWFwQdu0PO/ebBekjKgJy/WtYXATlK9BP+/M3BuqdhLDzlTTtc3RL+VxYPldk4NejBP7zPxDkQ4vVlWfyheUplQV4DVH62ciW4FSclOFHs2nEH2FpJGDgboTSSGYl/Uo6jRiMX4+rFZbF+86aw/D1xs/wZQLvrUMzLubZ1Mt1rE69fANq8xvfvku72eVcyEdejcVKdfIveDI9JFs/nz0YLl62LxkpyUd5CF+3XxTvcx7v4tT1r3m/rf1h535zxXSniBQag5WF8fti3USIlmqPgoF6V9JHuvWMrKbYjF+PkIkHL5Twn/PXGnmPUaRZit+l7vSzkcVJWVtktViVW+qwxs8+ZH0BSEu5dbLPCRJIPP4ysEr5PFUbbexsWNFZdNzhx/YrzpYTqfXnQFz1fT6DafMbdGw3Xc+F2LERSh/P2w47SZB0+nz2sLiQWbc4rOUcMNzf+UWxWV+FXCykW9rnPN7FqeuP8eaVV7h37Q+795uVo3lPi8+1GDXHTjXTUSyk7LiOb3ddJ7Nv3sZFELWFBV0WipQXxLTW3XFhTbHQYfVYs4/FPu1erm2hyKZFKqXjra5q0bK++GLdoqD6PqioW32ktT72YrIBtvlD2k1buUpdxWKjRptfs5isc7nmYqjyfq4rt/osWhZBbToHGv1C+0K1nc9jvWYx2ZpFbtvq72Lt59f2nl37ww7lmov78ja/eN988dnqcay1rm3nryieqBBCoGUzEV0Anr+XIwus/KdP1/TnS+kgbecvU99EREQDxkBNRERntuEvzV34TUROgalvoivD85focjH1TUREdGF+zOfz1ieEEGfeFSI6Fp6/RJerHpeZ+qbBYfujPrH9UZ+Y+iYiIrowDNREREQDxkBNREQ0YAzUREREA8ZATURENGAM1AeKnerN3bPAOtLdYYiIiK4xUBe3fiv/KbpT3grRvC/fvjG/2TxGd7yXMu0sC6yNf1KRt/Sk88oQWFv+zKfDP/J5DlcVqGNHQJgeRpEubkSf34z+cWKerJPL7/8awhYCQpjwcKJ709KNUIh0uf1qaB1B9b1bdIMMuNNSO4wUAAk/LW1jX3cWP/regaNZ3Pg70qi2nbyxuSd741PXT0REt+xKRtQZgtcQkD6et1zgtacXW+7S0pJCr2d52ueji7vC1ArX3zcf4W+4g0xR7zH3l65M1++8pVwjZRk7re2PqIuufWHsbO7vqN2VBOoUXwm6zw1LH2kptRipEHa5ocROM4UeKYT2tnnCDIFlI6xvDSyYHkopoxSPkycE2Rjvi/pTH7KcVpq6q2M52f7SxdrlO0+/kCxT6il8WX06CywIG6WUewofHkx2nrS39r4QQEt/du59uzxXEqhz8t7c/8XLIF+MzlVUTaGP3xEpIPHe1t4jNQue4CUSstIR5gvMpP8b7jLyGnCn09L/+9lfulTH/M5jvHkJVPSOVVUG3BcFJBN8MlLTHtr7QtrXVQXq5CvtWNCDWUq72KFCtOzx8tG5emjm0McPCsAM322dV+wUo+bf+PNfS9uzT+QLwQ+IyqfYX7pgu33n2fcMkPdovYzNvjEDENq1VKTdOhYi2m5dX0h7u5JAbeJeAph9d0vVtaWSF/O+Rce13giVmJv8MZ8DtEOoKB8l//1Pex/I6feXLt9O33mR0Xn8tXFaSFV+KbF4HJj1odtyjr7wRl1JoDbw61ECiYe3PfK8lVGIcYcRgPCjWVH8ETZHJvIveDI9JPU05HLX8vpmRxzWHrS/dPl2+s7z0ffajM4J2ifdqG19Ie3tSgL14vfMeQqvuaB186Kq+CPEahQyxnNeUbWexc+/XtzqyCRJkMhNv53O60u8J6x2IUNgWdh3nddB+0tXoPt3Hjs2wo2/hmhrn3ldXIlLO9naF9K+rud31MXvmX8FFkxbVFYbSj/FtJzDSzyYwisXQKpXnZvhTqHvHIhKPfmK7GYqUCGabg6GhjtFCgumKbB4V+mnmHaNoEfdX7oG27/zDIFlwksUIr17+4T0kW5p10RV2/tC2o/QWuvGRiHQspnoLNj+qE9sf9SntvZ3NalvIiKia8RATURENGAM1ERERAPGQE1ERDRgP+bzeesTQogz7wrRCtsf9Yntj/pUj8tc9U2Dw/ZHfWL7oz5x1TcREdGFYaAmIiIaMAZqIiKiAWOgJiIiGjAGaiIiogFjoCaiw2UBrMU90onoqBioiY4pdiBE9RamWWBBCNF4bLr1aidZAKtR73mDZRZY+e0wi/ta53ftat5qlgakpY3SsDFQE52FQqQ19OKR+oBn7n3P59gREKaHUVSqU2uk/gz2Ge8jbbhTRCMPprARIoQtTEweU/CWxFeIAb43DNREfTBcTFMfMvHwtGPPlwUW7DC/93Q9IBruFJr3BCa6KgzURH0xXLwoIPHedkhXZ/icJIB6gds1GsdONT1eG3HHjoBw4mqKfk2Z2Kk+nwUW7JmPVEdQUIh0iseJydT3hdnWBmJHQNghgASe2TJ1s6WNLaZEmlNApamaju203gZvAQM1UY/Mewlghu+uPU72iUkCyHuzW/HAgrBRSrun8OHBrHdyoQ3z66UoE0G1jfRDGzaivEwxal+O4LNvzAAABtxpc6RPF2BDGxi/a+hIAcgzOVprTIsrxe1tLENgmfBG0XKKJlJAPh30jnGnOlb7WG+Dt4CBmqhHxt1or9eN7lZdVGOx2rJzi/HmJVBR3hkW7wj3RQHJBJ/lHlBF0MvoOsaDApLJZ23EohCti8CGi6kuvw9dnE5toK5LG0vxlQDqYVVi/KCwukDdoZ1uaoNXjIGaqEfZ92yv181KQ3DDndZGKsvKMQMQ2rV0ox3ut7PqgYGYqjq1MRP3Egg/VvMh8UcIYIQ7o2sdhRttgz/63gGiW5Z+JQAU7rrm8IqfQYVfKdAx8acipqLptDq1sdCGWMbeVdp7pzpuFEfURH3JAryGgPSfdxgljPHsSyB83f4zmSKozzpPgBPtqEsbyz4xSVZz2/mjFKTZTrdioCbqQxbAMj0k0sfvzsu3c4b7G77MV99WV1dnqGbS86CeeE/VoB47N7Vilo7EvIdEgq+0vLFDGzPuMCqtFm+upWA73YaBmugsQtjlTmrxx0r2Wrmar6zWkarN65nw4CMt1Wm4U+R/W6VU7vW+Uoaok+LnhIs2t7hI3N7G8jlqVfnjPNVV3WynmwmttW5sFAItm4nOgu2P+sT2d1xZYMH0Ro056XXbb11b++OImoiITizER2WaJv9J1q2u4t4VAzXRIMRwWm7c0ecNN4iOIU9ry9o0jY2Zn5Z+t02bMPVNg8P2R31i+6M+MfVNRER0YX7M5/PWJ4QQZ94VohW2P+oT2x/1qR6XmfqmwWH7oz6x/VGfmPomIiK6MAzUREREA8ZATURENGAM1ERERAPGQE1ERDRgDNRE1BA74vA7F2UBLP41NaKDMVAT7St2IIRVuTVfFlitf/7T2nrz6Hbt9Vnb70Xdoyyw8iBf3GcYyBBY9VtyUm9a2i0NGwM10dEpRLp0S7/8/n0HjFCr9UUqgWcOt6M13CmikQdT2AgRwhYmJo8p+GedLxwDfG8YqIlOzXAxTX3IxMPTEXq58bMPiQSTT/aYRLeAgZroHAwXLwpIvLejzdmO7ozqhiyAVUuTt6abu5arvMSqpvBrdZRfnwUW7JmPVEdQUIh0iseJydT3gMWOgHDi6lRLKQMUOwLCDgEk8MyW6ZzYqU7PNLJH+fTHxjvCbaljsY+xs+49rhcDNdGZmPcSwAzfB/Yu8ZuHBAoP5VRy7ECYHkZRKeUeKYR2S4fapRyqdZteAhVpTF0DQAzH9AA/LepIcf+66nANdwo9dWFk35jlW+BONVPfQxfaML9eiu80giplgMbveTsBJPw0bzd5Wygu4myUpmdS+PBgLgNphsAy4Y2i0vQNkE/pvGPcqY7VPtoo6pm6qF2qXi0GaqIzMe5Ge74yhF0aadghIP1nrOJehuA1BFRUDYbjd0SVUXzXciWxA2GHUNGmQGvAnb6j8bThYqpbttMwqah0f+gxHhSQTD63jFpjvHkJVFT+ng24LwpIJshnZ1J8JYAqXVmOHxRWF61d6ljuJKIbvOJjoCY6k+x7tucrty1Oa3aEC9UOsWu5QuLBtENIv74QbIxnXyLxTC4uunVF1iS0ayltOywVMnEvgfBjdRkYf4QARrgzutZRUA83eeHHQE10JulXgmXndAjDxW9frkYbyxTzOtUOcWu5BekjKgJyfX7ZcKelFei1uUa6Oao8lbJ8TOGW21Nol7JCq7T3TnXcKAZqonPIArw2UtZHUvxeuTxiWYg/QkDew9ylXInpThEpILTbR87j93yELxGipVq6dkWbmm1aeJF9YpKs5rbzRylId6njxjFQE51aFsAyPSTSx++jDA/yOT2ol2K0kaeiEdrVkW/swA4B9bJYdNO1XNX4PYUvE3hmMWqOHYhyBekXEkjc16M8XRfzHhIJvtLyxsU0yFP1Qi52VlMzxh1GpdXizVXdHeq4dbrFms1EZ3Ex7S9SGpDaT1ebUl9qAI2HivZ7i3X1oa3CSNXKVfdtl3KRgob09WpzpFXpfSN1nOMbootpf/tqabeRarapZhuofu/l4o12Wnldqn1ZbyP5tnK5zXW07+M1amt/oniiQgiBls1EZ8H2R31i+zuuLLBgeqPGnPS67beurf0x9U1ERCdWX8OwmL65zVXcu2KgJjq7GE7LjTvW/sUmogtmuFOkvqz9/MrGzE9Lv9umTZj6psFh+6M+sf1Rn5j6JiIiujA/5vN56xNCiDPvCtEK2x/1ie2P+lSPy62p7/l8jp8/f55tp64NP7/D8PM7DD+/w/DzOww/v8O0fX5MfRMREQ0YAzUREdGAMVATERENGAM1ERHRgP0/t5oHQZmaLqMAAAAASUVORK5CYII=;" vertex="1" parent="1">
          <mxGeometry x="310" y="240" width="490" height="129" as="geometry" />
        </mxCell>
        <mxCell id="0TxXQybrsUDYrA-Kx0nE-5" value="" style="shape=image;verticalLabelPosition=bottom;labelBackgroundColor=default;verticalAlign=top;aspect=fixed;imageAspect=0;image=data:image/png,iVBORw0KGgoAAAANSUhEUgAAAegAAACFCAYAAACQTWs8AAAZh0lEQVR4nO3dv2+z3NkH8C/VLfVPqN6hG6SSH09Vp+O9ksmSycurKhuMZslQKWOGSllgNNutdqm7ZHgDf4HPX+BEamDo2LFrJ94BsA8/bIPBNna+HynS8/gmcAIXXJzrHIyWJEkCxcfHB3755RfQcbj/uuH+64b7rxvuv264/7op778fHx8fhQXG4/G520REREQA1uv15r+1cg9a0zSUPiKiK8Hzl+h6lc/fX12wLURERLQDEzQREdEAMUETERENEBM0ERHRADFBExERDRATNBER0QAxQRMRnVNoQ9NshHX/FnuYaBomXnzuVtEAMUETEQ1CDO/Rgbx0M2gwmKCJiAYgtA04zM6kYIImIrq00IbpA1YQwCr/W1b21rQJipXvGN5Eg6ZpsEv18tBOP1d/WDa/PkzQREQXFcI2fQg3wmJa88/RJyQEhJBYvitJNn7HUgoIAay/tp+HtgZz7SJKEiRJgiSJ4IrT/xXUPyZoIqKLieFNTPjCxc+5Xr/E1xoQM/zlf38DuXxHnorDVwfSesbffg/Izyj/FG8+IGb3qF8bXRMmaCKiC4m9RzhSwP0535lQo08JyF/hf/74Zwi5RNqJThOx9TDFv/4DYP2VJW4DI4FCIqfrxQRNRHQJoQ3DkbCCFXZ0nrcsHbp+j5mQcP7v30D4Bh8WHqbAb/+g1q91zFcJgrEDYzP+zMln14oJmojo7HyY6ayw+nHnjRhfa0CMDAA67mcC+Mff4aXdZ2x+VX4i2vyKhxcfEG7EMegrxwRNRHQJwkW0PzsDiPCp9H71+xmEdOD4Au5T+rv63RjAGuk8sexZ6j1j2nQ9mKCJiM5u/7jzRvyFNYDxXbakPsezBUDMcJ//sjHCpoMcvh4c06broSVJkhQ+0DSUPiKiK8Hzl+h6lc9f9qCJiIgGiAmaiIhogJigiYiIBogJmoiIaIB+fHx8XLoNREREBEDNyZzFTXRDeP4SXS/O4iYiIroCTNBEREQDxARNREQ0QEzQREREA8QETURENEDfLEGHsDfvSNWg2eGlG0R043jOXZXYwyQ/VhMPccNfC211+RjepN3vU71mCTq0oWk2ak+t7IBOvAEfitDOLhAm/Owj4UZIDr7q7RplJ4e25+eMF8nQrm/DoOOFurvJc25Y51b/sldVWkH6HukV34h1aR170NkB7actpxF7mJi+8vLy9Gd1s+9K1TFfbf/OJLAACLiR8tm5L5LCRbTZ9wGs826dzu1mz7kBnlu9St89LUZGx/Vk+0lN8KENTZvg7Pfll9puT350+eXQNuAMOjsD8fsSUriIrv7icI1ifKUvs+Wd+DfCc46oH8f3oEMbpg9YQU2PaDOOUb5z2ZaIypWgulLowTKoOl6i1a83+pRpgtiU3MqlqHLZqsHdVnldpbGW0C6VujZ3caXxuB3rqOyL8h/V07BC7E1qxomyNirb3FWmPjzG1OyO/HA7mu23Jsdl4sXp9jbLVYdudu///e3w7D3ry9rSpA3F8bzK3krj9SSl1H7i8/A5p/451XNYXa5pjNYul627eCq23LdHnGthT3GQ/VLLc26HQ9fK0N4MR0jH6DwMVf5bNdMHIOEYNdf2htfTTdw1jMXd260/h8qxsW+7vR2XA45M0CHsrIRVW9GJPiEhIITE8l1pdvyOpRQQAlh/bT8PbQ3mWi2DRnDFoSbY0AwH46BYcvJN9eBnPTjfhPYy2q4/ciF8M1tOKVsFh4uvsTeBZgKB2lY4MPad9C8+YD1jrk+xUNuglseyclBoa3gZKaXBrK3nGdqK4U22Y4YFhTJ1gga7Coi/kHag2/akyu04vN+aHhfpGDA+n5U482GWTsrd+39/O+ZPLgR8vKnHKvaQHv5tue9QGy6nj/hscs4pok9IWNlxa3De74vRgZj2FAftrzU7NLlWTheb4ad8aKKvIYnpojockK+78d/omzARtIrFfdttrGa7vR2XBo5I0NkJIlz83PHHxl9rQMzwl//9DeTyfXvxe3UgrWf87feA/IzyT/HmA2J236IMmie9oHiDMF0gsADpvBbvRK2gOB6iz/Fct9xBIV4dCStYYLtZHfNnC5BLvNcdnfAVjhRwn5qNTU0XpSDS7zETgK+e7focqxOM6cXeI5zsBqoX2Y1a2yGt9u1ocVyEi2gTNNVlGu3/XWqWjd+XkLDwoB7+A20Yssb7p7dzrqj3GD3kmHOtlzg44lpTq+W18qza/I0WglJvsNO52lh5u30dl2ZaJ+j8BHF/7p7hF31KQP4K//PHP0MoAffmA9bDFP/6D4D1V5a4DYwECon8sLR0aj1Uk970wQKwRtpBT5erU1xOtS2HVEpBWY/QN0tlFbPmft43s38DgmSF5ud3ueR+pnH+0IbhAG70E3/6Zz+rjNMBaLTqQB/TjjbHpTwebowgILG5X+y0/3Xcp1eI7KIX430pAesBhUg92AYA0oFxqDx8EYf2T7tzLr2ZH6HRPVxfMXryfdtDHLSJ6b2aXisvoM3fWN536QpOf60sb7e349JMuwQd2jAcCStokHAsHbp+j5mQcP7v30D4Bj+7g/ztH9Tb37TEHIzVk+bAjs520m55UkiTf/0qdiWP4qzMyBXwzeK4tKWWijY/pX2SP6oQAGbjWYQxvIkBBy3L/V3IX29m3ebH9b+/62fVUToA3ezi20M7Gh2Xvbrvf33+DAs+Xrw4G9KpvzgepA4pZKW7yyfpJvunzTmXJq6D1bO+Y/QM+7avOOgc042vlZdz3N94gWtl5za31yJB+zDNmlJJRToGlU4Myu4k//F3eGn3eXs3Ij+x7bSk4zPbxzIO7Gj9DmPUlzLCN19JCjruxlB661tNk4d+P4NANpaebXfd5pZz+gRXSDivDS4A+Yn8fMbnD8Vf8Wikzz72+4RIy6GLLu1oc1zKsaCW4XvZ/1M8WGlFKMxmM1dGN/a1oU5WHr64RvunzTmX9u4OzlE4WYzihPu2Yxwcc62p0/haeQFd/sZO52oWo8fo67g01K4HXRgz2aVY4tLvZxDSgeNvx2H19AzOSivZs9R7xrSrpnhyBVCePJXPLFcO2vTJhZAOHkuzBsvL7ZKOHQnM7vXNdqXzWOwRh/aeWXzlctceNSdT7aNsfX45jJTpIzE9X/li7wU+LDw3Paad2tHiuEgHhjor28wn8KH5/j/UmgcLkA5MZ0fvcF8b6uQ3sJ2fT+2o4f5pes6FdjqX5eD0jBPFKIDD+7bDudYtDo651tS2ovG18qTqhnG6/I1Nz9Xa7QLGSAD+y2a7oa2hWZW6r+PSTIsEvX/ceaM8cze/QxUz3Oe/bIyw6SDnk6iarFuhz1ebmYjbcYA13Cgp3mXrc6wiF8geHdi53KZdxTFowxkXxpD1+Qrp6pTtvowQ7fnWnbQXnpW79ppikZfcsnWbCJrNmD6ahaDXbwxKH4FJxwoXNeNGp2lH4+NiBYhGL9kyaYLYXvh72v/Tp6wClN/YlextQ3bxUMdJ0505gC/6aLh/Dp5z6dih6Tc95g2XK48tG+mXKPnmdpz5rPu2Yxwcc62p0/haeUpZHsjbkN8sHP83No/F+u3+TCub2XZfRhGihvXxvo5LE1qSJEnhA01D6SOimxDa6Ul8+m97UsbHSiftqdvA87cq9ibp40xn/5avy8UBXafy+dvpm8SIqEY+Phbwu4y/NcYBdfTN3mZFdHrhq1N95pW+ndPGwZ5vfdv3zWSD2wbtwxI30Q3h+Ut0vcrnL3vQREREA/Tj4+Oj8qGmaRdoChH1gecv0fVSczJL3DQojD+6JMYfXRJL3ERERFeACZqIiGiAmKCJiIgGiAmaiIhogJigiYiIBogJuoPQLr7sPfYmJ3mjCRERfT+3laCzV8OpX0XXyysZd0hfWZa/RjJ9+TzGd/zeXWot9iZ7v1LxlHFMVJW+cWzv13za/JLPU7uZBB3a6avjxkGCJMl/IsyWxskubukry3yYmgZNy95aw7fT0NEsBIkavwmSJMBJ3zZKVEvHfKXEYWABEHAj5TNe607uNt5mlb98PCi/3zQNsvnJNnzq9RMR0Xd1Az3oGN6LDwgXTwdu6OrLiDVvY6kplZerOfXjzdnbX0oLl7eb9uj3vCkmW2+f7aUb0/SY1yxXKU2Gdm38ETXR9FoY2vuvd1R1Awk6wqdE87Ff4SJSSoiB5cNUAyS0q6XywIJvHhoHjOFNTPjlT70JDAdKaSjCbPkIL55ika8/ciHU8pH6cveTtZeuVptjHn1CbkrnEVxR/OfYm0AzoZTWI7hwYPCiSUervxYCqLmenbtt1+UGEnRKjIzjf3mT3LPeuBUUS+XTBQILkM7rznefxt4jHCkgChfAdOKYcH9ivsm4OuarlfL/l2kvXas+j3mIV0fCChbYrkrH/NkC5BLvzNB0hPprIR3jZhK0/IwaLujAUMorpm8h2Fzp0t64VfOG9emDBWCNr7qLVmhnveSf+NM/lc/jd6QTuztk41O0l65Yu2Mef60BMULt7Wv8hTUA3yyVHM3avg/RYbuuhXSUG0jQBkYCwPqrWUmurmScj+tmF6zdxijkWvnrdIzP9GEFaa/4v787+g85fXvp+rU65lkFZ3a/d/jHKjz5kP90rPLQ93KOa+E3dAMJWsf9TADSwesR9dxCr0O/wxiA/1ZdUfjmV3si4q94NBzIcrlx07R0feseu7Gd2kvXr9UxT3vbOys4J4hP+qYOXQvpKDeQoPPnkdNSXXWC6v7JUuGbj22vY4qndEXF9eSPcT3Piz0RKSHFvmef0/VJ5xHbJsTwJhMcO3+rU3vpBjQ/5qFtwt/7dENdfKbr4sxaauXgtZCOcRvPQWfPI997EximVpg9KNwIK7VWJx0YmqMugCjZXtT0+QrJnQ2tsJ50hnW15GchWO1Pgvp8hQgTGIaGfKvCjbBqmjl7bS/dgsPHPIY3MeBIC0HSPj4hXEQH4pqo6PC1kNrTkiRJCh9oGkofEZ0N448uifFHl1SOv5socRMREd0aJmgiIqIBYoImIiIaICZoIiKiAfrx8fFR+VDTtAs0hSjF+KNLYvzRJak5mbO4aVAYf3RJjD+6JM7iJiIiugJM0ERERAPEBE1ERDRATNBEREQDxARNREQ0QEzQRNRQDG+i8U1X31xoa9DKrw3sfyuwterbCbtJ43ff2w2H5uoTdOxNoGk2at6OC1u7roNBVya0oWnaFcRflli1PT/5lTC0oWnHvw6V+hfa+26KsmPbZyaLPUxK8XHuOI69l8KrUkO7Pm7Lf3aaD2riGgCgY/5sQTqvNefrMF19gia6lPhrnf2XD/PkPYou0texJkn2E1jIX0+5+azRe3yz9aivFWRCP7npgwVIB691IRa/YykB66Gf9zCHtgbNcDAOlNhIIsyWxhmTdIz3pYSY3RdfXylcRInargRq2MbeBIYDJa4DWL5ZTNLTB1jw8Tbk01XBBE3UiQXXFYD/wiRFpzF9gAXAr8kq8fsSEhZ6yc+hDdMHrKCY+PIbs9W5XjAfv2MpBWb3bbYX4tWREO5PbJs5xZMrAP9N6TFP8WDV78sh+nYJulIqKfV8KiWSUu+g+u/1Jc5G26mUrarlqvrl0vJppay1KblmPxwrPIu7+U+4QsJ5PLy/D8VFPr5XiLP8OKrHt+7YnuH4q+XW0NagmT4ACccolkLzv2Pz9zIWO0iTSjHRAHlPE9YD1HzaNMaKxyaG9+IDSln5kNoY7dyO/KZjjLs2+Tn+whrAuPRL+t0YKPWYjVE5aQ/Xt0rQoa3hZRRtSySRC+Gb23GM2MPjcqaUUaL6C2+p1BJYPkwlQA9up5MY3sSEX/7Um0AzgUBtOxwYvDCeQTq2tbMMmWkcF74J4/N5W6aTDgxNg/b2UPjsUblzvMTxny6q5fJCL8s3YSJI26OWxam1aZqhi6XZmvJ2mxgrHpsInxLA+K7ZcaqJUTUej28HEH1KQIxglLeZnwd14+LRJyQERuVfMkYQpY/SpL3G1xVcGG8kQfswK73aahKbLkoXEP0eM6GUO/Q5VnUXkiZBqyxzcDsdxN4jHCkgClGXlnesYKHcSedJY4n3KwjEqzddILAA36ybMJYv0jAuhItoU2PMek81n8nle5Z8h3r8LQSNxrbpoOkT3FKsxO9LyFKPt/m1p/7YiEqG28EKlHkL5Xjs0o4YX2lXuHDNnS6KY8+RKyCdI8fFjREEJD6j9r96bjeSoC2l56BMEKgsV57NasCR5UXUGYwGnHFQnUBTupMz/WqQHdxOzXp2LpcL7WwSxE/86Z/q5tLyjm+WblLM8i0KndL0yYWAj5edF42GcdHWUI9/qfRKXei4n6ml2R0TqZrG2I5jI3vLWt3acYg+XyEo3RTcohtJ0E3E8CYGHLilEnZpMX2Olfrva7M6xlxX4t4s03A7NevZuZz8dXrjYPqwghXmOvDf31UXs4LyTUqCJFnhXHM7vj19jp+ugHQeayaMtYiLI/H43zb9fgaRl7lrJ1J1iTEDIwFg/dVDwush1pu2Q34iAnb3ineVvq/E90nQ+XjNc5uxsKxMeGC8Ih0fypY5ajsHiL/i0XAgrQC1FUP9DmMA62sYVLlx+vwZFiSc17fiP5wiLjYb5fH/FpQycfjqQIoZivm5S4xlPfQD8yga6diOu3GjjaSl8Hysesc5kD4KWZpwdkVJ+/sk6OwAqmMgoV0qu4R2aaZhNrPxwIzC8E1Zpsl22pISsjAGWZY+TlDpuYU2Z8+e3RSLwAJ8vzgH4hRxoWzzYsf/isbzrl9e5jZh+qiWtzvGmD7/mY5zm9UvAAntFl9W0rEdxkhse8ZAWj0sxXE6F0e9CcjGwdVzIPbw6EgI96lQRq9N2gP1fRI0plhkMwk3Y8cIEKgD1dMFotFLcdwELqJkURwnKY9Br9VlGmynNQvBgVmw+nyFyMXmcRdN06C9jBBx9uz5ZRPGAPWxj1PExVa/x18W17Pvm6T0OZ6t7fj3oL+v5QakFRoAsPBcGbvoGmPp886RKyrzGV5GUYvnoLu1ozLLWr/HDMVrruGMEZS+qGS6SBBYSuymE3Yq7d45S3yAtCRJksIHmobSR0Rnw/ijS2L8DUEIWzOxrkmuw153d+X4Y4KmQWH80SUx/oYh9iYwlrP+K4ChnX1fwGKQTxgwQdOgMf7okhh/Q5H2dFH52tEu0tnly9kwe88AEzQNHOOPLonxR5dUjr9vNEmMiIjoevz4+PiofKhp2gWaQpRi/NElMf7oktSczBI3DQrjjy6J8UeXxBI3ERHRFWCCJiIiGiAmaCIiogFigiYiIhogJmgiIqIBYoImoo3Q1pQ3YMXwJlo/b8SKPUzK71WnG3dc/BRj8HtjgiZqKrShaZPCKx1jb1J468/Btz99M7E3SS+22SsI84s233pFdBgTNFFnFoIkQZL/pO99PK4XUHMTcDnp6wcT9YUFLdunz1cIxg4MzYQPH6aWfhdyf9+vTMNVEz/UChM0Ud/0OVaRCyEdPA4j0xLRFWKCJjoFfY5nC5DOa+Nx19DWoJk+gO1L5ydenH5eM36rjtWFdrpsseReM+Yb2sVy/IFefnkbde3bLGeHWVu3vxN7E5hrF1ESwIKFIIkwWxoscQ9N7GGixEXl+ByIm13Hv248ebNM/sNg2IkJmuhEjJEAsMZXw070dJEgCSwAAm6UlstXcx3TJxcCPt7U61js4cUHrOdt+VA6BozP56zUHsEVPkzl4hh7k+xduMl2GTgwGpbid7VvwzdhIkjXnZU19fkq/e/4C2sAedmTJe4hCWEbDuBGm7gYvWxv7hrHTc3xr2zJ1vAyigrDQcI3ecO2AxM00Ynod+OeVnSPmQB8JUPH70tIWHhQE51wEW0yn475swXIJd5jAAjx6khYgfqi+vIyXVkIdmVefY5Vom6bhkvHfJUfqzZxs+f4Z6aL0k1dTWzTFhM00YnEX+ue1qTjPr2KZb2aGO9LCVgPxYQ3viv2WowRBCQ+IwBZD9Y3S+VF0++pjai2h67EFE+ugHSM6gTANnHT6Phnj15t1mXAkb39ITeHCZroRKJPCWCMux6msOrzZ1jw8eLFQPyOND+3T4dWoMw23/ysMOc0229Nn6+QJAkCK59fUJy/0E/cxPAmBhy4iNRyuej5j7khTNBEp5CNEQv3qade5RQPFiCX7wjfl5DCxVN5xeuv4phg9AkJgZEBIHsOed10QJy+pekiGxfO5zz0GTf5jeUzH7tqigmaqG+xh4nhQAoXP9t2TdWydMn0wQKkA9ORELP76kVOOjA2s21C2KYPWM9ZLycvYz4WS5ih3e557T3toysV2sWZ1OqNXV9xA2ySvTreHNosce/DBE3UmQ9THZ8zHIyDI7+gIXs8Kx/zK8xunT5l5UCB2X3Nmq0A0egla4cJvzBpLC1jpt+horT1ZYSoTTv3tY+u03SBAGZhfNkKtuXrXuIm3RAW2aztfD0mAgTWCf6mG6ElSZIUPtA0lD4iOhvG3z7KGF7p4hja6cUu4fNLnTD+6JLK8ffjgm0hojbyMbyAY3hE3wFL3EQnF8KueaFG8efwm57CV6f67DMR3SyWuGlQGH90SYw/uqRy/LEHTURENEA/Pj4+Kh9qmnaBphClGH90SYw/uiQ1J1dK3B8fH/jll1/O3qhbwf3XDfdfN9x/3XD/dcP91015/7HETURENEBM0ERERAPEBE1ERDRATNBEREQDxARNREQ0QEzQREREA8QETURENEBM0ERERAPEBE1ERDRATNBEREQD9P8Nzy9YRivTYAAAAABJRU5ErkJggg==;" vertex="1" parent="1">
          <mxGeometry x="-290" y="430" width="488" height="133" as="geometry" />
        </mxCell>
        <mxCell id="0TxXQybrsUDYrA-Kx0nE-6" value="" style="shape=image;verticalLabelPosition=bottom;labelBackgroundColor=default;verticalAlign=top;aspect=fixed;imageAspect=0;image=data:image/png,iVBORw0KGgoAAAANSUhEUgAAAecAAACDCAYAAAC3H9OsAAAXeUlEQVR4nO3dPY+zSnsH8P88uqXzEaIU6WCP5OMqSoX7SGYbV26io+2G0jR3EWlLF5G2gdJ0q5MmTrNFFj6B+QTelc5CkfIp056KFLwYBmyDX9bY/v8kS7e9GMYww8VcM9yIJEkSZD4+PvDbb7+BDsP9dxzuv+Nw/x2H++843H/HUfff3y5YFiIiImrA4ExERNQzDM5EREQ98+Pj46N4MxwOL1gUIiKi+7Ver4t/i/KEMCEESm+J6Iqw/RJdL7X9Mq1NRETUMwzOREREPcPgTERE1DMMzkRERD3D4ExERNQzDM5EREQ9w+BMRETUMwzOREREPcPgTERE1DMMzkRERD3D4ExERNQzDM5EREQ9w+BMRETUMwzOREREPcPgTERE1DMMzkRERD3D4ExERNQzDM5EREQ9w+BMRETUMwzOREREPcPgTERE1DMMzkRERD3z4+Pj49JlICIiunvleCySJEmKN0Kg9JaIrgjbL9H1Utsv09pEREQ9w+BMRETUMwzOREREPcPgTERE1DMMzkRERD3D4NwLASwhIPKXFVy6QER0MLbnrgKL+0l13cE5sCCEhcZDGrsYCYGRG393qdoLrKwBm/CyjwwnQrIYX7RY3yOGO0pPXmyTd+ba2+02d92e6dSuOzhvFcN9shFeuhi7xC5Gppc23iQpXquZdumSfY/gBXYoISXgvTE6E3AV7Xabe2/PbQUWhBjhGq+9vttNBufA0mH3vIXH70uEhoPXO228wZsHyAkWEwl4b829KLor19But7n39kynd3vBObBgeoD0fUj1b1nKrH7ltj3FGlilsaPstTflVmxn81LXG32GwPABWpEKU8enNmUSjWVu/u2VdY1cxJU/K+M6xVWsMka2ZR21faH+qNYpyQBpbB4D4wkkPMyV78TuqKE8eSq0XXnbHIfASstb3d6WlCudz8Xa7Wnq/v723PR7mpeL3VGt7Rbl3Ldctu5qM6+fC2r7sPyFLe149z5oWI+y7cASEKYHIIStNx+TSjtsKnPLNi2sYFPerb+9324sOAewstRS4zBP9IkQBgwjxPK9dLjidyxDA4YBrL82nweWgLl2EBVpqgiOsa8IFoRuY+hvUluJL+GZ5YoY42sNwDMh5oPN+iMHhmdmy2mYrTbf3yd2RxAm4JfLChv6rkY59wD5jJk2xqJcBhhwouz9agYt2xfzQSlll5X1oPHi4A0eJCZjABhjIoFw+V4vp1He9wl86cEcuYixv7ztjkMqtHXon8+lY5xvh77HJdvtKep+m/as/h6ZtdUW5xTEcEebcexLOEX7Hy/yc9lmH1fS/p5Zaoc+ZGjjqbzvOrRpeCZM+NVzwpW5oeCcVeAdqaX4aw0YU/zHv/1DJRgELzZC+Yz//Gcg/IzyT/HmAcb0scOBzQOeXz3JjBfwJRDaL9UemfSrFUeb4blpub0CvNghpL/AZrMaZs8SCJd4b+wwvMAODTg/201WGS+UhqQ9Ymoo48XaDKu942z5PpoUZR1PdpRTNXxocTw6HgfDQVQsuGe/0Yn1od3u1qruAydsz1Wx+wQ7uwj5Fg3tuPU+OIb0S5Pn1Iv2jm0aEv6VT8S7meCcV2DndftVUvQZAuHf8I//+u8wipPvJsX6v/8HYP2VVQYdA2NLj26rCJ9hlq5VjCcSwBrpBX66XJPqcmWbVFAtnRN/Ib1wV9JOZsO1tmdmfwP8ZIX2Q2Rqmv3A8cH4HUt1H40nkFB6RQAQ2tBLv8f02ja4tschowZ8fQADIYrzPZ1NP9rt3lLuqfvd2nN6sTGA3mbTgQXdBpzoFb//efAPqLWl7rctnaj9H6xjmy5d/F+r2wjOgQXdDiH9FsFGatC0R0yNEPb//L2SYv2nfylfmqZpZX9YrtR7KmQWJLcb4kED8hNI8yrWpeXKSum2JEHkGPDM6hicLKd7ipeyT2SW6vEBs/WsyRjuSIeNjin+pjW9LxFCvZBIU3aNPVo1rd1mPLj1caCL6ku73alN3e/SnmO8L8P9Pfvwl2IGeL5//vr10N+AalvKUtLtA/Tp2v/B7rBN30Bw9mCaDemOmnRcyBjoADQ8Tg3gv/8L7ls1xYrwE0WHKXYx91C6PWJPhdQeMERzqid480pXyxoehihd7W9En2Grq2rtcQoj721m213Xu9vbjX/CMULYLy0aaN7bfT527CY9MRUXCEl17AjwsCtLtj2roGh9HDLqccjGOAetujZ0mB61252bb1P3u7TntAc43BdJjD/wpNsI9+6fA2Tp9ta67INz6dqmb8ANBGcoY4bbVFNP2uMURmjD9jbjrlrawrKTf3bPZafbI8b46RiAOlEin4laqtzjnw6MhgkP6nLbpD1QA9NHrdhuaD9Ve8KBtWOmYnaia3MbU0PDaLztZd9s7eAF9pbUVJra3j2GFbx5aHeF3P44AEhTfsWC6eSkdKLcvu3QUXrTbndoWffbtufASsfX9071CEOErfbPAfKLl21Xn2o7brkP9IEBePPiHBRYArWRtYOHjDq26RtwA8F593hVIUuLFFes+dWjMcVj/mV9gOICO58w1WbdJdpsVcwg3Iz9ruFESfUKWJthFTmAre9erihXdcxZt4eVMWNttkK6utJ25wNEO2Yqpr3v+m1MdWMs8lRYPv4LHy0mkVekwTWfpV3fxiSNzpuLBXXMee0gShatxpJaHwcAkD6iwXyTYj/XSZFK+tVut2tZ9/e253TM1vQk/Fazh1sup44l6/Zm2CiLYvrAqC6XDmJ3+A9S2u0DbfaaZuOyc9B8ECFSUxbZ8cvbZZeh705t+gaIJEmS4o0QKL0lunmBlZ5obuG/WGT7pVzsjtLbkm6gXt8Ltf3eQM+ZiIjotjA4ExER9QzT2kQ3gu2X6HoxrU1ERNRzPz4+PiofCCEuVBQiOhbbL9H1KsdjprWpN1j/6JJY/+iSmNYmIiLqOQZnIiKinmFwJiIi6hkGZyIiop5hcCYiIuoZBucDBVb1geWxO9rxBCgiIqL2bic4Z485E6XX1kcXnkD6eLT8CUrZc4qHDzf32DI6v9gdVeqt+jpnPSaqS5+gtatOii6Pk6KD3ERwDqz0MWhDP8kerp4+YH261M92Yksfj+bBFAJC6LDBxwzSMST8pFx/EySJj45P5SQ6AQ2zVake+hKAAScqfcZz3dn9uHQBjpY/bNtXn+mZVrDZ2TZ87vUTEdG9uvKecwx37gGGg597LuSaU4cWasmZhvS4msFpHl8OYDWke9Ttpj35bNmmV7beU5aXbkzbY96wXC0dGViN9Y+ojbbnwsDafb6juisPzhE+Q7Qf6zUcRKW0oS89mOXKEVj19Lgv4Zn7xv1iuCMTnvqpO4Juo5QOijBdPsGNx1jk648cGOWU0Wq2+S1nKy9drS7HPPpEWKTLIzhG9c+xO4IwUUqnR3BgQ+cJkw7WfC4E0HA+++6yXZcrD84pY6Af/uUisGe9cOlX0+PjBXwJhPZLvdeaid0n2KEBo3LySyeJGc4rZkW01TBbrUrvL1NeulanPOYBXuwQ0l9gsyoNs2cJhEu8MzrTAZrPhXSImwjO4WfUckEbeimlYnoSfnGWS3vhclLPj48nEsAaX00nrMDKesev+P3P0ufxO9IJ3EdE4nOUl65Yt2Mef60BY4DGS9f4C2sAnqmkGc3GPg/RftvOhXSQKw/OOgYGgPVXuzRcU5o4H8fNTlbbDVGJs+Ev6Zie6UH6aW/4r18P/iHnLy9dv07HPMvcTB93DvnIyh0O+evI7A7dl+84F96hKw/OGh6nBhDaeDkgh1vpbWgPGALw3uorCt68eg/E+ANPuo1QTTEWRUvXtz5h9/Wo8tL163TM01721szNGeon3al950I6yJUH5/x+4zQ9V5+IuntiVPDmYdPbGONnuqLqevJbtZ5n1R5IGCI0dt3bnK4vtJ+wKUIMdzTCoXO1jiov3YD2xzywTHg772Joqp/pujiDljrZey6kQ1z/fc7Z/caP7gi6KSqzBA0nwqqcnwtt6MIuL4Ao2ZzQtNkKyYMFUVlPOpO6nuaT8Fe7A6A2WyHCCLoukG/VcCKs2kbNk5aXbsH+Yx7DHemwQwk/6V4/YTiI9tRroqr950LqTiRJkhRvhEDpLdG3Yv2jS2L9o0tS69/Vp7WJiIhuDYMzERFRzzA4ExER9QyDMxERUc/8+Pj4qHwghLhQUYhY/+iyWP/oksrxmLO1qTdY/+iSWP/okjhbm4iIqOcYnImIiHqGwZmIiKhnGJyJiIh6hsGZiIioZxiciaiVwBIQ6qPf6K58Tx0IYIn6UwaPE8Md7X5KYd9cdXCO3RGEsNDwdFtY4roOBPVMYEEIcYX1Kz0JiZOf3OgSAkvseIRndqxPeaBjFyMhsrqfvr67nsfuvPK408Cqlid/qT87jQelZSoLaJg9S4T2S0N77qerDs5E5xJ/rbN/eTCvKcoFL7BDCSkB7+3AcgcWhDj8ueN0OuOJBEIbL02HMn7HMgTk5DTPUQ4sAaHbGPoJkiR/RZgu9W8M0DHelyGM6WP1EZSGgygplytB+fHRsTuCbgNOlP/dh/TMaoAeTyDh4dBm8d0YnIm2knAcA/DmVxOogjcPkBMsJhLw3q6ml0BbjCeQaL7Qit+XCCFxktgcWDA9QPrVoAdomK0SrL7rAfHxO5ahgeljl+0FeLFDGM5r6Tn2Y/x0DKUNjDE55qL1m91VcK6lR5QeUS0tovQe6n9vTnu22k4tVVVPUTUvl6ZUa6msIg2bvbamwqiLh9krHCOE/bR/f+477vl4XaUe5cepfPyajl2r4xsgjc3jopcwr1xVNKdBy6nTwBIQpgcghK03pzUby19doJYarVfXtBzFPmN93SINKPULrbSHCTlBOZa2rYPV/R7DnXtAKZW8z746cFg58guOIR66xOb4C2sAQ+VL2sMQUHrK+kAN2P11N8E5sATmg2iTFokcGJ65OWnELp6W01LqJGo+KSvpFV96MEuVc+92jhLDHZnw1E/dEYQJ+OWyw4bOE94JpGNVW1OLmdbH3TOhfz5vUm+hDV0IiLdJ5bOnUkBsfXyDN3hFTyo9qYfL9051YLxIkPgSgFGkCCu9pobyl8uKwKqnRn0Jz2wYu/RMmPDTZVYzfFPf7OqM0+hcTcc2pLS71MHqfo/wGQIYPrQ7BnvqwOHlAKLPEDAG0NVt5u2kaRw8+kQIAwP1S/oAhvJRGrDX+LqGE2NSorztvcgxEgBbX4YT7fp24hhIIP3Wf48cI4HhJOW1+nLXOtqvp81y6e81EqOynJ9IIKkVwZcJYCQ7d0HP9Kn+pftaJsVelii9T/d51/rlSzTXn52ftT2+DfW5zTJNZdhSd5rqevW729tUdf/V3/dBn+pfVdtzyP7vNe/3NvW59P199efgcuw7J2dLZef9orzbznWRkxhq22n6rCfU+ncDPWdZ6lGUJgPUltvMYk1fOuxQXaScjtNhD30kCyXPo1zBmZ6EX1mmxXYa1rN1uVxgZRMeXvH7n+XNpSkdz1TSSKbav6ZjjH86MGpp4rKWx72rtse3aXLQeAKJEMv37+ompD2wpglKae9P6bEoKVnaRsPjtJyO3TJpqm0d3LLfw8/oROU9rhz7aLMV/AOyQtfmBoJzGzHckQ4bjpK2VhbTZliV/74262PKTWntYpmW22lYz9blwl/SiwbTg/RXmGnAX7/WF5O+eoGSIElW+K55HDdPm+HVMRDaTw2Twzoc9wPtO77pWJ0axNMhkG+7fSS7kNiu41giFbTHKYw8td04aeqYOqhjYABYf50g2J2gLbQtR/iJCMjS1yFq1xbb0t1X4j6Cc96reO4yrpWNNe4Zn6j0CA7azh7GH3jSbYTSh9qJT4v5gCGA9VUMolw3bfYMiRD2y1v1D+c47sVG2xzffHKQXw/gfnm8UsPD8NQFrJe1aTZs8OY1jyVSO9oj0s5zgODFRmhMUY3Nx9TBrGe+Z15FK0eWo139jPG1xqY+bWkj6e2QygXhFQXs+wjODSeNwFJSLYGlzCjMZjDuudoP3krLtNlOV2GI0HAQNUZmIL9loNajCyzOgD25MRa+BDyvOinvHMe9tM29xzd4gb3tflflVpx0turm1rDAEqiNgGzribQsK9TJP/ltOue4eLkbeWrbhOmhntI+sg5qs1ekh655Zn3r+5yPLIc+MDY9YiDNGirnsdh9Sut7UZ+yyY/lNhK7eLJDGM7PSuq8MWD31H0EZ4yxyGYMFmPF8OGXB6bHC0SDeXWcBA6iZFEdF1HHnNflZVpspzMJf89MVm22QuSguPVFCAExHyDiDNjTGy+K47m5deMcx31j3/FNLxC33e9avRVHy28Ny9Y1H0SI1JyjNsOz3KTIu9xpoM1Wxezszfj4Gk6k3j9LXaWZGwCQeK6NVx1bB9P7mSPHqM1vmA+iDvc5H1eO2mxq7RFTVM+5uj2Er/wnJONFAl9u6rVIJ+jUyr11NngPiWyWWPpGCJTeEn0r1j+6JNa/PghgCRPrhsDa73UfT61/DM7UG6x/dEmsf/0QuyPoy+npM3+Blf1/AYte3iXA4Ey9xfpHl8T61xdpDxe1/0r0GOks8uW0n71mgMGZeoz1jy6J9Y8uSa1/dzIhjIiI6Hr8+Pj4qHwghLhQUYhY/+iyWP/oksrxmGlt6g3WP7ok1j+6JKa1iYiIeo7BmYiIqGcYnImIiHqGwZmIiKhnGJyJiIh6hsGZ6I4EllCevnZGsYuR+jx0uhMx3JHo/GS8wOr+nVvF4EzUVmBBiFHl0Y2xO6o8wSd/tX7E3g2K3VF6gs0eH5ifqL/rmoDoFjA4Ex1Nwk8SJPkrfb7jZXsADRcS30WbreAPbejChAcPpkj/T2M+MvKepI+gTPjY2oMxOBOdmjbDKnJghDae7rgHTUSHY3AmOgdthmcJhPZL5zHXwFLS5JV8cDaWp+SIy2N1gSUgTA/A5uHzapq9ko5v6uHHLkZKql5NS+fj10V5s/XE7gjm2kGU+JCQ8JMI06XOtHZfKce6dpwCq1oflfqyrR40jR/vrttUxuBMdCb6wACwxleHznNgCcwHUSVFbnhmp8A2XiRIfAnAgBOl66k8Js8zoX8+Z9vwIdUefmBB6DaGfilV70t4ZsNYumfChJ8uk6Uwtdkq/Xf8hTWAPMXJtHYfBbB0G3DyOhdhMN9M4ovdUfYM5KT4uwMbunpB11APals6Qd2+JwzORGeiPQw7f2e8UAKp9oipAXhvJzyDSR9JESnHmEggXL5nJ9sY7twDpF8NpuMF/MZMgIS/LepqM6x6+mB72kbDbJUfswAvdgjpl4+hhtmzBMIl3ivReUc9yHxL3b4hDM5EZxJ/rQ/5Vpq2LlJ/Ouzw5EXbIcJnCMhJ/UQ7nkjUMgFywuB71cb46RgIbb0+gTDLfHimkoo2vfpqWtWDS9ft68LgTHQm0WcIYIiH1tNVY7gjHTYcROU0onHGQtaKkKeit+nye+gaaLMVkiSBL/M5CtV702V5eKN4rTDrVA96ULevDIMz0TnELuYeYDg/2/cs43csQ0A+77r9RMMB2fL2snuTm1KNwZsHGAPoZ9w8Xc54kY0Dw8NbgKIurLtMmtimVd2mMgZnolOLXYx0G6Hh4LVL96IhMAZWPfWnDwzAmxcpyMASqGUa9QEMhPiMuhY+TXNCnagTWDA9nlxvTmBVZ0xHnwhhYKADm5T3UzXdHVjd7+FvWbdpg8GZ6GgezPKYXD7TufN/wDDGIpvBmq/LhA9fVpfSZq9wjM1tUvNBhEjND2a3cuXjhV1mxGqzVTE7ezPOuIYTccb1zRkv4MOsjCdLf5Oy1mYrpP+nTqkuzAeIzlS3aUMkSZIUb4RA6S3Rt2L9o0ti/aNLUusfe85EREQ9w+BMdHYBrIaHY1RffHoTEW0wrU29wfpHl8T6R5fEtDYREVHP/fj4+Kh8IIS4UFGIWP/oslj/6JLK8biS1v74+MBvv/12kULdAu6/43D/HYf77zjcf8fh/juOuv+Y1iYiIuoZBmciIqKeYXAmIiLqGQZnIiKinmFwJiIi6pn/B7ZcIdMuRUqtAAAAAElFTkSuQmCC;" vertex="1" parent="1">
          <mxGeometry x="-290" y="640" width="487" height="131" as="geometry" />
        </mxCell>
        <mxCell id="0TxXQybrsUDYrA-Kx0nE-7" value="" style="shape=image;verticalLabelPosition=bottom;labelBackgroundColor=default;verticalAlign=top;aspect=fixed;imageAspect=0;image=data:image/png,iVBORw0KGgoAAAANSUhEUgAAAeQAAACCCAYAAACXdLsKAAAUgUlEQVR4nO3dPW/rSnoH8P8sLrAfIUiRjvQCuipTDfsA4mlcuVu4I5sAZOMigEt3bsgihdkZW0VpXMRkH0D8BDoG1iSClFum3WpSkBLfJVIvh5T0/wHCPVcejYbScB7ymaEo1uu1+v3330GH+fnzJ/j5HY6f33H4+R2Hn99x+Pkdp/75CQBqvOYQERHdrvV6vf23AKCUYkwmukRCCHD/JbpM9f33DyO2hYiIiHIMyERERBPAgExERDQBDMhEREQTwIBMREQ0AQzIREREE8CATERENAEMyERERBPAgExERDQBDMhEREQTwIBMREQ0AQzIREREE8CATERENAEMyERERBPAgExERDQBDMhEREQTwIBMREQ0AQzIREREE8CATERENAEMyERERBPAgExERDQBDMhEREQT8NvYDSAiIrpVP3/+3P5bAFBKqfFaQ0QHE0KA+y/RZarvv0xZExERTQADMhER0QQwIBMREU0AAzIREdEEMCATERFNAAPyVYtgCwGxedjR2A0iGgn3BeoW2QLC8JGO3A4G5DaRDSFstO6yqQ9DCBj+2F/dDpGdDzwmgvwp6SVQb4tRm0UTdul9vsst7Av59yMqj47vcuJS36hth4AQBi6x6x2CAXmQFP6ji3jsZuyS+jDMIBt0lNo+Vo42dsvoIl1An+9yA/tCZAsI3cU8VJVtTLw1zAmc8R3GQljaltCK4eq3EZQZkAeIbB3uxEem9HOJWHp4v6JBh8ZzCX2+y7XvC6lvwAwkvEShfsKvOSuolYNr2PLFkweJGMvP64/IDMh9RTbMALDCEFb9b9uUUf0oLoVvZGmX+pRVZNfTMj1Sgi2pqXq9yVcMzO+gbVN19Tmzok2900H1umpH3pFdm5OL7Lze2rxdRx2Nz6K+UZecMr1ko/X50/Sb/ftC2/a0l0t9o2WOMW/nvnJ53dVdZNecZf4Zll/Q2AdSfC5jwHpG7+ONnvtxJW3cUWb72Zf/vqf+Y83vahvaYzwcVK7yEqPaP2t1nGsJAgNyLxHsPPXVOvWUfCGGhJS1o7j0E8tYQkpg/V08H9kC5tpDsk3LJPDkvibYzdRUaCEwqzvp9xpAYEK8zIr6Ew8yMPNyGpxV8fp9Ut+AMFFKISXw4ELfNZi8BPlAscBbuQ3IjuaVUtuj98gWeJmVUop5W7nmZmxj9vlT9Js++0J9ezap0h77I1L4RjEv/culn1jGgJzp/Yr33Y8DE/rXc14mhBW7eKx/VoEJE2Hl+xg+TvQXvbqIYeG+3A97jYcDyqFat+7GsMLN9EYEW3eB7dRHgtnL+eboFdWElgIsFSqllEqUJ6EgPZVkf1QWoKSXbIsnnlSQnvrvf/+HUjmlQgsKVqj+51+z/6qO12/eo/qcavy9qKPcVDTburdceTul6nzbvK2N6mqv22znzjoTT8md77Ut2LkN1HSy/XdyfX77Rgf2m0P2he79aLO9Sfn/IZXcU67Yhup+FFpoluvclrYizTqzNqF41L6/QftxRztbP7ue9ffR2Ib80dZ3TjkebrcztBQa29LWf0+jvv/yDHmP1H+EG0t4793zMclXDMR/wD/+y79BxktkJwwRPgLAul/gf/8PwPo7P1LUMZNAvPwccOSY4CvO6qpb3FsA1shORrJybarlymK4ekc6J/1GdpJRS+WZLecFgZn/DQjVqn8arZFCv9w5y2sxjT6/t5V7+s2wfSH9XgNyhl7nm5GN7ITpHX/+68EbAMQu9CMvxSpnITRnVVoIVSo0ZD/uw7pHZSQ6df21RV0q8QBXL6XAh42H+8vlYhd6a1ZogSdPInb1s6/4ZkDeZZu66BFgLA2a9gMPMob7X38Dog8EeZrln/65nP/KUsbhvLwz7glCeYfvNkc2vZINfO1VrEvlykrpQKWQeBKBWe10Vm0FZ/aofSZWnsIKAbN3p03hGzpcDEzf0/lMpc/v1KffDNkXsvlY+fBj9yKo+I/bldubz+fvfzp0GwBIr5FK7x2UtTvMAcRfSe+367UfH+Fs9WsO3j0JbA78+o6HvcfNnPQQ5oG3/jVsDnayFd/nu6yMAblTADNb0dI+h7aVzVVlczkafjxI4D//A352qlAcScZf2O46qY+XAKXLMfYEoXznCz6aXSD6CEpH9hru5iidmRSSr7jXGYD246FY0Zi/77p5Wt1t8QRPxnBfe3TXfB7Mer6O1aCXb0J9fufb9+k3Q/aF7EyqsWioTv4Fj7qLeO/ncwDNwfP+JR0l2Vkbgpf9B7+H7MdDnLv+jvfbOx72HjcLurNCaKFxUrKxeNusawjQUu3RGJB3kR6SvXteNTWm/XiAjF24gYT3lL1Wy0aGPD2SX9c56HKMzc5XW+y0WQVbGpgWTx5kfSFGS7ku6ecSMSQefmgoUjWP1c4Z2TtWUOYDdPCx/wiyZYdpvcyGq6x/ncn0+R169pu++0Jkmwikh6d9mx3HiHt9PgfYHLB0LdJq2Qc05z07+NXrq37zBW1bh+zHQ5y7/givbnlFed/xsP+4WdmatyT/XPOz4MiuZi7yBY0919MNdvKJ6ou3czFCbYK/z4KN8sKU1rp7LnDJFxwUj4425m0aXq5twcauxSKl7a2uLlGyvgiia3FOvQ1W2K8+UkqdelHXBPv8Mf2mrVylrnzRT6PPdyzq6l2uuSip3M6ucsVn0bIYadc+0BgX2heMDd6PVceiro7FZvvq76Pz82t7z77jYY9yzUV2WZ/fvG+2CKx4nGrNaX3/FfkTJ4zvRPSrCCHA/fcypL6RXVJ0TT/bSUep779MWRMREU0AAzIREZ3Rjl9eu/CbYZwaU9ZEF4wpa6LLxZQ1ERHRBAlkq8aIiIjoF1uvi2vUmLKmUTHlSmNi/6MxMWVNREQ0QQzIREREE8CATERENAEMyERERBPAgExERDQBDMgDRHb1JuKpb5zobiZERHTrLjsg57ckK/8E2zlv0afPyrcVzG5qjvkd7+VLg6W+sfOnBHmrSfq1UvjGnp+3tPnjlud2sQE5sgWE7mIeqvyG59lNzx+W+tkGs+z+owFMISCEDhdnujcq3QgLoSr3XwWlQgy6Tz3RSWhwVqV+GFoAJLyk9BzHurP7bewGHGRzg+lQodpHsk7lnO2Nz10/ERHdqgs8Q07hvwSA9PC054CtPS3YcleRltR3PTvTPl+c38WkVrj+vtkZ+447nuT1nrK9dGX6fuct5Rqpxshu7X9EffQdCyN793hHTRcYkBN8xeg/dys9JKWUYGgFMMsdIrKbqe/QQmDum8dL4RsmgvqzvgHdRSnVk+Bh+Qg/XeBtU3/iQZbTQSun2JaztZcu1pDvPPlCvE2FJ/Bk9c+pb0CYKKXKE3hwoXOQpIO1j4UAWsazX922y3KBATkjZ/rhL94G8/xs2wqrqe/FG0ILiN3Xznt0pv4j3FhCVga8bKGX9N7hbCOsBme1Kv3/OO2lS3XK7zzCqxvDCt9QVKXBebaAeIlPRmQ6QPtYSIe42IAcfyU9C7rQS+kSM7AQbke27Gzbum/mvhf3FoA1vtsGqcjOz4Lf8ee/lp5PP5EtvD4i+p6jvXTBhn3n6fcakDO0Hq6m31gDCMxaCtFsPbch2q9rLKSDXGBA1jGTANbf/VJsbSngzbxsPkB1m6MSW+M/ZnN0ZgArzM56//6ngzfk/O2lyzfoO88zNA8/dk7nWJUrEzaPI7M4dFt+xVh4gy4wIGv48SCB2MXrAfnZylmFdoc5gOCjWVH0ETTPNORf8Ki7iOvpw23TsvrWJzxNPaq9dPkGfefZ2XRnhuYM/ZNu1L6xkA5ygQF5cz1wlnprLiDdvbgp+ghQnFUs8JRVVK1nc1nVs1M904hjxHLXtcdZfbH7iKIJKXzDwKHrrY5qL12B/t95ZJsIdl590NY/s7q48pUG2TsW0iEu8zrk/HrgH74B3RSV1X3SS7Aq595iF7pwywWQqGIQ05wV1J0NUaknWwHdTOFZCFe7g57mrJDAgK4LbN5VeglWfSPlSdtL12D/d57CN3S4sYVQDe+fkB6SPf2aqGr/WEjDCQBKKTV2O+hGCSHA/kdjYf+jMdX730WmrImIiK4NAzIREdEEMCATERFNAAMyERHRBAgAXNFAREQ0gvW6+OkfrrKmUXGVK42J/Y/GxFXWREREE8SATERENAEMyERERBPAgExERDQBDMhEREQTwIBMdOUiW0DUb4t2LqkPY3P/biIahAGZaJfIhhDV22emvgEhROOx67af1y71jewWjvk9l7M7UDVvj0q/WEv/peliQCY6iIVQKajNI/EAVx/3vsIjDr6as0I4d6ELEwECmELH8iHhzesvFQP5KBiQiU5Bc7BKPMjYxSNHMSI6AAMy0aloDp4tIHZfB8+hRnYtBV7J9Wbp3/o8cGSL7Rl5ZAsIMwAQw9XbU+iVVHvbmXzqw6il4esp58189La9eT2pb8Bce0hUCAsWQpXgYakzZT1Bm++wqz/s7UuRXe2rjb6U99fGtE5pbcGeOrr62bVjQCY6IX0mAazxPWD0iGyBl1lSSX/LwBwUzBZvCiq0AEh4SVbPytGKAoEJ/es5f48QVv1MPrIhdBfzsJSGDy0EZsvceGDCRJiVWTnQkKWs1cqBln4j+2VeDc5KMWU9VTv6w66+lPoGhInSdE0CDy70bcBM4Rs63Hm47UehBWRTPG9Y9KqjaGO9n107BmSiE9Lu5oNfs3irBU/tBx4kEHyc8PTSCqG20XGBewuIl5/FIPoSAFZYDaCLN4StZ/wWwq5IqzlY5QMvTdjO/tAlwqsbwwrL368G59kC4iU+UwBI8BUD1n1RYnFvoThI7VPHtpHd/exKMSATnVD6vd5fqPmqWopPhxufvGk7NAfRjepgmrPuGXBvUZ79CMxaKtoMSoV0zGoHk9FHAGCOO61vHbkb7GcMyEQnlHzF2A4+veQpPnhIyik8ecZGNpqwSTN3GbI9dO2s8rTG9rFCOcmDwNwGWzMo0tWD6rhBDMhEp5L6eAkA6T31P7JPP7GMAet51xyZhgMy4f3l1w63pcijjwCQM+hnfHu6EHk/We9aIJF+YhkXc8/ZoxSM+9RxwxiQiU4h9WHoLmLp4X3IYX5LMIzsZspan0kgeNleFxrZAo0snz6DRIyvZGjjF3jyJFBfSBbZMIN9Bwt0lVr7UtZPYvexen1yZBeroLU7zEurs5urqHvUccMYkIkOEsAsDzibFcqDV4Mu8Javqt6m+BDmK1MLmvMOTxYD3cssQVLPa+eXXW3m54as0tac1XZVdTGvt4aXcKX0TeroS5qzQvYbOKV+8jJDsu332RxyNSVdXUW9v47bJQAopdTY7aAbJYQA+x+Nhf3vtFLfgO7OG3PGXc/funr/4xkyERGdUIDqcoTsUqdbXDU9FAMy0VlEsFtuQNH5y0VEVyBLR8vaZU0m1l5Suu6ZujBlTaNiypDGxP5HY2LKmoiIaIIEAB4eEhERjWC9Ln6WhylrGhVThjQm9j8aE1PWREREE8SATERENAEMyERERBPAgExERDQBDMhEREQTwIBMdOMiWxx/p53Uh8FfHiM6CgMyUR+RDSGMyi3jUt9o/UlMwz8stLXXV33PqUl9Iwvm+W0kgRS+MexOU3RGLf2WposBmegoFkJVutVcdl+5I844q/WFVgxXn+6AqjkrhHMXujARIIApdCwfEt6y8dIxkI+CAZnolDQHq8SDjF08nmA0Wzx5kIix/OTISHTtGJCJTi2/uXvsvp5sTnV+V7t1e+rDqKW3W9PEfctVXmJUU++1OsqvT30D5tpDokJYsBCqBA9LnSnrCYtsAWFH1SmSUkYnsgWEGQCI4eot0zCRXZ1WaWSDsmmLnXc321PHpo2R3fUe14kBmegM9JkEsMb3kaNI9OoihoX7cgo4siF0F/OwlCoPLQRmy8DZpxyqdetuDCtUWDkagAi27gJekteRYPZSDKyas4JaOdDSb2S/yKvBWSmmrKcuMKF/PeffaQirlNFZvGX9BJDwkqzfZH0hP1gzUZpWSeDBhb4NmCl8Q4c7D0vTLkA2FfOGRa86ijaayOtZOagdkl4lBmSiM9Du5ge+MoBZOnMwA0B6T6Ubu6fwXwLACqtBb/GGsHJW3rdcSWRDmAGscFdA1eCs3po3mtccrFTL8zRNVli6P/EC9xYQLz/3nIVGeHVjWGH5e9bgPFtAvEQ2q5LgKwas0hHk4t5CcXDap45tIxHe2JEdAzLRGaTf6/2FWu1bJNYc8DaqA1/fcrnYhW4GkF59QdYCT55E7Opc5HPr8ixIYNZS0WZQKqRjJoHgozjciz4CAHPcaX3ryFn3N3eAx4BMdAbJV4ztIHQMzcG7J4uzh21quEt14NtbbkN6CPPAW5//1ZxVacV3bS6Qbo5VngLZPlZwyv0pMEtZniJdPaiOG8SATHRqqY+XRqr5RPLrfctnIBvRRwDIGfQh5Up0Z4XQAgKz/Ux48ZadsUsEaKmWrl3ep9a7Fkakn1jGxdxz9igF4z513DAGZKJTSn0YuotYeng/yeF+NucG6zk/e8hSyAjM6plsZMMMAOt5s/ilb7mqxVsCT8Zw9fwsOLIhyhUkX4ghMatHc7ou+gwSMb6S8pOb6YvH6gFbZBdTKtod5qXV2c1V1D3quHGKaCwX0/9CSwFSeUnxVOJJBaDxsMLD3qKrPrRVGFq1ctW2DSkXWlCQniqeDpVVet/QOs32TdHF9L9DtfTb0Gr2qWYfqH7v5eKNflp5XaI8We8j2XPlcrvraG/jNar3P5E/8QviPlGTEALsfzQW9r/TSn0DujtvzBl3PX/r6v2PKWsiIjqh+hqDzbTL7a2aHooBmeisItgtN6Do/AUjogumOSsknqxd1mRi7SWl656pC1PWNCqmDGlM7H80JqasiYiIJkggW+VGREREv9h6XfyEz2/r9Rq///77iM25bD9//uTndwR+fsfh53ccfn7H4ed3nPrnx5Q1ERHRBDAgExERTQADMhER0QQwIBMREU0AAzIREdEEMCATERFNAAMyERHRBPw/U4nCsExALI0AAAAASUVORK5CYII=;" vertex="1" parent="1">
          <mxGeometry x="320" y="640" width="484" height="130" as="geometry" />
        </mxCell>
        <mxCell id="0TxXQybrsUDYrA-Kx0nE-8" value="" style="shape=image;verticalLabelPosition=bottom;labelBackgroundColor=default;verticalAlign=top;aspect=fixed;imageAspect=0;image=data:image/png,iVBORw0KGgoAAAANSUhEUgAAAf0AAAELCAYAAADTB1+MAAAgAElEQVR4nO3dP4+7XNof8C+PbmmfdxClSAezkuUqSYX7SGaaqdxEq+mgNM0UkaZ0EWkaSGe60aaJ00yRgVfg8wrskXageKQ0qVbp8mxFigM2YDBg43/w/UjW7u0f4OPh4lxwnYNR/v73v8dI/PM//zM+Pj7w9vaGf/3XfwW1w7/fefj3Ow//fufh3+88/Pvdr+y+UZbLZVy/ChERET06JY7jXNJXFAWFt4joQfD4JaIyad/wT7duCBEREV0Hkz4REdFAMOkTERENBJM+ERHRQDDpExERDQSTPhER0UAw6RMREQ0Ekz4REdFAMOkTERENBJM+ERHRQDDpExERDQSTPhER0UAw6RMREQ0Ekz4REdFAMOkTERENBJM+ERHRQDDpExERDQSTPhER0UAw6RMREQ0Ekz4REdFAMOkTERENBJM+ERHRQPyx3W5v3QYiIiK6sO12CyWO4zj7pqIoKLxFRA+Cxy8RlUn7Bpb3iYiIBoJJn4iIaCCY9ImIiAaCSZ+IiGggmPSJiIgGgkn/7gSwFAVK+rKCWzeIiK6Gx39XAkuBMnER3bohd6Y/ST+woCgWSg+RyMVEUTBx73j3B1ZyoBvwkrd0J0S8nN60WV2K3EnJPorgTnhwUkOPfpxX6fHxL497pfCa4BF3Ux/0J+lXiuC+2hC3bsYxkYuJ4cmDPI53r/VcvXXLLi/6xkoA+uwZA/i2dDEPcJxXGcTxb8LPfDffFLA1Jv5b6H3SDywN9p33BNH3CkJ38Nmrg7yZ6HsFARPvA/zu1J1HOM6rDPH4n7450CGw+mbWv7Z+J/3AguEBpu/DLP5bUgo8LDMl5WZFQXE4LbCKJaoGpcTd5+xfxe2GPwIYP0HdlfiK43n7NjUujRW3VSifB1ZhvDCwku0WxhQrtnHwtyh+qUal1gjfKwGYL8gWMSN3UlLuT/4Gmc8pXy5pf2a5w/0my8NN16c7d7PjvJtjpf74L/s+5cs1jenS5ZJt57uFY0Nvh8dk2yGW8VPhRKdBf9lqudwqk/y+LGxjKId8j5N+ACspmZUOi4U/ENCh64WzzegbK6FD14HN7/79wFJgbByEuxJVCEeva4IFRbMx9vdlrdg34RnZgyLC7waAZ0BZjPbbDx3onpEsp2K+3q9fJ3InUAxkymkhHNjQjh28Cw8w3zFXp1hm2wAdTpj893oONflbLEaZUmTS1rYHjbw60+G8dTVuGcGd7MdEc/Tsvlui/BOPrE936pbHeRfHSpPjv/h90lJ5gz7oTmM6+LAhYOIlu88a9ZctlkN+25otYPrpsEkAS7OB3ZBKiNGiYq5Iz/Q06SeBfqRkFv1uAH2G//qf/w3E6nt/Vv5hQ5jv+O//HhA/Yfouvry2485pIvXzndF0Cd8EhP2RDzDT33UUAAB1jvey5WoF+LAFTD+b2FTM301ArFBaTQs+WiXf6bIw3qg+Y6YD3lempeoc69JxSQ9GcmYtO9c1uqpqRu4r7KQjv8X6dG33cJwf1+hYATo8/vOuHtMNjntFUWB4gO68Zfqopv1ly34VkCcJhgfTj8tPDGXDMV9XXQz0Sy+Tfhrozue88uANfwQg/gn/9j/9F+i7ZCgPevNlin/5vwA2v0knoWGkI9dp1AvxI+S2iqYvJoAN5AWGXK5MfrksAVurKG1Fv5AXDoUSoFFyru8Zyb8BfqvkWxxuaDOeup/QE85W0KrKasKGprT4jMCCPHH/xF/+1rQtHa5PV3cfx3ltK2uOlXbHvzyJGUFr8tFdxXTxWDypDp6fyBeHDmBrmaGDdv1l/XKZtpdWgqZ4c3QIWxvcnQT9S/q7Mk6DJGaqUNVnzHQB+3/9HyD4gpeUnP7df8yeGsvyuj/OBn9NEkqSb7Ux5HCW7GjKN7HJLJeVKSPGMUJHh2fkA9fMlr52r8LfxPST0hhgNA78CO5Eg42WQx0l1Pkavgl4i5Jhh1w5/shniD/tZj+n+/wff27RiHPXp9u4l+P8qCbHSpvjX86Bqa1EdB3T2WMxGXY4e86LOseno++rj037y8b96r7tfpLci01W5+vMnQT7uT5917Ok78EwSko/B+Q4mj7SAKh4nunA//wfcOXp/77EI34Q7lZxsfCQua2mJtGpTxijpIwHIPjyMmfrKp7GyFxt7IU/otFZvfo828+ETT53c1geqDZ9g6ML2B8NQj65xc58r766amP6YgLCRpOPLqX/Fa+aDVG7zy+0Pt3AHR3nRz++ybHS5viXV7kHk9+KLhnTybBD55r2l4371T0tvbgwyi9spst0ToaHks32Ts+SPuRZaW2k50tq6vMMurBhe/txbVUeiUmpKLkHuNVtNbJ8hOIEt3SmcaYjmL450IWN18JkleJyVeRtbzpmzyr2ZavXfIAH1pFZuEmH6H3Vn+mWHHSlt0s1ncU7fYOjV1ztNyEERKN9fqH16Tbu5jg/ouGx0vT4Dyw5f6F26s0lYzo9KRpVXIo0nr0v5x7JycNA8/6yeb+aNV2G8sJGS67mAytfrUgmfFZ9rT7pWdI/Pr63k5SIdmfM6dmrPsNzurI2wu4EP53o1mTbGep8vZtVuh9b38AJCxNK1DnW6RjXseV27cqP6Wv2ODcmr87XkJvLfO5ihHBd3X5ZLfCwqD1Yp1imJb50Ug58NLipoOqT5QlH1STDWib8I9/r8uvT9d3XcV6t4bFSe/zLeQGG1zRWGy5XHKvX5I8becZ+3F4b6fnlkhnv7X84KD+RT1EMeKaf+8XBpv1l4341R8V87cOEB8MK5MQ/GJn1vWZDRT2gxHEc595QFBTeIqIHweOXzhW5E2g/7734CWDaS/uGnl3pExERURUmfSIiooFgeZ+oR3j8ElEZlveJiIgG5o/tdnvwpqIoN2gKEXWBxy8Rldlutyzv031h/NEtMf6or1jeJyIiGhgmfSIiooFg0iciIhoIJn0iIqKBYNInIiIaCCb9MwSWkntSU+ROjjzJjoiI6Lb6lfSTxzoqmVf9Ix5Pp42yj6ON8L0SwPiJT2yj1iJ3kovb4uuScUx0HvkUwGPxm3uMLd1Ub5J+YMnHPo79GHGcvkLMVtrFOkx1/glHTx8ZqcEGn8tO5zDhx9n4jRHHPk5+ajHRVaiYrzMx65sAdDhh5j32i3fjj1s3oBOBBcMDTL/4PGUZjPOLffClt09ERNSdHlzpR3AXHqA7eKs5mSwvoVo4KDyVDBMUq1Pl4/cBrJJSVvFzZeUhWbbslWy3y/ZSzzTd5yXLHZRaA6s0/oi61rTfDKzjfSOdrgdJP8SPQPOxdN1BmCmf+qYHIxtIgXU4TOCb8Iy6cdUI7sSAV3zXnUCzkSl1hZitXuFGUyzT7YcO9Gw5bD3ff5eLtZceVpt9Hv5A7IYNQjh6/p8jdwLFQGZYIYQDGxo7V7qK8n4TQEnfd+229VMPkr6kj7TTV96dMCRVA9PPDxNMl/BNQNgfh1fZich9hS106LlOVU7u051PzHdZXMV8vc78923aS4+qy30e4MMWMP0l9ptSMX83AbHCN7M+XVh5v0mX1JukL37Chgva0DLlIsMz4e96T1k1MF8OxwmmLyaADX7LOsLASq7mP/GXv2Xej74hJ/SfkeEv0V56YO32efS7AfQRSk+Jo19sAHhGoYRqlF53EXWrqt+ki+pB0tcw0gFsfpuVI8vK5ek4edIJVhsjl7/Fn+SYqeHB9OXV+z/+fPIXuXx76fG12udJpWn2fHToy8zd8ZK+zqxGEVW5Rr9JlXqQ9FU8z3RA2Pg4oZaduzpSnzAG4H0dbij48g6vmPS/4lWzIYql1l3T5PY2HV5un9Veenyt9rmsClRWmi4Qn0S16vpNuqgeJP30fnlZpjycmHx8Qlvw5WF/dTTFm9xQfjvpLYHv8/wVkxAQ+rF78+X2hP2KfRMiuJMJTp1jd1Z7qQea7/PAMuAdvaulLD7ltjhLmi6mtt+kS+rHffrJ/fLP7gSaoeRmgupOiHW2TilsaIqdXQBhvO8o1fka8ZMFJbcdObP+sNxpwl8fT6zqfI0QE2iagvRTdSfEumk27rS91Af1+zyCO9FgCxN+3D4+oTsIa+Ka6HT1/SZdjhLHcZx7Q1FQeIvoahh/dEuMP+qrNLZ7Ud4nIiKiekz6REREA8GkT0RENBBM+kRERAPxx3a7PXhTUZQbNIVIYvzRLTH+qK+22y1n79N9YfzRLTH+qK84e5+IiGhgmPSJiIgGgkmfiIhoIJj0iYiIBoJJn4iIaCCY9ImI6GICS4FSfPxp958CSzl8yup5IriT409pfUQPn/QjdwJFsVDydHFYSv92GD2AwIKiKP2Kyz5+p54KLOXIo5FlIus0CUcuJoqSxId8XTsWIneRe4x0YOXbk76KX1vmj8wyuQVUzN9NCPujJOYf18MnfaJ7E/1ukv/nwbj4Fc519PE79dX0xQSEjY+y3RR9YyUA86WbZ9kHlgJFszH2Y8Rx+goxW2lXTPwRvlcC+uw5/7he3UEYZ9sVY5n52pE7gWYDTpj+uw/TM/KJf/oCEx6+ehTyTPpEF2HCcXTAW6A/F8B9/E49NH2BCcAryVTR9woCJjrJ+YEFwwNMP59MARXzdYz1XK1as1vRN1ZCx+y5zecF+LAFdOcT+2ZO8ebogPeVubKf4sUs/1s+qsEl/YOyT+Gq5aDco0xyHdzhv5eXPBt9zkEJ7rD0Vr6cLKcelOh2JdjkVVnio2t4mn/C0QXs1/r9UBcv6bhoLv7S/Zvd72X7vMO4aPOd6FZkosonLyC9Iob5gmyObhp7u+UmLiJEcBcekCmp1ymN3bPbkZ7IjPHUJudHv9gAGBdWUp/GQOHKXhsVTwQe26CSfmApWIzCfbkndKB7xn6cJ3LxupplSkJheQdXKBv5pgcjE8S1n3OWCO7EgFd8151AMQA/23bY0Jj4b0iOCVaWWhON48UzoP2870uRwoamKFC+XnLvvWbOUruPi2bfiW5rKrN+vixdUtpvE3sGfLnMeg4VIX4EgPETGuXaktjNxunp7QDCHwHoI2jFz0yPj7J5BuEPBHSMiitpI+iFt+SJwAa/PelIe5L0PRgHV9+HiXG6LJSc1GfM9EzpRp1jnQRSTpPAzixT+zlniNxX2EKHnotMWaoy/WXmDD7tnFf47kmwPqTpEr4JeEbZBLh0kYbxojsId3XU5Gqu5D2x+k4S+oXiosF3ohubvsEpxFD0vYIoXJk376tM+MvDS3r9IGtWMH3ElXF6Tjsi/MpL9lwfPV3mx/JDR4ewT5xnoI2gQ+AnbL/qPepJ0jczVzKZSRkHyyXl892JgQZbFBfJzkTVYI+zwZoonEEa3mEg1n5OyXYql0sFVjLx5BN/+Vv242SpyjMKJz5G8bSHbmH65kCHh0Vlh9MwXtq6YFzUfye6LRXPs2xZumKyW9PYKwwJpERnmfC8dtRR52v4hRONoepJ0m8igjvRYMMplO8Li6lzrLP/vjEOx+zLyvu7ZRp+Tsl2KpcTf5InI4YH019jrgL/+PPhYqZfPPGJEcdrXGs+DVVQ5/h0dAj7tWQCXIt4OdFF4uLod6J7oD7PoKcl/tLJbufEnoaRDmDz20ES7eAYaNoO8YMQqL56ryr798hwkn46nvVeUr6vlJRCa8Zz5PhZssxJn1ND/yteNRvC9FFSYQPUJ4wBbPoy6NRD6vwdJgTsj6/8P1wiXnYfetm4qPxOdB8yJfLgw4bQZ8jn/HNiL6kkdDG348x2PI0bfYgcBkjH/iuODXlramFSYM9OBIaT9JOdnB0jCqxCCSmwCjNGkxmqNTNDg6/MMk0+py0hIHJjt0XyVpODq67A4gz+uzHF0jcBz8vPNblEvGQ+87JxUfGd6E6kJX4DhofD0v6ZsafOP+W8AePwR28Cq8UP9JzZDm2k76/gAVkVLcS3nAuVPbFI5hVkj43IxastoDtvuSGE0hOBBzacpI8plsmM0N1YPHz42YH/6RLhaJEfV4KDMF7mx5GKY/qb7DINPqc1E37ZBMMMdb5G6AC2lhkXW4wQ1qxHV5RMgAOytwpdIl72Lh4Xpd+J7oWsxgCAifeD8ZxzY0/ejx86+sG8kcUobHGf/nntOJhdrz5jhnwfrdlj+IUf55kuY/im2B8bcsLUQbsr7w54UEocx3HuDUVB4S2iq2H80S0x/h5RAEsxsClJ2Pe97etKY5tJn+4K449uifH3mCJ3Am01676yGVjJ71wsT7pr4J6ksT2g8j4R5SW/7Hj0xXvx6f6p83eYnf9glJzTVRzjf3S80qe7wvijW2L8UV/xSp+IiGhg/thutwdvKopyg6YQSYw/uiXGH/XVdrtleZ/uC+OPbonxR33F8j4REdHAMOkTERENBJM+ERHRQDDpExERDQSTPhER0UAw6RMREQ0Ekz4REdFAMOkTERENBJM+ERHRQDDpExERDQSTPhER0UAw6RMREQ0Ekz4REdFAMOkTERENBJM+ERHRQDDpExERDQSTPhER0UAw6RMREQ0Ekz4REdFAMOkTERENBJM+ERHRQDDpExERDQSTPhER0UAw6RMREQ0Ekz4REdFAMOkTERENBJM+ERHRQDDpExERDQSTPhER0UAw6RMREQ0Ekz4REdFA9CbpB5YCxQp2/x25EygTF9EN20R0HyK4E4XHAz2gU2M3gKUoyKSERp8zcft/hNw06UfuBIqi5F/N91KONtIB7wty7QjfKwGMn6B22WCiKyo9PpQJBtAvEZ0lchfwdAdv08I/BFZFnlExfzch7A+cloEex+2v9HUHYRwjjmPEsQ/TM066IlHnn3B0D4aiQFE02HAQLot7nOjRmPB3x0eM0AFsrc0VDAComK9jxOv5/iQ4sHgCQQ+gJHZryYs+ffacWSepGBhe9WrTF5jw8NXzrH/7pJ8zxZujA2KF79adURIcaQfZKkiIHoM6f4cJwOt7z0R0qugbK6Fj9pxJ+e4rbKHDCUM4etWKU7yY/T+27izpA+rT+PDNtCSTvgqVgPLxezmmI8s4yf8veyXr1W/j2GclZ5GZ5QKr+FlWadmoOBeheAXW9POatr+qXU3Xp/ugj7Tcfx/s18I+C6x9rAdWesUjYGty+SGMZQ5Z2s/khoxyx/thn7JbL7Pc0e1k++myam1NP55uexfL2Xgt6/Mz28rGb/S9gsAYT5mrPnW+RhyvMa+5EswPE/fT3SX96HeT/293AsVApsQZwoEN7egQQAR3YmBfyJlima4fOtChwwnrKgLFbZwgN3SxRP1gQwR34QHme21w1jvS/kbt6uD7U+cCy4CH/FVMYClYjMJ9lSt0oHtG5RDAdBkj9k0gcxyszw84uneeAe3nfT+UKmy8nnKyV7IdTVGgfL1UbrtxP+4ZMOAf7ZsjdwLNxr4Pj0PMVq+7C6XwRwD6CFrJunXkRecGvz0+B76vpB+5eLVFJukF+LAFTD+bmOSEi2NDAGkpR68s4zRpyvnbaC34kCWog9kn7Z3b/pt8fyqRzlORL9kh5q9YpstC0lafMdP7X6aklkwf8W6ekyxli9V3+zs69Ox8Kbmdsvf2227Tj5vwj87FSsbrnc/MMaBivk6PiQi/G5w+iVsbQYfAT3jKyo/h9kk/PUtUFCjy9G0fmNEvNgA8o1C6PDYZI7CSs8BP/OVvJ7apbhvZNqcTB8WJnwUAnpF8L8AvK0G1/bxz/wZd/A2pI/uJfKGjA6VX8Elptqt4JOpSm37cfDleEY2+IW/MYmXqVLdP+rlSc3mZ0fQzE/R2r0JyFH8CIhcTw4Ppy3/7x59btqXpNgptjuNjk0MaMJNylg8YZTOqm37euX+DLv6GdDHqfA3fBLxFcSw2uVulq3gkuoBG/XhXNr/8TYoKt0/6x6hPGAPYNBlg0f+KV82GMH2cfKdeF9s4x/QNji5gf5xYlj23/bf+/lRr+mICwsYuRJIrH/Odd6vQOVSUzaHuZtMt+vGzt3Xm9wh/IKBjdMqEgAdx30k/uYVP2K/5q9/AOpwdKgSEfua9+V1s4ywqnmdnzB49t/03//5Ua/oGR89c7SedYHb8PrAalPcHMHZJ7ciZ64tdXxtYCo6NpDbXoh8/aVsR3Mm+QqqNdED84JTQlhPJ8zP/++bOk74saaY/SLIbC1qMEB7M7DThn31vfhfbOI/6PIMOD4uTbqE6t/23//5UJzkx3E2AmmKZzNbPTvbzzbrNzPFu7sdZeVcmyR8429/GuRiFch5JJ9tu2o+fsi0Nq9l+Yl/ZDPz9LX7JCfHueMnfSn3OzP9HocRxHOfeUBQU3iK6GsYf3RLjrw8CWIqBjRO2vBX11PUeQxrbTPp0Vxh/dEuMv36I3Am01axdJSGwkjuomvymyuNh0qe7xPijW2L89YW8aocfN5yULO+CWc36eZUPMOnTnWL80S0x/qiv0ti++4l8RERE1I0/ttvtwZuKotygKUQS449uifFHfbXdblnep/vC+KNbYvxRX7G8T0RENDBM+kRERAPBpE9ERDQQTPpEREQDwaRPREQ0EEz6RC0FlnLC08EeS2ApUGqewpP/O0RwJ83/Lk22T/1wnX0dwOr8wVEypicnPfzsfl0t6e+fcjRB9d9Q7jhF6d8fmh7DPk4zrwdKTo/efjrf8ZPS5OSsy5iIXEwKMXft/jtyF/B0B2/JT+4GlnJ4HJScFBwcL7kFVMzfTQj747RHnd+pG1zpC6y+K8LRXaCTxzcTnUN3EMYx4jhGHPswPeOxruxv0n4V83WMmI9mvrnpiwkIGx9lmSr6xkoA5ks3j5QJLAWKZmPsp/EWI45DzFbaFRN/hO+VgD57zsde7jiQr+zv8EfuBJoNOGHhWMkm/ukLTHj46lHWv3LSN+E4esWZU7LjHAd1jwInup4p3pzs8+sfzaO3n1qbvsAE4JVkquh7BQETneT8wILhAebBQ23kCeDVHlwTfWMldMye2z1G98MW0J1P7JuZHCveVyY/TfFilv8tH9XVr/SfnmfQy86cgg/YQsfs+al8xcDKl2FKrlyKpRp5prkfMjh4ZbdRUqKqq4BF7qSkHcnnZVY+LLmWDXGUt7PYhoOyVWGB8jYdlvSatr30Mwc2/KI+jWuXqdsvQFV85jZSG+Pnt7+8vFtZEs61yTpa5jzYRuGYKjuecn+TR6qm3DWZqPLJC0gvrGC+5B4dWxe76Zj8brmJiwgR3IUHZErqder29WntSE9kxnhqk/OjX2wAjAsryWMln5+0UfFE4LFdv7yvPmOmH545BV8eYL6j7OQwcifJc4735SMHNrRM4ByWakLMVq9woymW6XqhAx36fpm0FBlYhyUq34RntE1uEdyJkR+iiFy8rmaZMlMIRxewXwtBnwSh6WfbmhdYChajcN/G0IHuGR1NXilpe/KZxsYptL+Lz3sc0e/m6L832S/V8bn/97oYv1T7K3kGlK+XzH73YDRuTwBLfuHd+qNF4aTBM6D9vO9Lq8LG64BOJi9pKrN+/uKqpLTfuE/xDBjwM/1miB8BYPzUbDinZl+f3g4g/BGAPoJW/ExhQ6s6yQ5/IKBjVFxJGx30u/JEYIPfnoTmDcb05eQIeIv91W7kYuFVjTPJMozpLzNnp8k2diXLdGggW6pRMV+vS08i8pIzVtPPl6imS/gmWk3iiNxX2EKHno0adY512Thn8WCpCsJckwols4oTqFOUth0BvjwcjpUNSeTi1RaVJ6RAk/1SF59NYvxy7a+kOwh3B8W57VExXy9zV5gwfcS77curU7H65tV+F6ZvcAp9Q/S9gihcmTfvU0z4JQ+m1491WLnVj+/r09sR4Vdesuf6qOkyP5YfOjqEfeI8A20EHQI/YftV79FtbtmbvsDMTOgrC8ad5ArYMwqlHyNzTZqcwRZLNc3IM9ayEw55ttzwDC+wkiu5T/zlb8XvkC1zarDH2QMgWURGbk2JKinNZrclShYrnOFWLlfbdg0jfYAdcfbvl16tlnR4ezX7pS4+m8T4RdtfoXhi2qrzk+OjwtZq7tihy1DxPMuWpSsmuzXtUwpDAinRWSY8rx111PlaXsQNrS8rcaP79JMzPfsDQTqhouZq0vTzZ27y1eRKvkbS4VarScTiTzKpGx5MX7bnH38uLKPOsc6WbTfGwfho+HM41lZoKNyJBhsNSu0Hs1Yrlqttu5yQ44+zJxE1JxB9UPj7HZ+Q1GK/1Ogsxlu1/3LU+RpxHMM3BWytfk4AdUvNzp8qnex2TuzKCwJsfjtIoh0cQ03bIX4QAtUnsA0qro/uZj/OM31zZEBaX/Bg4r2qY1KfMAawOXa53WSZmnXLSuTBl1c+VpSl/xWvmg1RHB6o/kBZJs1VEJIy+rFIS8fj3ju8JapJ25OhFz0zNju0Mf2jmuyXuvg8J35bU9FgXqJU7EhP7BCny3SOSr9ufbp7mRJ58GFD6DPkc/45fUpSSai6NbCNM9vRLJ6TYYC0P6845korrj07EbjdL/KlAel5NVe4aZnwNV8iDKzMDNCyZSK4kyZlxfQ2jcKkkfR2lLpAFAIiN/ZZEFiFWajJHIJMYMnfJzhy4gOUnpwE1plX3XVtRwT31YbQHXze6Grx7jXaL3Xx2STGuyNnI+/n1ASWgtKRBGFD28VuAMuonmx7oBj3Pes4H0Na4jdglM3NObNPUeefct6AUX6XUePx8zPboY30/RU8IKuXheNGzlnK9udptfk1N7fs1RbQnbdcPmo29Po4bvgzvElAov6HItT5GqGDpESYvBYjhJkJcofLaFjNPht1UOp8vZutvx9P3cAJi/efljHhH/tBkukS4WiRH6uCgzBeYpqMY2m2AODByI7najYEknHeiYsIUyyTGa3pMgZ8+Gf9qEFN25PbKJ1P/uBKtWb7pS4+m8R4V2RnLXaftRiFCEvKN7oTZmLXgHf0BLFguoQPA9n5CekQEl2POn9Pfvek7KLi3D5FDv+Fjn4wH2UxClsMK53XjoPZ9eozZsjPa9LsMfzCj/NMl9mhp/38l2K7K+8OeFBKHL6MLREAABNvSURBVMdx7g1FQeEtuhg5lrWaVR8gkTuBtppdpPO/R4w/uiXG3yMKYCkGNiUJ+763fV1pbPOBO0RE9MCS4bFLzMwPauacPSAmfaK7d+RXJRv+Wh5Rn6nzd5hdTCrMkfOvimP8j47lfborjD+6JcYf9RXL+0RERAPzx3a7PXhTUZQbNIVIYvzRLTH+qK+22y3L+3RfGH90S4w/6iuW94mIiAaGSZ+IiGggmPSJiIgGgkmfiIhoIJj0iYiIBoJJn+jRRS4m6S/zXeCpfHUCSyk8SbJimV3b5IOmmra1yfapr9rFyp78FcvmYSM/p/GTAR8Yk36NyJ2U/+wpO6GHUrUfH/8gTx5/bPqI4xhxiwczlf5NGNfUA5G7gKc7eCv5/dxd3OdOJFTM300I+6P3P2fNpN+ICT+OZaeavpo+YpTuSGE/ymfZnnZ1HFhQlAluf84QQj7588QHf+oOwt3fxIfpGVeoFshHsrY5QaGhOiVWInyvBPTZ8+E6kYtXGzDNw0dJY/oCEx6+ep71mfRpuNQ51qEDXdh4vX32vgPyaWUQK3zzz0GPKvrGSuiYPRdTvqyKwfnEf/sPomTFKV5MwOt51mfS70J2TDV5lVdJy5+WxorqDalzvJs4KOsFVnXZO7AUKIYHQMDWSoYJAiu/7qlXznVxFVhQFAMeAGFrnQxXqE/jbAPkeGohQPPj88X2NHvq38E2Ct+17JjIDUfcYO7CI0vnRVT/DZvt66Pbye7/2vg4XCbd9u7YS/69LN6KQ1PZuI++VxAY46mQ8yP3FbaQj8n93/+v5EofgDbSAe+r1yV+Jv1zBRYUzcbYz5SNfROeUdIBR7/YADD9fXm5PPTomrSRDmCD32R3BZaCxSjMDQPonrFLRNOl3MeADieUy6yT521H7gSKgcwwQggHNrS2SapJXE2XsiQPQHfCXDtOFf1uTlvRM6B8vey/s+7BaPydA1iaDTjhbv3RonDS4BnQft73wxCszrTX1d+wZDuaomT2/+G2Gx8XngEDx+enRO4EMlz225qtXndDbaEc74KWXwmvtoDpL48+Jlee9O77gj5i0j+LfN4yTB+5If7pEn7J1SPCHwjoOHX4lS4jf3Urk3ouearPmOlNyn4BPg46FjlBqF3JvGVcdSXpGGG+o/W5g+4g3DX2lO+cpWK+LnTOpp+ZRyPLsGL1zav9Nrr6G+b2tdxO2Xv7bbc5Lkz4R+dLJeP1zmcmRlXM1+vkvyP8bgCMn3InDMGHnOxaOxVLG0GHwE9Ys9wDY9I/i5xEZb4cRtL0xUTxjFFeRR2Wnei2Dq9uk1LnrnyowS4bAjzcEDYAPKMwNGB4LVvULq7Okl6lKQqU9Gr7lEmqhU62Xecp5xLIIYp7mBxJnWpzXJgvR6/E5Xg9MG7TiQYWDK/uZGI4mPTPkQRztXyCD2VPfjyo6erCH4H9vorgTjTYyM5qD+G0GIcxsyX53Wvd/Oq5ZVydJTd7//zhgVOp8zXiOIZvpvMkjs8JoMdz9nHRxuZ3Pw/hywPgwciccGi22J3wPv5tu+0w6Z9DfcIY5WXf4MsrjCsFkG+xtn9XIhcLD9CdN3kyllxJmO8n3E6WxMPm3MvwVnF1SSoKIx/VMp0sgJOHsqbLdK5L/2+dui8t9nXrTXd0XDTa1uH3mC4PTzZCR9+d8OZOdAcwBMukf5bkFqfMJC8ASTkpnzgidwEPcuYo3YnIxUSzIXQHn+l+KUm4gVVS3i8tX6dl6td8iTqwWs42bx5XlyZnMy923yewFJSOVggb2q6xASzZ0GZXcYGVnzU+gI73HjXe1611dVxUbSuCO9kPC2kjHRA/OGVYfghDsEz6Z1Ln692s6v1Y1QZOGCeTRuT4sGYLFEtMimZDIBnr4i1IV3D49x/7xVnCUyyT2frpcgZ8+GZhU8mtful+T3OWOl9D/uZP5nMWI4Qtf4imPq6uQ51/wtH3tyYuRqG8SirQnRDhaJG01YCXm9hVY7qEDyM31mv6Fyr7UqWm+/q0bXdzXJRvS8Nqtp/Yd84M/NKZ/z2jxHEc595QFBTeorPIMeLVLKwcL43cCbTV7KQDoG8Yf3RLjL8+CGApBjZOdZ/b7XqPIY1tXukTEVGPJEMAbW9HDL4GMQTLpE90NeW/yJh/nTtr/RqfQXTf1Pk7TGHjo81T9hbefkJvj7G8T3eF8Ue3xPijvmJ5n4iIaGD+2G63B28qinKDphBJjD+6JcYf9dV2u2V5n+4L449uifFHfcXyPhER0cAw6RMREQ0Ekz4REdFAMOkTERENBJM+ERHRQDDpE1EJ+aAoPgiKqF8ulPSTDiPz9DEiIiK6rcsk/eADtjBhmvnnkhPRhQQWFGWSf175WeuqmK+Ljx0mOuKcGLzltgfmIkk/+PIA8wXLFxPwvvhwDyIionsQF5S81ZIfm0Bs+vv/rzthbonQ0WPoTlx4N3Z0xJArtlouWTjWgRiZ134R2Q6UvTLb983CvxU+o7Q9yedmFy1vd9KGwjYPPrPk73WwfHYbvhkDepyuct7f9rCNh+0zY7/ld2zj/Pi7jrpYSfdT6OilsdZ0mTiOa2K7PoaOtfXYur5Z0p6atrT6XnfoUeLv3tT2Y75Z2e+mMVW2vOm37yOpXBrb3V/pJ88kfpkCwBQvJto/17j1Z1pQNBtjP0YcJy/fhGcomLgRgCmW6fuhAx06nDD576R8GVgKFqNwv37oQPeMjuYkRHAnBryDZiswNg7C9DPjEI7ecrsLDzDfcf4joMvbCADQs21cVjx68sj6PdM4VjwD2s97spwPU9h4LdYn65apjW1gupTvIRPX6yQg6tp6bN2SL17bllbfnXrjWBxF7gSKAfjZfg42tHSSqDrHp6ND2K9J+T6AZXiA6WM5bRmjVKvjpJ8moZddYpjKrI/vix3v6WfKANmZLuGbgLA/Gg0vTJeFQFKfMdO7mZMQua+whQ49l9ADfHmAPns+fcw0+IAtdDhv5z8BuryN11v/kTSOFdNHvAvKihPgo8ucH9vdxXXLtjT57jQAAT5sAdPPXiyomL/n84I6f4cJAfvVhWsZ8GDCX/b9yfa30W3Sj76xEoD5ktlZ0xeYEFgVs76woSlyhr98abBFyTZrlwvxU/zM3UebADb4bdTT7O84ONqetgILmg044Sf+8rfsP2gY6Sd2hJ4h22gAfrw+vMpv+retbWND567/cC4UKwe6iO2u2trVcUaDEv1iA8AzsjGoQDGKNcEplvLsEbaHwkkCdanTpB99ryBQ3MGy5HtwJZArGR8pbdctlwRVtTGeai+lI7gTDTbOKbUXiD8BkYuJ4cH0ZWL+x5+zC8jZ0f44m6Abdsimn5RWAaNsRmvTv21tG8/9jn10gVip/KhzY7vDtnZynNFQmdkhod2r5IIlseEZ5MV0mPQjfK/EPiHF+XE/wMNF7t5TnzBGebky+PIAfQSttulJheK9w9uT9L/iVbMhiuXQ3Oe6WHiA7oSndcjTNzi6gP1x4h+2SRsvuf4jukSsVDk3trtsaxfHGQ1PEjf1SVyO4+tOmAwXvfL2vAvpLukHH7Aryn+yxH+pe/aneHN0oDiRKrBgeA07vJIOLbDOLNkKAaE7CKszPtxXG0J38HnypBQVz3KA9rTbImvbeOH1H9ElYqVSi9jWRtAh8BOe0Naydc9pCw1TaRzJuDlI4oGV+7XHwDLgJX3hdOnvxvejo9umU3SW9IMvD9jN2i+SE3kudc++Ol/vZhHvx4w2cMK44RXoFMtkVnO6vgEfvlmyaHG8XLP3Qxq53tCEf+yHTdJJeJ/ndZbq8ww6PCxOOi2uaePF139ELWKlA41jW53j3dwPrclQbNjW0nXPaAsNU0UcqfM1QgewtUzcLEYI074jsGB42b5wP76/u+OjYYxSPSW5f2//hqKg8BY1ELkTeYsSe7+zMP7olhh/1FdpbPOBO0RERAPBpE9ERDQQLO/TXWH80S0x/qivWN4nIiIamD+22+3Bm4qi3KApRBLjj26J8Ud9td1uWd6n+8L4o1ti/FFfsbxPREQ0MEz6REREA8GkT0RENBBM+kRERAPBpE9ERDQQTPpEVCmwlMzT0CK4EyX3dDQieixM+kSnCiwoyiT3yNDIneyfJJZ5TfhwcHo0JfFNj49Jn6hzJvw4Rpy+5HNFT7tCvquOV8V8HSPOPk75rtpHd4ExcdeY9IkuTZ1jHTrQs88HJyK6ASZ9omtQ53g3AWF/IGi4SmApUAwPgICt7YcJAkuBolgH28mOvweWXDY/3HC4jrwqywxF1FQjip9R1r7dclaQtJXzAPoi3a+5uMrs22MxkSxQE2/JvJGDIbJM7NZsg7F3HJM+0ZVoIx3ABr8Ne6DpMkbsmwB0OKEcKljPVUzfHOjw8JXN4JGLhQeY7/vSu7A1aD/vyTBDCEf3YGQ6wMidQDGQGYoI4cCG1rCTrGrfjmfAgC+3nR0SoMfmGZm48mFmKljHYqI+3iK4Ew322N8NjfkmIIfLlpg22sa+jYy9ckz6RFeiPo072tAzZjrgZbJ+9L2CgImXaWY53UG4TN9QMX83AbHCdwQAAT5sAdOXnWn5Mucy4S+n9YvRYzF9xLv9OsWLCYjVd82JYpN4C/EjADMTxNMXE/sT5TYxy9irwqRPdCXR76ajLal4llk/KXlG+F4JwHxBrpsbP+WvcLQRdAj8hACiX2wAeEahjGp4HbURh+2h4WoUbxpGhZPZ4MsDMMaT2nQbCcZeJSZ9oisJfwR2HdiZ1Pk7THhYuBEQfWNVuEJqyvQzdxnsXmvMWQ+lC2gUb56xS+iGty/tt9oGVWLSJ7qGZMxdd946ugLZl1WD7xWE7uCtuOHNb77kGv5AQMdIA6A+YQxg03SCAdE5msRb9I2V2M8FkK9MwmfMdoJJn+jSIhcTzYbQHXy2vRzJluQLpi8mIGwYtoA+ez6crCRsaFZaKg1gGR5gvidXRFO8OTqE/Zq/nzqw2s12PtI+GqjSmGgQb+oTxplZ/4ez8zuK2YFj0ifqnAcj22lpNsb+ibOIk1v90nFMKztjf/oGRwcAHbPnki2bPsLRImmHAS83sQ9Q52vI3w3KtHUxQtimncfaR8NUERP18SbH9PPl+/zs/E5iduCUOI7j3BuKgsJbRFfD+GsjucUJzkGnF1iKvGWJM5hbYfzdTuROoNnjgzH8qvepnTS2eaVP9KjSCXzvvMqhvij8/kRymx5n43eHSZ/o6gJYJQ/lqfwFsqqtfNiH9+YTPShZutcLt+QZ2DghK1YdYnmf7grjj26J8Ud9xfI+ERHRwPyx3W4P3lQU5QZNIZIYf3RLjD/qq+12y/I+3RfGH90S44/6iuV9IiKigWHSJyIiGggmfSIiooFg0iciIhoIJn0iIqKBYNInopzAUs5/alnkYtLgVwWJ9iK4k/ax10m8DgiTPtEpAguKMsk94jNyJ6U/qTtxT+uOyreX/8x7E7kT2QEnzz5PO3I+fY/oPjDpE3XKhB9nHg0qnwN6xpVIfnu+KWBr95v41fka/tiGphjw4MFQNKxmIfjT6VRPxXx94iOoqTEmfaJLUudYhw50YeO1g0w9fXOgQ2D1fadZn4juGpM+0aWpc7ybgLA/OhvjHj8VroUiF5PCUEBpSb3pcrlVJvlhisI2sutH7gTGxkEY+zBhwo9DzFYay/t9cyQGACTDX5k4K1S6AkuBYgXyfzP/XjY+v1smfTGYzsKkT3QF2kgHsMHvmRfopY/TDSwomo2xnxlW8E14RmE+QdPlkN+2ZguYfoz1XAUQwNJswAmTbYQYLfYT9tT5WpZno19s5DuYr2OW93vleAxE7gSKgcywVAgHNrTiEJdnwIAvl6ko6QeWgsUozA2X6Z7Bk8gzMOkTXYH6ND5xTQ9G5irH8ADdecM+h0ZwFx5g+vnEOl3Cz1UXmi6XEVhQDA+mfyxpq5ivlzj4Z3WOdVzyPvVQNgYCfNgCpp/d9yrm7yYgVsiPSpnwa84Gp8v0ZDPd1DNmOuB9Meufikmf6Aqi382Ja9ZNDAzxIwDz5bDznL6Y2FcXmi6XEDY0w4PuFCfhTfHm6BC2dvd3EtClHImBpMLjGYWSvOEdbsZ8aXBSmNzGt9uWBlt09kUGiUmf6ArCHwFgjOJQfGvqHJ+Ovr9q2pXRqySf2XS5lO7ATzr2YilVna8zdxIoUHg//uDUxYCZHULavdaYt4r/CO5Egw0HYXaoQO/4ywwMkz7RpUUuFgdl+Y4k98OXlTuDLw/QR9DaLJehzdfwTcAzyq/op8tkjBUeWG0dpoMYSOJsc+7kFQCIvrESgPnOW/i6xKRPdEmRi4lmQ+gOPttd5lSQY6Yw35OrJllqRXFyU2DB8LIdZtPl8qbLEI4uYGvJlVxg5WdPhz8Q0DEqnjFQfx2NgbT0/5o/UQys9r9VUXKiGlgs75/rj1s3gKhfPBhKfvzS9GOsT77EP9weTB9xZqBdna8RP1lQDAX7JXU4YZwrpzZdLk/FfO3jRzFgWC+Il0v4XwoUJf/9OjmfoccwPR4D6nyNEBNomgI7XUB3ELb+0Z0plqGDjWZgdwiYPnzTgHHudxgwJY7jOPeGoqDwFtHVMP7olhh/1FdpbLO8T0RENBBM+kRXFcAqeShP/sXZ8ER0GSzv011h/NEtMf6or1jeJyIiGpj/D9XEl+F8zgsiAAAAAElFTkSuQmCC;" vertex="1" parent="1">
          <mxGeometry x="1241" width="509" height="267" as="geometry" />
        </mxCell>
        <mxCell id="0TxXQybrsUDYrA-Kx0nE-9" value="" style="shape=image;verticalLabelPosition=bottom;labelBackgroundColor=default;verticalAlign=top;aspect=fixed;imageAspect=0;image=data:image/png,iVBORw0KGgoAAAANSUhEUgAAAXEAAACNCAYAAABBoEpyAAAUNklEQVR4nO2dP4vrSprGHy0XhslmYdhwYGftZvHxJ5DnC0idGBac9kQyE1lcTmcNmzjrRA6trLmZo4aLpXgC6xP4ODgS8wHOwsbLwEUbSLJLskqW/6us5wcdtC2XylWvXr1Vtp9HW6/X8ZcvX0DK+fbtGx55fPj+1OfR3+Ojv79TEMdEAxDftzuEEEKOZb1eA0iTeBwzj5PHRNM0ML7JoyHG9b/cuS+EEELOgEmcEEIUhkmcEEIUhkmcEEIUhkmcEEIUhkmcEEIUhkmcEEIUhkmcEEIUhkmcEEIUhkmcEEIUhkmcEEIUhkmcEEIUhkmcEEIUhkmcEEIUhkmcEEIU5qd7d4AQQsjxfPv2DQBNIciDQ1MI8ojQFIIQQh4EJnFCCFEYJnFCCFEYJvFSfIw1DZqmQdMGmEX37g8ht4BxryINSuI+xsXAiWYYaGP4N+xFNBtA06bohTHiOEYcrzDp3LADB4kwG2QXWvI34NWmCM2I8TKaH/dZH8vj3h9r0MaHR7HucSrRoCReJMLsxUZw03P6eLf78BoYwHl0ONnFFjqA/X73JEBO4R4xXkbz494fa+guRgjj7CYTYrTYxb0xjxHPjYPt1D1OJRqbxKPZCxYjB9bukbQCFaqWaIaBlr+z+mOxSpUsCf1x7o6+fXn0HWu9h+/j4t1eXGaWV025KmHboI/x9vik/2NfbEtss/i42PfkudICItwg0Hvobo8re89iP8SxTP8GM0TCecr6EM0GQuUjtlfVb1LFdWL8hPiSxn2xX2XxUuyrGBfCc/648LpDcSrEfDTD1LXgrSbY3WM6mKzmyNKxGJ/+ON//aDbYjl9ZHM+Ea1e8xvLjLL7vZtHMJB7N8LIY4WPyVHhCh667+EwHOlouAF0H1t+TwfXHMNdOerf2hIsj3/bAXOcq2bWZBlS4QRDY2AzFKvcFs8jAPP1fr+hvViV4MPcTrv8OGw5ejbSt2IMFC14cI47nMJA9nv55fdgvWdAkz+0KiAB2Nw0s04U+esZxBVSITZCeO/eeqvog45TXkOvF+AnxJY37rE1ZvIj4GHcvuarYxXy0XCCwhqhbPxtDC8FimcZghOUCcF5lr3Zhb97SMbHgmulNJJphmhtnHc7H5Mjr7DY0MIlHeO/aGO0NWIhN0MfbmwX300c2OaO3EfRgg7Bu8+EGgfW2WzZ2JnizAtgfP4Cf/hfQHWznO31uk2vchVmoyqPlAkFgo5s+brrA+nuUP37aQ7iqDoJcNW+6FUcK2ymxh77dFW4aQoKXVcVp5dU9sg/BpnyU6/ebJFw5xmVnrZqnqriPvmN9oG1/bAKepHAqpUaclp/p4KoYxhBWsMAyAhAtscAIz9ILz4KXVUfG8Ij+N4fGJfHN+ws+nXB/by5LPMYQlvsJP1pi0X/DxHhCPzvGmCMcLdJkauKYdPKvf/k34N//UqgyInzfi96suonhWS6mswh//L8AsLxdlRPHWG3fQHr82wbdquVYNMOL3d+2La94ihgYWuJNQ0jwkqo4Wi6Asuq9og+dyRss10wvHmFsT+53e7lLjFfNU7dXHffhproS9scw4eG4rebDcZrReeoD7measMWVhgwDQyuAvfyBH7/a5bF+iM4T+tvCzMTa+Wjs5wUNS+IBXLePt8rRMjC0XExfFugPDQBd9PQ1khzm491GGhySSe72oLtTYT9whqmr47//A9uJe9/ukS+xCCwMDwTnH/7Lgb4NMlm3heqgjNzeNuC/112a+vh0gf6TZMz6T4UATqu7stKksg/iclwY25P73VZuEONlVM1TZdxHmE1dWNKLwIVpYlfNnspenAoYr3B0F+YRe9LGqwPYX/H1Z0msH8L/xNoJS4qy5tGwJA5Y3rz8jh9uEKQTbQwtBEE/DbIOnvrJ0i+aTeGKWyVldCZYef3dUq5ro+9ln8obmIcO1mb23AKjsNif3XaKuXbwMekAnQk+nLWwzVK2PDTw6gALWRY35vD6wpYMLOECLX6wKS5FTaydULJfXry4IswGXdhBkHv/QWAnq4TKPkg45TUt5+oxXkblPMniPo2XflWVrcPZu0YyhK1H0wWyOANQHadAPuY7mKziXP81zYQr2RIEAHSe4ei/4BfdqdhKqaDbA+xu+RcgGgYFsFpFhNngHU+rwkUXzTB4AT4O7NmrCAWwGoRCceaPNUx74a4C98fQPoeN+XoiBbAIIaSCZDtGqMQvsWV0JViJk4eGlTh5RMS41gAwwgkhRDHW6+QrRKzEWw4rVfXhHLYP7okTQsiDwCROCCEKwyROCCEK074k7o8limaEEKIeSiTxnCTkuXKQxiucdaIB0rUP/fyZNIt9Q4xKISSiJpn87t4fZY7LaHwS98caTAjiUm8bvJw1k8lPeOOtRCdRC1HBkYJbD0lnglU6v6GjQ99qmDTXtOKeNDuJZ2Lw4i+ljHn6U9iiyH1BgL5U86BKxL74ugFmUV2B/TrnJjehcvxl5gYyUw/SPA4ZUbRvldbsJF5QXtsnk4UN4WQqb1WmDzmKIvY+xuLr4hUmHZnA/rnnJlfh4PhLzA3qmHqQBlJmRJHX2m+DGFuzk/hBMpW0Lux+quwmMX0oqgfuidj7n3D1KvH4y52bXIlD4y8xN6g29SBN5Xgjisek2Um82zvgaCIYNMBMvmnyu7+XHpnT2z5JxP5C5yY3Zzv+VeYGUlMP0kgucg0/Bs1O4p1njHQXpri2jWYYVK11//S3UtOH3nZPRiJi3+1BrzJtqMPBc5OrIjH8SMZfbm7QeR4dNvUgDeJCRhQPwk/37kA1HUxWITDoQtOyxyx48QSAj2RLIzWo0h2E8w6ACVbeBlpXg529wouFT7UlIvadCT6cBbrb1+lwwqpPw085N7kqHdn478wN4rLrvjPBhzNAdxtkh+ae3JcqI4r2QQGslkPxJPXhHLYPCmARQsiDwCROCCEKQ1MIQghREJpCEADcT30EOIftg3vihBDyIDCJE0KIwjCJE0KIwjCJE0KIwtw1iefMHi5h+EAUpcTsobaMYITZ4HylyJwUrablHJ/8MeVpb8f9Y0E17l6JW14qOuS1XYus7YgSomHivnSjm7o/1tAVpGjjOMRo8b7VUjHmMWLqdNyQ+8WCitwxiUf4vpaJQxXF3bO7a12TBtndWGbm4GNc+pqCAL3UVEB+/ryPp9jeAYOKVtPBZOXBCmy8+4B8fFNNlCCA3d3Nx1EGD5nxyGqCnVRKB5PVTptDnEN/nK/So9mAVfpVuWEsKModk3iITdBHuUprZsaQVel92C8zRJCZNMiOL6PEzOGoPpeYChx1/jLKxO3bjoGhlel6y8Y3EUhz9LRyW03QOdLgIVou5PK0Zb0aWggWy3RuIywXgPPKKv263CYWVOV+STz6jnWFa0/uDmq6h5urfXyJmQMAIL2DV1XyFX2uOn+wkSuiAxS3ryLTAq87v+cZPIhVnmRVZAxhZZLF0RILHGMkQs7htrGgDndL4tFygaD/hNL4j2Z4sftb04WDZrhHHV9i5gAgtw8nqaSj5QIYPe/3ueL8nckbLNdMg87EXshR3F6Cj89MC/zYeDjC4KHz1Ae2WuLiSk+GgaEVwF7+wI9f7fJ4IBfmNrGgKndK4geWoQVvTf/9wFbDscfXYe8Gk/R5VFZ2VZ5fXP4VkwPF7WX4Y3Nnl3fE/B5t8GC8wtFdmEd8cGa8OoD9FV9/lsQDuSg3iwWFiW+LF1uJ6Fb5n+7EYRzHniU8ZlmxlT6+a8OKPbHVyuMl594eU+xT1nZ2njB29HP6W9ZvL7agx05Y9tztuP38l1EyvlZ+JKrGN3T03Fxs/wdi5MZYTq79XGwk7em5RtL+ls7x7WnGHF6K+8eCCohzfgcBLB9j7RPDuMSZI5ph8AJ85L4p0AQizAbveFoV+tzY/taH4knqwzlsHxTAIi2j7Kup+z/qIURFKEXbcljFqQ/nsH2Ic05TCEIIURCaQhAArOIeAc5h++CeOCGEPAhM4oQQojBM4oQQojBM4oRUUlSyJKRZ3CyJ5wwgqA1M7ir+307zALLjkYw+bpLE/bEGE4IQzdsGL7yCCMX/yZ14NKOP6/7IP3RiXaoJkuiFOIK+QU6jwrNyGgo7CQVRZyTRWrD2TiDTQ6lot/D4TrOhWlulvP/F12S6DWXaMVbsSY+/Lleffylh7OjF95iMQTLssvEoaGuUaWTsB0PhvMXXV419Ue9mFy/1z3ld7jeHx7B/rZRfz8X/vdjSndixyq8VMV+Uz0cSZ5al547f08PJXfvN11gR5/z6lXhBdWwfFwt8bFX++vZLssyNZhiY612lFjpYmyVLYP8dNhyUCyKWGEBUtWvMBdlKD1ZOAU1mJiHp/1WNLR6VW4j/l7y+1tj7GGsm4MWJbHBLDAcuiwt787a1Y3TNmp81BDYWvTAZZ8uFqU3RC5NrF3Zqo1c5HwFcvFVI0foYizkhXkElxdoGfLBp4W07YqlW8z8A/MNGYAmmDZ0J3qwAi2V2aaXmDtMeQqkAVYkBRLipbHe3d28Cnih4JTOT2O9/5gFxPWOLx+Ye4v/V53Jhign8QudsH9ZOdtkYHmGCsrvGuj0dyK7fzjNGaUFVPR96tfuS/7mTulWQ6yfxbg96sEG1t019+ls/t7SKfdugK91HLTGA+N3fK9s15rtKHKYm3M1lZhL7uL/hysYWj8qdxP8PnsuCV1Y5tsBwQAX++XvgD/8TtHY+rp/EO88Y6S5Mca0ZzTDY/u9iunMVxtTV4fwZwJ8d6O50t32SPrdnrCzaZdXhT3+r125tSvr/n2iGsYVi3E38v865jDlCZ701j2iT4cBtcPGZDmY0m+47YFXw22/AH//qnD4f3R70Y3JIw7jBdkq6B7k2d8vV7gZv20+GLYzwkj5uo++l+1GdCVZef+d7KT6Xw8CrA2GbRSTbAtFgrh18TDqV7eaW1JqJtRMKtmklbVX135jD6wvLO1jVy8djj38IRF/T9BtM2dZY5Xh08DzCztW8M8GHs97Oj9QjVfb6mmPfmazg9e3km1VHn5PIMTD3LLhmMpYvGB0V+7//J86bj84EHw4Oe+w2lDsLYFUYRCiB6v2neNIjwDlsHxTAIi2ARhCkHVCKtuWwilMfzmH7oCkEIYQoDk0hCABWcY8A57B9cE+cEEIeBCZxQghRGCZxQghRGCZxQi5B7lfIpMlEs8FDfc2USZzchfyFdI5BRDl1Rf/PNwdIvo8+eN+g3/uOsaZRzfAOPJLJw7H8dO8OEJKgwwkzWYUIs0EX2sCpUKisxpjHtb47W/e4ihYwj2NEswG6NuDFsbK/3lWZ8+dRXViJkwbSwWTlwQpsvB8ornK2f4L1n1jp++P8rzSj2WBbteVXBImf5kzQ0BGLu/JzJZX4y6YPy+nhk5X4kRRXYTulyJyW0XZQE2u98XiQ+/Xt/jyKbaqlhXIsTOKkoYgGERKiGaZrJzUC8GBBh/OxX7kbQwvBYpnKFUdYLlChLy0xLpCeK6nEV689rDdPmMcxHsj16/r477D7ooRsqkN0lslDuwxWmMRJo9npx5+BKFccLbFAlQHAicYFnQlWzN7HYwxhuWauAgfONHlAuwxWmMRJQxEMImR0ntDfXugm1s6HxFYrdYxa/sCPX21g9Hz8Pnvtc5HjyKrmIT4L2yknmzy0zGCFSZw0kpxBhPSgT6ydsNZFbrw6gP0VX38GRqf4cB1xLnIKBuZxCEdPzCHOMt1omcEKkzhpCBUGETK6PcDu5j5slH6o2HmGo/+CX3TnNC/FY85FapM3YunC7nvJZwrnmDy0zGCFAlgtR2XxJH+sYdoLd1WxP4b2OUR8hb3pW57rWFSeQ3IaFMAiCiE3d5jCylfHJnYfSl6YZDvmNuci5BhYibccVnHqwzlsHzSFIIQQxaEpBAHAKu4R4By2D+6JE0LIg8AkTgghCsMkTgghCsMkTgghCsMkThrBZUwiEinZ3JHRDIPiY+Tu1HfXSaRnH1lK9lyYxElD0eGEmfhRCGdtbrXCCSE7mMSJAtQ3iajmEgYE8jbIqcjMOBKHJztIdXUEw4+yFVqVQUhdcwkVYRInilDDJOIQlzAgkLVBzqTMjKODySqEo6erstUEHdlcyUw7zjKXUAMmcaIUZ5lEXMKAQNIGOZd6ZhzVc3Xs8YfNJVSASZwoQg2TCADAGvJr+hIGBBVtkNtQNldVph2nmksoApM4UYJaJhGZg4+wce6/2wisYWHL4xIGBPk2yG2QzpXEtOMscwlFYBInDeUEkwgAxjz9Jkv2urWDMF2mX8KAQNoGuRIdPI+w+2BTNlcy045zzCUUgQJYLYfiSerDOWy2acc1oAAWURi5SYTKXxMj59Fm0w5W4i2HVZz6cA7bB00hCCFEcWgKQQCwinsEOIftg3vihBDyIDCJE0KIwjCJE0KIwjCJE0KIwjCJk5twGdOHVG605rGSntBkoAHQFOJyMImTO3Ga6YMxjx/2V3iEnAKTOGkA9U0f8hWczEwAKDdvKDMZKP4CVKz6qtpH8tPuktfJTAuIDJpCnAOTOGkIp5o+lJkJQGLeUGIysJWWTf+8PuwXcUUgaR8+xuZaWE2sEunTShMCIoemEKfCJE4axfGmDxIzgSPMG3KVmunWa9//LJXGPda0gGTQFOJUmMRJQ6hr+lCXmuYN0Qwvdh9eVomHDvRzT/3gJgR3h6YQOZjESSOoZ/pwCgfMG8INAr2H7N7hv9sI6jTb7UEPFlgWisA2mBDcE5pC7MMkTu7EaaYPdZGbNxRMBow5vL6w3IYlXcrn6Ezw4UB4D+kHmy0wIbgtNIU4BAWwWg7Fk9SHc0hTCEIaBE0fyPHQFKLld/E2wypOfTiH7YOmEIQQojiZKcRP6/UaX758uXN3msu3b98eenz4/tTn0d/jo7+/UxDHhHvihBCiMEzihBCiMP8PDNHH14GUVp0AAAAASUVORK5CYII=;" vertex="1" parent="1">
          <mxGeometry x="1270" y="563" width="369" height="141" as="geometry" />
        </mxCell>
        <mxCell id="0TxXQybrsUDYrA-Kx0nE-10" value="" style="shape=image;verticalLabelPosition=bottom;labelBackgroundColor=default;verticalAlign=top;aspect=fixed;imageAspect=0;image=data:image/png,iVBORw0KGgoAAAANSUhEUgAAAWIAAADQCAYAAAA9KWuwAAAaF0lEQVR4nO3dP4yzaH4H8C+nN9rb7lZ32nKly9mTyHIXpcHbXDqYxtJJVjpXh3WV0WrfbqRtppsGqshcNbomcjXSaqBOMTRpvVYyoBSpolfZa1Ikd4pCCsA8YMD47wP29yOt7t6xDZjfw88PeOaL8uOPP0a///3v8dvf/hZ/+tOfcG0+++wzXPP7O8S17xO+v267xff34fPPP8ef//xnfP7551AURfImnt5Pf/rTq35/h7j2fcL31223+P6UxWIRSd4uIqKbpkRRFCmKgihiP6brwTFNbVYcnz+RuC1ERAQ2YiIi6diIiYgkYyMmIpKMjZiISDI2YiIiydiIiYgkYyMmIpKMjZiISDI2YiIiydiIiYgkYyMmIpKMjZiISDI2YiIiydiIiYgk+/DDDz/I3gYiopsj9l4Gw9NV4pimNmMwPBFRy7ARExFJxkZMRCTZDTZiDzNFgaIoUJQR7FD29hCdEsd3F12oEXuYFQdFaGOkzOBdZgOSVY6gKI8YBBGiKEIUvWHeu+AGNODN0oNIgTKyweOobdoxlsu0fXx7MwXK7Ji9FMIeXeeHi6QZcQh7asK/6Do9PJlDuC0bnDneDI+DIDmIIrhDE30245aTMZbLtH98a4sI0UKTvRmtJKURh/YUy4kFI/sJ7JECRZxVhDZGSv4TNDdbrDrt8mbCcxRsXh6+Y6UO8C4sY2SHyJ/Klc9q4plG8pzNAj3MNs+Pt3/micsSl1n8ubjt8WMzD4C2wJtwFGkLF4Zv4smrWt/2+xX3V/l2N9nXVe+jWK/tmXt5jeJtt4XtGV3JtOY8Y/mAcVQ5vovbVayZOK5QmN0XHvNmhdeVHYPia4SxjXg8Ztu0PSay3VPYVmUGDyHsUR+m78Psp9u/67iqWj4Kx032uvJj5vwu34hDG9PlBM/zu8IDKlTVwUtatNcloKrA6j0uvDeDvrIQRBGiyBUGfn7ZI30FKz01Cyys9GQnB2v4von1OHsM5hR2qGGR/Fut2d4gnaVCx1Z9vCeYsPBRS5YVuTBgwI0iRNECGtKfJ/+5Q5jTdEDHj6UThfwBqsMBsHoPK9YHQFtky41cGM5LfBDUbveOfZ08Z7Mft/Z3gLWfvD9xv9XWyMESz5vlDc1p908xzzaWDxhHleM7XWZFzXI8zPqnnN3nx/Y2B+b6IXkvBhw9aeDeE8yhK4zrBTT0MH8LYKnJuHybo1d7XNUsHx5mYp9IzyKaHOtncuFGHOKpb2LyPEf+7CnA2h/i4cGA8+IBCPG6BCYPE6j+GkHTxQdr+MZDdmrWm+PB8GE+fwI+/BFQk+YlPLbOLdyBXpgBhq9L+L6JfvJz3REbY/L8xwGCt+J7Krxz8ZNWdyqfpy2EgRUFsHJHTPn6suatA+4CWu12n2Bfh+9YNXlejoGHTWE0jLf2fdeceSxXrbVuHNWN7wY182Y64FZMckols9ODvxg04KZdWhtn69XGMBy98gxVVH9cVSzfe4GjTnBfOGDrj/XzumgjXj9N8WIF29ewktOqvjaOZ3ThK5bDB8y1OwzT52gLBJNlspPimWJTX3z9JfDLrwuzgBDvWyMznX1EcA0Hj3aIX/yPDxjip3MkXD5Inv+wrr+WG9qYmsPNsqtnJEUB1j4wvKtfX9a8XUCPT8F+/l8V291kX+/crDV8Y4ytic4RNeoaKWO5bhz1B/Xju6pmKW8GHW7N7LWMcNa0NRs9RjrTHeOl5pLh4cdVjcpj/bwu2Ih9OM5QmBWV0TA2HDxOlxiONQB9DNQV3pPrjE8mksJXfGr3B1CdR+G6mY1HR8V3vwLQu8Nwc70VQPiKpW9gvGPg/ew3FtT0dL9ys8cw/CVeq0ZhsIavDtBP/uk9VZz+ebPcqVBoP8IRZzlN1wfgi7/ftd11+7pOCPvRgVG64+pqFH+wJW8Mj46KQb9kEZ1wgbFcpm4c1Y7vupoBgANdRzZ7PNTwrvascH8aFlEAS7jMk9P0uCrqD6CWHD+9+8nuY/1MLjojNpLT5i3BGn5SRG1swPeHyQDq4W4Yn16F9iMc8bJDmd4cb+4wO13qmxi66bfIGhaBhZWePrbEJChuT3ZpQl9ZeJ73gN4cz9ZKuGRRdgqm4aMFLKs6o7aIfwMiXTYM4eATv6z7iMFjdo24v5xUXPLI1pc7NVN0rKwgntVUbXeDfV0t+cJkWD5zqq+RgQmmJXXpprOP5TK146hqfNfXLKbC2joWUsLlOt0BfPE3eYRLE6WNPP9lXVP5MS1uew/3E2Rf1tXujxq9OZ4tbF9WaXSsnwdDf+gCPMyUF4yjqoP99DimzyS0MZoCzzu+E6F6DP0hImoZzojpKnFMU5sVx+cmGF5RFFnbRHQWHNPUZgyGJ84YO4716zZeIyYiahk2YiIiydiIiYgku71G7M02qUr5NCgiIjk60YhPGpaufYS10uO/XDN3/ZkqtUMxFrE+tpRaLI0E3frvOgPfm2p9I/ZmCnQIQRwPa0yPqlgP8zcxXo+6QYzlPFHAC11eb463pIaBpUK10hshdPtP3o/V7kYc2nh0jPzfsG/C04uh0IUAa+Gx7G/d60Kwi68bwQ6bBnQ3WTedVe1+rw6ylxUETmV2hdRf7xlRuxtxIV1pWxpbGcBKk63qwuFziiHYZWHRVQHdx66bTmrnfq8IRZcYBE67lIXU192soNva3Yh3SpOh+jCHSZpVRTh8MRltKwS7Iiz6HOumE9u13ytC0WUGgVO9/UPqu63djbg/2HFXAyHIHXr8GxCf/VPpM7NwdRwYgn2iddPFbPZ7XSi6pCBwqnGS47Nb2t2Ie/eYqA70fFo6RnXnj1/9rjQcPgshrwjBrgiL3svOddNZVNwQIN7v1aHoMoPAqcqJQuo75oPsDagX3zAQoz6y/BYDbjQH4CG+PJDcaEa1ECx6AOZ4c9dQ+grM9BVuJHwjWxGC3Zvj2Vqiv3mdCiuo+yb3kHXTWfSq9nsWih6VHde9OZ6tEfqbwbWr5nR+dSH114uhPzeKNe821q/bGPpDRNQybMRERJIxGP6Gsebdxvp1G4PhidcYO4716zZeIyYiahk2YiIiydiIiYgkYyMuJSY9MbTnNhWSwIjOaK9GnAtoP0VIewvFsYiPGORS2GRvVRuVhLU3ji4LYY+O+YDbXjfvtNJ2MsdL++09IzbcpEG515iL5OHJHMJl821IjCUM4jufXPDDeTMWIxdDs88Iy9aTO17abI9GHOJ9VRVgUwxtTj+9mgarV33a1YVBx6eOthDsnc2K9gmAF0LEw3es1AHeZ2UzrUPWV7395YHkxdNh8d/17yl/tiJj9tDD/M2F4Zt48tLtLdumJP/B92H2s7Oq4wLaNYyNNMKybh/GM6vZbJSv39YNAbIlvwvblb/BQNX+Ls78sm1hCL1I5nhpnz0acYC1P0R5omMaoJ7OlocwpzZCVAWrVz2/TF0YtIMlnoVZ0XR3AHxdiHiwhu+bWI+zx5Bb5r7rq3j/RweSF96TN4O+spLlycxwFRtiVY3jICdLTer6Nkfv2P2RpK1NGoVJ+3DwIERelt0QIH2uA3P9sDkDdPS0qdaMX+8pDhnaPJ4E2DCEvoSk8dJCzRtxMlusSnTMfULpzu7F7fn8coZw808NY8PHuhBevBUwXREibj5/Aj78EVAtfNTyj2XLPGB9JeoDydPAeQWKoqNsz7Q9NDvNAW5a40MD2h09WXbfxNBtejlJhfVRyPaqvSGAcJsubZzb35XvTRvDcPSt2/gwhL7apcZLmzVuxOHrEv7wDqXjNbQxNYeboPSdN3bc9/mH2iNg+ouvvwR++XVhO0K8l93a4QTrqw4kzwLnS2e3ZevQFggmy2Rgljfvy/DwkuYA71vjAwLas2vE0WVDxGvfWzqzG+OleF81htAXXHa8tFnDRhzidYn8TEJUuLec91S819SRz6/k4DG9NrBPAHxJiPh3vwLQu8Nwc80KQPiKpW8gyxQ/YH0lDg8kr1qHhycTyem1vJmyN9Oz2eUeNT59QLuDl2Rhof1Y/8F0yA0BGr03DYsogKXG28IQ+m3tGS/yNWjEHmaKcLFcPHXwTfRHNkJtAXconCrAqG8G+z6/koEJphWnp9UB8G/uMHsvuddpWAQWVptT3iUmuWUcsL4yvTmerZVwCaLpl2vl6wjtRzji5ZaLyY8JHW58DQ/YUeMe7ifIvnw5eH+U0bBwjc1liykm9WOrN8ezBeF9NFh3zXvLnV4rcSj9QsMRNb8mbRwv7dAg9MfDTHnBOCppMqGN0RR4TnfmRdVs11Ws77wYGtNtrF+3MfSHOqLsV//4xxt0nRiDeaNY825j/bqtWD8Gw98w1rzbWL9uYzA8cUbVcaxft/EaMRFRy7ARExFJxkZMRCQZGzERkWRsxEREkrERExFJxkZMRCQZGzERkWRsxEREkrERExFJxkZMRCQZGzERkWRsxEREkrERExFJxkZMRCQZGzERkWRsxEREkrERExFJxkZMRCQZGzERkWRsxEREkrERExFJ1spG7M0UKEry38hGKHuDqFVONz5C2KMRbA4wkqx1jdibKdDhIoqi+L+HNaY8UijB8UFXKYqiKPkf+QIrUmFE7tYDbmQAEXL/Jc9zjdzPDVd8jbCs3LKDyFKFZWweRwRDWHvlsouPqZEVVG1jYTtaojU130fl+EhU1iutt1iXws9UKwou8y5Oot31cyNDtSLLKB4H8b9VS9jTO45fy1JLj79A+Hl6zLpGftmBpeaP5xYp1q9djdg1dhwQZc1VjTb7Pvdv8bnpIBAbsRqpalbcwFIjVVWz9e9ctvBY3TayEZ9O3fioq5drVByQ8Tgor2O7tbt+8fGWNkXXSCcrUf7DdOcxJkyMXCM7fgMrUoVx4BrJcZwbH+2ubbF+rbs0sZdgDd94wLyX/Ls3x4PhY/maP1X1ZjrgujCyF2LtD/HwYMB58QCEeF0Ck4cJVH+NoGbZ5vMnwHuBo05w30NDDvT0mqYyg3fUm6ZSdWNBG8NwdO77izLwkBSjP1CBtDa9e0zUFd5DAP9i7jh+DbgLLf6/2nhz/IavS/i+iX5yTOkOsHpP6uwv8RoCCF+xxD7HqFztasT9QdYIjzC8E/a+N4MOF2k9AQDhO1bqAH1tDMN5gRe+Yjl8wFy7w3DHsr/49ZfAT/5jzy0y4CbXNF3DgT5jOzjIAeMjHgsaFlGEKBrjhR+GrfDfP61+LHf8VjGE7wmiCG/zuM4fLcD8/hM+fW8Ck3t0pA+3rBH37jFRC40qtDGqalz9AVTnMfvWO7Tx6KgY9NMnONB1ZJ+qWzSMDQeP0yWGYw1AH4P007pi2d99BeBXfwc1/eQ9gJptIO2jbnzsHAtA3JADWKqDF3Ziuf4PwF9bDWq2rXc/geq8lH6Y9u4nwDff4ttvgElXpsNAy76si6Ko/IuVVMn11tqL/eI1IuG14jVD8dpTJFxvql124cuCqvVs/t2+L4XaVfN91IyPinrla5X/QnbzWEvq0lS765c/BvJfmhWu3Tb9sr1smaXHXzI+Wl7PYv2UKIoiRVEQP0a3gjXvNtavmjdT8DKOUHki3ALF+rER3yjWvNtYvwqhjVF/jYdogRb3YTZiirHm3cb6dVuxfh9++OGHzQN0W1jzbmP9ui3tvQBnxDeLNe821q/bivVr16+vERHdIDZiIiLJ2IiJiCRjI6YO8jDjnynTFWEjppMJ7RFG2d+rwh4JAe6KAqVRxkZ5k/VmTV+fD44fHZxVvB0av8823LL8OKh9JoP5E2zEdEYqrCANZglgrfSD76ihLSJETf5UyptBX1kIkjCYh/XTyWbOjbeBaE9sxHQhPczfXBi+iacDOmPZLOvdHu2c+WqL7C+sQuH5uZmtNxNm7iPYYQh71Ifp+zD72e2YtrYh9zoF2SLjWb0trO92J9JV+6J6H5fVKHd7LGXX8+OZ9mw2OvKs6HLYiOmCNIyNJDv2aA6WeI5n24EFmNP4FFdbwB3GWbW5AzC0MV1ONjNlF3rSEDzM9JUwc3/DvNfD/C2ApSYz+rf5dpxiaGMkvi6wsNLF02wH5vohfsw14Oi3fE27bF+U7OOqGoU2HjdnOS4MqLCea54PAPDh4EGIyGw3NmK6uEZ5sztlweNpoPg6CSrWFvGlkMmyn8xwa8LE9w75T+y8KUF5qPltarYvKmt00PNVWB+7cxnpg+wNoFvi4cVRMfh4iXX1MH+LcDdToP/jf2L6F34cJl68xnviaWr8IXPsrQ1uWFmNcIehr6OvmAAA1Qqw6CH+rqH0+e2/FFHEGTFdjDfTD5t9lnLwmF4HEALFQ3sknJ6GeF8Bxt/8Aj/7jVUeJt4fHBby3yiInvZRGfjuvWBlBYW7cdQHxHcNGzGdUfJFTHrqCLf8eusW8R5/Vb/eZGCCafycvglYz5j3gN78AdDT1/ZhDpPbZPXmeLZW28vtzfFsQdjOdH093E+Q+yIppzfHmzvMXtc3MXTf0IHLkS1S2MdVNeoPALO//cVo1fM7iKE/N4o177Zbqp83U/A4CLIv3bwZlJdxp3+VkKE/1AIeZkrh15GO/gMMulbaRys/I669D2U3cUZ8o1jzbmP9uo3B8LTBmncb69dtDIYnzqg6jvXrNl4jJiJqGTZiIiLJ2IiJiCRjI6bOap57S9RubMR0FqcJid9+3WUar6z1XgcGw++PjZgu5PCQeMNNX+diaPYvlO2r5iIuYZ4uYJ6oiI2YJDg0JL4uz7j413qFmdZW+Hv848qweFGwhq8O0N+sR8wWzv7tzfIz59Ae8dZKDIZvhI2YJDkgJD5JOJuUxrdpWETRJqErcocwp+mMuyz8HTVh8UAusEh3oE7ud4YVaWMD/vI1WWeI1yU6lYl7PgyG34WNmKRqEhLvpGlqOxLOcrMj3ckeqAh/3xksHux5SUQbw0gjNcNXLHGqyM+uYzD8LmzEJEkSEt8gvze7RhyhMusltDE1h3Cj7Lqu2mQzDDebRVfOnprO3jV8tADz+0/49L0JNJhFU0FZPXp3GG4aro5VEnla+fwOYiMmKU4bEo/CdVzAezLhp49VhL83Dxb38OKIs3cHL8mLQvsRwtwbvfsJ8M23+PYbVFxCoSoMhic6u0ND4hsSbhoaL9/IToGrwt9rg8XF7dWxsoJkNq5h4RqbyyVTTPKn2r17WOof8AfV4mWJnRgMn2Loz41izc/Hmyl4GddcRjmBW6ofg+GJzu7KQuJDG4+OgXF3e0TrMBierhZr3m2sX7cxGJ42WPNuY/26jcHwxBlVx7F+3cZrxERELcNGTEQkGRsxEZFkbMRERJKxEZM0pwmPL8ZSAghtjIo/o4thMPz+2IipRQ4PjyfqMjZiaqlDw+OLijPtbKbcPFS8ehm0C4Phm2AjphY7IDy+yHuCORSjEhfQgJ2h8LlQ8aplUEMMht+FjZhar0l4fCVtDMPRt2axe4WKVyyDmmIw/C5sxNRiTcPjV6g+XtNbKI3xUrys0DhUvGYZdFoMhidql2bh8RrGhg9TuJDsPZnwjXHh8oGGRRTAUuNQ98NCxfPLoNNiMDxRKxwWHq8tkt+wSF+3shAkp8K5L3OUPsyhG+cE7xEqXrkMOhKD4VMM/blRrHm33VL9GAxP1ApXFh5Pe2EwPF0t1rzbWL9uYzA8bbDm3cb6dRuD4Ykzqo5j/bqN14iJiFqGjZiISDI2YiIiydiIiXJK8o2JzoyNmKQ4TSj89uv4e8XyMRh+f2zE1BKHhsILrwsswHzibJY6h42YWujAUPhgDV8dYBPW5s228wmaPJY9CbNckDnD4ffHYPgm2IippZqGwgtBQboDdXIfhwSFNkb6KjdbXunJaXDdYxseZooOuFEc8MNw+CMwGH4XNmJqtd2h8OIlDRdDsx8fjP9mwjcestza3hwPhg/z+RPw7/9Q+tjyNe3EDnSxCQMMhz8Kg+F3YSOmlmoaCi+KZ9HOP/8IfPir0md88esvgf/919LHsqZvwN3M3LJlMxz+AhgMT9QezULht16FFwcw/vbnwFe/g+o8ZpcbQhuPjorvvgLwl1bpY7mmry0QWCvoW18YMhz+XBgMTyTdYaHw+dfpWFnBJvj9zR1mj/VNDN23eCZV95igN3+DOzQxtUOGw58Fg+FTDP25Uax5t91S/RgMTyQdQ+FvHYPh6Wqx5t3G+nUbg+FpgzXvNtav2xgMT5xRdRzr1228RkxE1DJsxEREkrERExFJxkZMdA6hjVGjTGU6peZZyO3CRkwndZrA9yT28KhGJit0PP6959HTGsPBuxCjSYc6fiy03wfZG0DXToUVpH8+HGfQKiMLwY4/X9YWEbr5OwFxOFBoj9A3ATeKGJd5pO6OheY4I6YLah74np9ZV4WLA+WB7WWh48W/0BNny3XLRyFEPntdeSh5vJ7pegjDGuDlpmfE1WH6+wS6b4+Fqjp2FxsxXVjTwPeisnBxVAS2l4SOb2Isk//cIcypmKxWsXx4mIkh8lEyu68MJY/X8/ZxgNX6Dosout1woKow/aMC3XfVsZvYiEmK3YHvRRXh4nsEtudmYbrTbPneS2kc584Q894cbzfbgRMVtTk20L2+jt3ERkwXdkjge52Gge2hjak5hJvOpAIL6rGrvpJQ8vOpqc2h++4cdWwBNmK6qMMC35vYEdheuLGo92TCb7LY/gCqv8Rr4dz3mkLJzy9fm6P23aF1bDk2YjqzQwPfm6kObC+EjmsLuEPhdBhG5b3TcnpzPFsQ3kPy5dAVhZKfS2Vtjtl3h9ax5Rj6c6NY825j/bqNoT/UEgx8J0pxRnyjWPNuY/26jcHwtMGadxvr120MhifOqDqO9es2XiMmImoZNmIiIsnYiImIJGMjJiKSjI2YiEgyNmIiIsnYiImIJGMjJiKSjI2YiEgyNmIiIsnYiImIJGMjJiKSjI2YiEgyNmIiIsnYiImIJGMw/A1jzbuN9es2MRj+/wHrCqrZzZ/C0gAAAABJRU5ErkJggg==;" vertex="1" parent="1">
          <mxGeometry x="1920" width="354" height="208" as="geometry" />
        </mxCell>
        <mxCell id="0TxXQybrsUDYrA-Kx0nE-11" value="" style="shape=image;verticalLabelPosition=bottom;labelBackgroundColor=default;verticalAlign=top;aspect=fixed;imageAspect=0;image=data:image/png,iVBORw0KGgoAAAANSUhEUgAAAVAAAACOCAYAAABnq1AyAAAYN0lEQVR4nO2dTYjr6nnH/wpzO+fcQHtDDl1kEQiRh9SodJF0I2XVnTykGAKmkAuTLCqTLmoRelIKLiEwq04WUhYt1iYdktDg1XDTseim0IJFC93VOGWkbgrN4t7QQJqcm/Nxqy4k2ZKsD1uWP+T5/2AWI8t63+d9nvfR8762/xK++93v+l/5ylfw8uVL1MlbTz+Ov/vEb+FP//xf8eFffAY/f/EGwDkAG9/8lIHWVIervIsfLN7xBXx7+h4GLeDFm3r6cH5+jh/+8Ieoy75ym0y8VBS8dD7AX37uLbz4iYk/VH6ML03fw+B33g7/d6H/9K+gAti2R3XbB6zrNwOt0Fevn3wS//An53j3B+/iBzXZFXEY+96D/rv/DeMPfh/f+rfl+77w7Sn+5ZttvP/zD2vpB7Ab+4D14vS1ouCf//YD/P2XXuOX9U79BcfkPwDAF76N6Xt/jN87A35RQ445Pz+H8J3vfMf/2te+VnsCBQJjnwov8YtERjwH8BJvn53jxZtkm2+f1Zc8gcDA733ve6jTvmKbzvBKEPAb/uvAjrO3gTcvlnaF/wdnb88u7APW81vcV289/Thef/ir2uxatHgQ+4AXb85w9paAN69fL179zbfPUudvz67sA9aL0ycf213yBI7LfwCAf/wmPvXuf9RWqJ2fn+PszZt6gyLO6w9/hdcrR4OBTCfP4Fj9fajbvmKbgrYWLb55ER5P/l9nzO7Cf+v4Le6r1x/+KnZGvezfPgB4gzepE+pOnhG7mn/rxOkvd9JykmPxHwBA/Wv89Ke/rLVQO3v16hWePn0KQRDqueIR8eTJE9C+5kL7ms3x2fcGePIE/wfgydn2V3vy5AmE0Wjkb38pQgh5fAgAfN9nDiXHiSAIYHySY+Vjh+4AIYQ0FSZQQgipCBMoIYRU5BElUBt9QYAgCBAEBaZ36P4Qckg4H+pgxwnURj/tHM+EIvRh77bhBJ6pQBCu0XZ9+L4P359iIO6xA6V4MJUomIM/hRHdcI4j9rM4/vnQHPZcgXowr3Q4e23Txo0uYdKAINEmUUBPIOkt9A8900iNHCL2s2jOfGgCe02gnnmFcc+AtjwSVl6xu7JnQhEECLHsYffj1VnOcsPuJyq4xdu9B8zkNh766eouvoTJrgqCO3V4zuKCNvqL84P+9+34teLXTB+P9z14LTtJquhqwOwh3c/UNVI2C4mLpapaxUT0tmy7it6TUU2tjAUpYjexXyHucudDul9ZMZDua/R/6jW7v2HsFM2F42Z/CdQzcTXu4XZwkXpBhixbuAsHz7sfA7IMzB4CB9h9dGYG3LAy05CBZ0LpzGBESxLXwKwTOs2dw3F0zLvL16BfwfRUjML/5YL+Bu36mKCz6mD7BjoMPFfDa/kTaNAw8X34/ggqouPh30SCfhUFVvDaSM1u+9qS0bsUF+dlXkMdLY/7E2jWXSyZuZg7YV/iNhbalfMesh07i/0KcZc7H6JrrhMDNvqtOqvpgrlw5OwpgXq4aeno3Q6QXDW4mDsShkMN1p0NwMP9GOgNe5CdOdx1L+/O4WjD5ZJEHGCoOdBv3wfO/geQDTxXk6/NExe30ElVo979GI6joxUe71hRRRg7/7oNd5q2KWV5vNrrWIVmWJ3wvJYOabJcYhVdY1mhdIDJCIsYDCuNVro/RXZ5D5jl9s6B3uKHDpuz49jPa7Uo7ormQ2EMBNj9DjDJKWYyOd3Y2UsCnd9c4c5wV/dcokmudoPqybvHWBpioF5Ais5RR3B743DCd1CcgpJ84ou/DXzmi6m7qIeHlQiJ7t4+JpqFa9PDs187gDaJVXg+pgsDwvOHc7RiS+MVPBNXurS4dllVt9wDjd2NS66hjpYVKDrLZZB3PwZ6l9nJPc8udw5H6yK7EJCXFX6ikiZFHCT2i2Km1S6eD4UxgKAqxmTDavF0Y2cPCdSBZUkYFu5Yq+hqFq6vxpC6KoAW2vIMQWFk40ZH6ICcu16rDdm6ju3zBEvgb30WgHgBydFxs9gTvcfY0dAtCYB3vmxATiyJs7rdheaMcZ8XDe4cTqwKtG8qLHsqXSOsZi5Xx1y87OXY5cG8tqCVDUyEdFFYeRNgL7GfRVHMFM6Hshiw0OkAk23X2icUOzVokpSjxZeWcdw5HKkLEYDY1dCxgKEKACIuJAd3LuDdX8PShvCLRlwcYDqZQ2gJ0Bdt+uFdX8XINaC0BAR6MDIMd5rqj4WOEN7fZQPuSAQwwK2hoLVQkQnel5wLKp4b17i69zDImiTqCJM7AS0h7JWmxSaBjb7QASYlez8F1/BMBS19mU5lw8VU9WAqLegOgNh4AEBLAdxpll23wFULujSBn9uXYBkWXE/DxFcBfnxUys5jP4vCuMubD2HcFMaADMPNsSc+h0KCeLtAeeysOReOEIqJnBweTOUGF9NUoHsmlCvgtmTP9tigmEhDaWi8bcoj+iUSIYTUCytQctSwAiXHDCtQQgipCBMoIYRUhAmUEEIqwgRKCCEVYQIlhJCKnHACrSoYS6FZUidUrDplTjKBVhWMpdAs2Yzs5Gj30zKBp4gHU0kWGI/D7iR7+SnnfokEY/N+clb3+whJoo58PMZvrj5Gu0+vAi0UjC0Qhd2J0CxyhJ7zhHA3EXFeo21yEDxTWXkky0PMr8vXgiqu31dyhL7T20ir59v9ZJx6plJSBaYfH7OMl1yh7UQMKzC9SG8hlKkL58KK3Xki52HcmrH2lq/l9+8YOb0EWioYG5EShd2F0Gyu0HOOEO5GIs4lbZMjwsIYtzlx5cDCMCYrWCTCvXq+2tXgjO/D1wMVLmM1OJbYN4FgyKKNcMWVG3s2+vEY9qcYiCIGUxeGHMrUZf3evUjkPBwTfT4MbdRgdcJEmde/I+X0EiiwhoByjihs3UKzOULP4xz9u21EnDcXuSX7Q1tK2q3Eo7yS8IpFuFPnxyUVvXuM0UOGimHyfKuzUtnlxp59B0suuWYWpbGvLWXx1O4ybnP6d6ycXgItE4wFskVh9yg0K10URGMVEedKIrfkKNlQhDuQVAT0H7+P93+s54tox84PKtwu7tJL5NzYq4/C2C/r3xFyegm0VEA5RxR2F0KzOULP7fRzNqIu5Iodx1gRca5J5JbskOApBwBKY6CKgLZ42QO+8Wf4s29ki2hno2LkuzDCZzLlxl6rDblINDyPDWO/rH/Hyukl0FAwdrZ4vtAYvYQIbJ4obN77lkKz+Tkq55riANOJtHweTOpZRyuIA9was9jzmbK+hxpUHMulUJHILdk9Vom/AEBDD1eLGIBxmx8D6ggTKbaUhla+LSNewpC/j+/LRulSO7E9IMTiOi/2xAFuDWQ800jEZQ+JD5GSfdow9sv6d6RQzo4cNZSzWw+7L+Cu2zxF96ZzghUoIY8Mz8S1Fd+myvqaXNZX88i2sAIlRw0rUHLMCMCj+/EAIYTUwhkA3uEbDCu0ZkP/NRvugRJCSEWYQAkhpCJMoIQQUpHTS6B2f6Ekk6WKQwghdXEUCdSOSchl/qphE9TnMGYdCIKAli4tRRzIEZCWKmuGZBnJwDOhZH7X9HE9xeHgCdTuC+ggJmIwnONqKw+IGEybIYX1OJFj0mjriGWQo0QcYBr60DVkyIb7KJ/icNgEGv6CIiGEoY5CFZj0rynKRIqBzcSNFZhenrBxlbZJLRSOb56odYEYMDkARfMwX0y8iRw2gaaUZ1aJxIZdGPIMD4HsdYlQa0RaYDhLGDZH2HjrtkklSsc3R9R6HSFqciCyhL7jq5Bma9gefAlfTKR004IuheKsa4oUrwgMbywMW71tUpGy8c0RtS4WoiaH5NSFvg+bQFttyM4cbu4J2kJYdoJO8In6+T9lnpkQaq1FYLhi26R2FuNbJGq9BzFgsiGPQOj7sAlUvERPttCJr7c8E0rR+uvTXy8Rai0QN64iDLtR22QrCkV480Wt1xKiJnvmcQh9H/ixxsHDqaC0IAjRMQ0TfwDARrCMDp8JIxtwRyKAAaaTOYSWAD16x8SPffKXL258a4zRWrxPhuEWfWJYpW2yFWLe+C5Frf2s+SgOcGsoaC2CqMy3ZPc8DqFvytk1HIpRNBv6r9kc+YdIhBByvDCBEkJIRSioTAghFaGgcsPhHlqzof+aDZfwhBBSESZQQgipCBMoIYRUhAmUELIlKfWlrfFgKttez0Z/W23hNdgigXowlZQSUVo+jjSKuLB1dSX/1biw+7uUmAvl0RKTpe4J3UQC6b+VYbf7W4mW1yp+ntvIDXQp0jzIEOGOG5WSP1zGrYqupONmx0HACpQE2H10ZsZCEm44v6ktAakjH/5OfxMtQ8buJ0uzEHHZk2HdJQfFvrMg9y5R5Veu9Yuf57Rzt6p5oE1iItyLWEpJVLoGoF8tbt5qV1uxv252mEDTwqnxqqRIcDW646RfT955sgV005VH6v9CIeYsgdcNbEj8Xyzs3ATxX3W0/B1zbn9XBKrD36w7DvTWskJZeTZViSC2GWtv3eHp9TRYnayqs8SHigmzH/f78vx4n5vgszSrIis27iwZvcsswfL4uASriH5fWY5Dofh5wEOm3zZsJ+zjWgI99h2sIvnDVnvnIjNbJtBwokSDkxBOjcSKw7+JBP0qq+TPFlyVZQvRzcO7HwOyDMwegvdXEdAtFevNEFBe24YiUvYdq/ivOsJECjQ1E8kut79ZAtWBOIwhh4K508FqpVPqBwv6fBiOd15SzOByhIlm4XqlIirxoaNj3A4eRzHRLHSEa7TdqJoJq/Bj9VkZodrZoghLaOKWxbYDC8OlNGCp+Hme3zZsBwAgIa0QaXVWb7jew6o6bKsde0CMeAFpzaGqypYJtPj5Nom7dsfKvMKq4KqLuSNhOIzKbw/3Y6A37C20Q4sFdCMhZAGC0MGi1VIx5AwB5VIbctoqsO+YxX/VUXAD6Y1bi0oht78bC1SHlPohVuWo3Y2EeNXnsaQXo9iH2uLBg622DER9Ey/RC2+kx+yzYkQMhstlbHr5XjwuMoznm2y75Ptto3ZWRLPjzzjb8KYKAIiKod2wuyW8Z+JKlxaixJkPD8sSXPUeMJPbaKldaNYdbO8eY2mIgZq6m+QK6C6FkNd5XMBSDDlDQLnUhpK28gRlj1r8NwjYieZA/9HP8OzXzl76W4sotTjAULNwbT4sj60ThwW8egq888F+xmAnRPMINu6s5c1i43EpFT/PYdN2yqpGtQstTIrvfOCsvOzO08dWq9k62V0CTZX89k16mV4muKqiq1m4vhpD6qoAWmiHFUElAd1Csd6qNhSRbd+xiv96phJblnp4mAHa55/hnS8b2f2tKlBdxQ8bEFShenLlUdmHwEcfAc++mjMGjSCcR8o1rLia/6bjUkX8vEo7AAqrRvsOVpgUA7+sxlIvWhblPAKmTnaXQGN7aoIgoAMtVaHlCK66czjSBUQEn6I5joTgAzkRF5KDuYtQQHcWWz6v8WA3cYDpRFru2bZ0SJO46O5yOd6ZGbgdiGvYUESRsPOGfd8D4mAILPaZAvHikYr8/ooD3BqI7YFHdoi47CHxIVKqoRI/bG0IhnEnbeVD4OkrHK3P1iWYR07yk+2NxyXc3551Yp95zDEs+3bFxu2o6GrhPAew8iFUB5hED34si6WiR8DUBAWVGw7FKJoN/ZeB3Ydw1936q292X8Bd19/pM5n4PVDSALKeJb7tF/7J0bLYt92GYM834xFatcIKtOGwgmk29F+zoaAyIYRUhILKDYcVTLOh/5oN90AJIaQiTKCEEFIRJlBCCKkIEyghhFSECZQQQirCBEoIIRVhAiWEkIowgRJCSEWYQAkhpCJMoIQQUhEmUEIIqQgTKCGEVIQJlBBCKsIESgghFWECJYSQijCBEkJIRZhACSGkIkyghBBSESZQQgipCBMoIYRUhAmUEEIqwgRKyAIbfaEP+9DdII2hYgL1YCoKTC9+yITC4GsEdl+AIAR/SsKJm7AaA3ZfgNDfVQTY6AsCBMWElzjGmDtFdhtL9cEK9LFh99GZGXB9H77vYzi/qS0BqSMf/kit6WpZyJCh4+b45xXZkt3HUj3sLoHa/UWVIwgCljcTD6YiQIhXDp4JRUjecTxTWb5/cTyoOMzYa9kVVNF5YSWz+ItVUak+J++AUb/Dv1gllN3XovcU9GHPqKMRojDNtSMxLgpMz4OptKA7DvTW0i7PVJL+yI2BVf+sW2z0ehqsTlbVma5G4//b6CsmzEXl3Ycd80E6hh5y4it7fIJKvN9XtqzoD02RT+oZ203GrziWDjdf0myRQMPJExnV0uFEL3kmlM4MhhtUOb5rYNaJGy1Dli3chWPo3Y8BWQZmD0GC8UxcjXuLKmmCTsyZFsa4Da7rTyDpVzmDmXeeilF4Xd/34U8k6FdhYlNHy+P+BJp1FwsaF3NHwyS0R47Zmt/XnPcU9WHXqCNMJB2t9GTPtcNGP+5Lf4qBKGIwdWHIcnB8OoCYbqc0Bizo82Fof15SzOByhIlm4XrTGeToGLfdwDbNQke4RtsN+gU9XoXH4sY1gChuCv3swEJgy3SwMhINoqJP1hnbrcYvKwZrMnlLtkigcsygVIJw53C04dJIcYCh5mB87yFIKhKGQw3WnQ3Aw/0Y6A17kJ05XAQJ1XGCSS4IAjoWMHuIJoyG4eLCKrqag7mb1b/88xJ3wo6VeNdyf7ADTJbVGbwHzOQ2WqlWCvvqPWCWM3pFfdg16siH77vojVuLu3muHfYdLLmHy00DtjAGAEDDJFqiqV1om/T/eTrprcMyHlptGYj6Jl6iJ8+wCK943IR9/pv/KotJGcbz419ullPVJ+Vju9X4VY3BPbDXPdCffE5cJiK1G1R43j3G0hAD9QJS/GRtEqsG67mzWx8huBPqUlAVrlSGUXIJKlB0lssY734M9C5XK62ivrpzOFoXK6FR0of9IGIw9THRHOg/+hme/drZyZinkS5quKY4wFCzcG0+bH+tNfnk/+5nfE6RV0+Bdz44zfHbTQJttSFb18vlmmfi2pLxrc8CePIyPKiiq1m4vhpD6qoAWmiHdyvxsgc5sXyOE1u+hddtp8vCnPOMzyFIarFK0r6JbT3kElbJGbfA/L56MK8taN2MO2ulPtSDZyqJ/eiHGaB9/hne+bKRbUerDdkZ437T/YWcGMj21eYEVaiOZO0e2xYyr1Gtrl+Nm69/GvjEH+WMz6Oh+th+9BHw7KtbjF/VGNwDu0mg4gDTibTcI23pkCbhvsW//ycc6QIiALWrwXEkBDlGxIUULrPFAW6NGTqZm8Yaerhave4KOefF9gAFQUAH2mKpklhWCx3MDBcjNfWBSbTf6+hoKSa8zL6G75EmyPwgsaAPu0YcDIFO1NdYH/PGXBzg1kBsvzvyhYjLHhIfIqUayo+BegzBMDFoKkYTDVZo2xV6Fcc0GTcwbsPlaFFMnjrbje3TV9hu/HJj8PAIAHzf9w/djzWx0Rfu0PVHq8viSuetgwdTucHFNHUtz4RyBdxmfYCyRwRBQHP8R9LQf82G3wMlR0T66111fOGfkN3RsAqUpGEF02zov2YjAKD3CCGkAmcAeAdsMKxgmg3912y4B0oIIRVhAiWEkIowgRJCSEWYQMmeOQENT8+E0gCtyiazosZ0pDCBEgDpgE3J8K3I9OWRnRw3Ecc9brHn4Huqys0cUvsB/Q1k+EhzRJI34ezQHSDHigzDjX56Gfw0VVAMuBV+eaWO/PW+K7cQew7asPt92Kjj12Qb9KH4Khj5PjxTQUsHJr5fS98eC/X44LhgBUrWQMRgOoHmVFODz1qO5YkWxzk+seegAr2aS9CMNu4eTQWaXpEsVxnVRZKPR1R8G5hAyZqo6GpxDcdtyBEtPnqx56ACnT5vYza/wMj3s8ViTg37BroUl6ILb2xbiSQfUFS8RphAyUbUoueZIVociV03QuxZHGD6KDJniNqFZnUSlSewvcj0IUXF64IJlKyJjbsa9TyLabDY80kSVYtd3KWW8JX9chSi4tvDBErWwu53anysQrYo9qmIPZ8uKka+CyN8nlmx8HkJBxQVrxMmUJJD8qGBHUyy9xNXsNYQzc0WLT4ZsecTIyk0voZf1uGAouJ1Qjm7hkMximZD/zUbVqBkQyh6TEgEK9CGwwqm2dB/zYaCyoQQUhEKKjccVjDNhv5rNtwDJYSQijCBEkJIRZhACSGkIkyghBBSESZQQgipCBMoIYRUhAmUEEIqwgRKCCEVYQIlhJCKMIESQkhFmEAJIaQiTKCEEFIRJlBCCKkIEyghhFSECZQQQipCQWVCCKnI/wNUOEcI13x4dgAAAABJRU5ErkJggg==;" vertex="1" parent="1">
          <mxGeometry x="2481" width="336" height="142" as="geometry" />
        </mxCell>
        <mxCell id="0TxXQybrsUDYrA-Kx0nE-12" value="" style="shape=image;verticalLabelPosition=bottom;labelBackgroundColor=default;verticalAlign=top;aspect=fixed;imageAspect=0;image=data:image/png,iVBORw0KGgoAAAANSUhEUgAAAVcAAACRCAYAAAB39/sFAAARJ0lEQVR4nO3dMY/yyr0G8MdXR7pKl0hRbhcpCmzB6+qW5nwBsw3SldDtSGWUCuvo0K2Uho7GLtfd6nRUSEeL61usPwFLsfgTvJHSJlIKboGBsfHYxjBgm+cnvdK7u6zH9gx/xgP7WNtut1sA+Pz8xLdv39BUPL564/HV2yMe3w+fn58AAF3X77FPRESNsFqtYl9r+5mrpmmI/ktUORyfVGVp4/M/7rQvRESNxuJKRKQAiysRkQIsrjE+RpoGTdOgaV244b33h4jqqgLF1ccoWchCF11tBP+GexG6XWjaFJ3NFtvtFtvtB8atG+5ArhBuV1b09y8Ktz1nRCRXgeKaFMId2ghu2qaPma1jWbmCmmTAsoD5e6K6+gt4hgHjPjtFRCkqV1xDd4j5wIF1/E40YxNmZaGLrqZBGx3naf5ofzmfcUnvj4THaDj8eviFldHBl7CNrhsivkyQPivczXijxxw26GN0ePxu/0e+uC1xm8nvi/u++5lwmOj0B4A9E/YlhDtdwXkZFNiv5Dnowg1l+5VxvogoV7WKa+hiOB/gbfyU+IEBw/CwiJ7c4fscMAxg9YUQAPwReisHm+0W2+1SKMzxbXd7Kzj7y/6Ng1UvKmSbNYLAxrp//BnsIdzQxGv0deqsMNrfXbtbLNE7LUD+DDYcTMxoW9slLFhYbrfYbl9hYv/96N9Shz10d8cV/ezVFLb33/+LgXAuEL7DDvp4bhfZLx8j8RxsPzBuSfYr63wRUa4KFdcQs7aNwdsY8SvzDdaBjpcXC97CBxDifQ4MXgYwgjU2RTe/WSOwXo6X/a0xXqwA9tt34Id/AIaDiRn/2Tq2cQ+9xMwufJ8jCGy0o+/3PGD1FcYfP+1g85E8psSRi7PMnpd5GP/8939hfDgXgD+zYS0nse1L98tfwDMGeC6y9CE5XydLEkSUqjLFdT0bYuFsTtc8o0v2ttmH5S3gh++Y6y8Ym084/MGu+YrNYB4Vkx6yy1Pc7378A/CnHxMz0xBfq+Qj97O6LZaWh6kb4vf/CgBreZx1brf4OBxA9PiXNdrd/Uw0RehiaOuHbUtnyZHf/AuA2YflTeGGPhaehb6Z8kDpfl1Gf6r0ojRRZVSkuAbwPB0vmQXARN/yMB3OofdNAG10jBV2E0UfMxvRJaxkWaDdgeFNj5e1oYupZ+BvfwbQeoIe2JgJl9rzQFK0BL/9HweGt8h+h97swwrmkE74NmsERgf7q3p/VuTNPBN9K4Dd7mHlTJDczdbzIH2/2h0YWfuSfGzK+eq0M3+LiCIVKa6AtXw9KRIAdsVHf0ILgNm3EAR6VPRaeNJ3l+6hO4UnXsKmaY3xsdRht6PL77YNfbn/dICJ142DVW//szkGm+T+HJcFeisHb+MW0BrjzVkJywVpa5ImJk7KO/yHH79iqQuX8LCEF4fTN7QOvzZxYMDAIO0aX7ZfrTHeHBzPQdZneTPPFxHlYXAL1QLHJ1UZg1uIiG6ExZWISIFDWDYREZWXrKVcc6Va4PikKuOaKxHRjbC4EhEpwOJKRKQAi2spDNWmW6jnOAvdbpQqd21i2lz1sbieqfqh2lRcNYLa01R7nO1jQJMRnSRicT1LXUK1qZx7BLWnqcc4s5b7wr+EbreZ95tQ8+KaEfQcXUK4Qpzf8dU1cXmRnK2cHapdtj35/ueHcCe/zj6mQmHiD05NUHuJkPTMcSbuV/TvkLqWNQYSP/NHid+T3T5I/H1ZYLqJviXGbWYdf6Kdk/D2/a5Lwt4BfBV5jglf+6P4+Qvd7sk2Vah5cQUAQwh/TiZieZjjTXh1HaYPoLYwWykVql22PXlQdW4Id6bEMRUJE390yoLaS4Sk546zDdZBtC1pRGViDFwsJbh9L0pMSw0RygyDTwtvR04IvfAcOzkvkj3vWwjm71GbuzxoZ5ITeXcFDSiuWSwhxnAX07dOpGv7ox6wFJ4UF4Vql2gvRaEQ7ozs2iJtkEhxULus1ayQ9KxxFn7hJG444fwxEBRLSxN4hxS57MQ06XFKwtuzx7/wHEsNtU8hxn6G75ijYGD8hRpeXHP4I/SwTH81Tigeqn2d9nJDuGUzpbQ2LggTfwR3CWrPCklvd7LH2WaNwOqnR3QC542zA+EKMDa7lDuuuUpmtMDZYfDCxq8Y9r6L/bR//Y7vv9rA4DnzziDX0vDiurtjAICUsGcPvR6wTI6Ki0K1S7SXQhp2XeB409soECb+sG4Q1J4mKyQ9c5yFcKceLGmSe/FxlinKUL5Y1nFKwtuzx3/2c+ywfONOYy90recB8NPP+PknSJYvrq/hxdXCAEPJpYsB5yQQGxeGapdoL02hEO406W0UChN/YMqD2tNkhqTLxlkIt9uGrWfNSrPGmbCk1POAwBZuQSQsC0heoOVvaJU8Tll4e+b4jz/H4Lwdn5tL67BUMcQg/kLXeoZj/IJfDOcmSwJAo4NbfIy0BfrbggWtdu09luaNzwoIXXSHwFvODTSbwh9pWPQzljAuwOAWInpMoYup7GaeijR45kpNwvFJVZY2PmNh2Zqm3XqfiArj+KQqY1h2Q7H/6o39V29ccyUiuhEWVyIiBVhciYgUaG5x9UeH5Bt14b1EROkqVVxj0W3d/L9tzmRO4Kx60DQNbTvvzxvptk7DluNxkVQb+wjGk3+MtaxMcfVHGnoQwhpe1hhe1DstjD/2wQ/8q6nqEaMizwj0oGppjfER9eHGMWA4mwreOeE+qlFco7+eiP09s/kaJeEkw3YLhFqfFYbdhRsWDTQu0jZdReb5lYVFZ4cs063lhXc3+8qlGsU1kZxzah+zt4GzTyPKCrWOSYYGpwX0ygKNL22bSsk9v5Kw6ItDxkmdtPDurKD7+qtGcc21T/Npw9ajBCJJqPU8kV92EhosCehV0TaVlHd+JWHR2SHLdE+PGOBejeLa7uQkux8Dopfo7d75/8//S32k/iRUzVKhwVdqm67ucH6zwqKvGrJMV3GV52H9VKO4tp4xMDz0xGu40EU365ruj39NDbUuFIadEtB7lty26SKSwPLd+ZWHRZcPGSd1rhTeXUM/3HsHdloYf2yAbhvHbA4Ly+0YgI/dpXmUK2442Ly2AIzxsVxDa2uw97+x3BYKw35z5mgffs+As8l6Z7NM23SRluz8HsOit2nP1dYYb04X7cMgyutbUu+MkPiGYXBLQ7D/6o39V28MbiEiuhEWVyIiBRiW3SDsv3pj/9Ubw7Ibiv1Xb+y/euOaKxHRjbC4EhEpwOJKRKQAi+sJMa2HYSwqMLy8iRIJWBcL4XYv3Z6P0aW50BeIFdfURKkGRoHJ7OLqpujEErPuvVd1dBqGfd9iWrX9oVz+DLa+z49ICVcX/zQ+EU957FsTfd3G7E7FK1ZcT1Kd/AU8w3iQEGMfM1vHkgX1aqzlMU5Ot9t3jv8zYhGGsGcPMWGoK39xmh9xHE9bbA9ZBYkI0Y0D2MPDRNHsW/AW9+np+LJAbMCFcKcrOC+D2EOkYcSFA6iTj5UFTWeF6e4uQVxhX46vVucEZQtth19YGR18jdJeAcu0J9//9HOYvKwSv84+Jn9U9c9Hmuhbsvi/5HlKLMWcjKvdty8Kxc7ND24efxSfrYduNzpvWec/hNvtYjTqxse8pE8A4Evol3h4/Tlt+FgUDULyF/Cy4inbnbuF+cSK68DwcCjy4TvsoI9n8QClYcRnBFCfFTSdFabrYY43YWY0zA/Kzmp7s0YQ2Fj3018Bz29PfvyXBTonjskfobdyztnA7UWpVoPUEN39eYr+LXXYw/06Wdq4QslQ7AB2O3py9zwYg2c80gWK2bcQzN+j8xrifQ44ExPZ5x8AAnh4EeIbJX0CAPBgr1+i7VjwevsJwLltAICOZIKn1zudFIVfp8m+7Y5wrd16gl7+tF0kVlzHL8cptD+zYS0nsQEoDSM+J4D6akHTlnDTQRN9K8A6EQh7EtAradt++w788A/AcDAx4z87brNEeymyA533wdwaNK0HL+X36xQ6fHgytG3oS/lyS2wW2hOOWjKuyoVix1+o779McWNmH9Y+ajN8xxzH8yo9/wAAIyrCkcznunCrJrMfG6NntXEShi7eDy9ZuIuI7iByY/FlAbMPy5vCDX0sPAspkZnKwoivHjR9RkDv7378A/CnHxNryyFSXhSv0p78HB6DuVNve5HWhvmKzWB+xo7ejrhGJj0voYuhrR+Pu+iNCi8ah1nLFE21mxDY79/x/Vcb2M/cy57/c5zbRt5s0+zDigrmb/8enPx4s05+73QWfAuJj2JFHdDuYeVMTjIYpWHE5wRQZwYhn8PD9LgAVzwoO6Xtv/0Zuw4NhHcWw3fMA/EFpkR7KcoHOsva8DGzU3+hHhLrn/5MWPKQjKvLQ7F9LLzHu3OEOXEA+2f8/BOOSzRZ5z9NmbD5c9sAkDnb9BfwooL5+784qc/pw/FJbgl0CyefczUnDgxI1sdaY7w5K+HSNVqvbI3x5uC4ppX1+dDWGB9L/fjYnEtGOQsDDCXbkAdly9s28bpxsDpcys4xiG2jRHuS4089h7nS2wjdKTzrpcgGqsl8xVIXLvFhHWfssnFV6hwKa65aDytn83C3HUHrGY7xC34xnONlfdb5T93GGc/1vXPbOFl2S7wh1gOW+xuI5tWTrFsCKVbT4BYfI22B/vZWCee3bu989eo/SmL/JfgjaIu+8JGrspvRsOhnLEtdCYNbqMHSPvrGPxioLbMP6+KPUGW8d3QDNZ25UhL7r97Yf/WW1n8My24Q9l+9sf/qjWHZDcX+qzf2X71xzZWI6EZYXImIFGBxJSJSgMWV7qp2wdmhi+5DhRLcV+3Gh4DFlaTiAzsnsFi+lTsFVV+73d3naLuzNfTOF0bSqEzK449KxETWEIsrnUFMltrAWfWgFbyNxn2Cs68ZkL2LzXvrrODZa/Szwmgok/m6vfgvr+qAxZVKamH8sYQVnHsbjTsFZ8fCQ+TB5Hmh0sO1DsvpYPGQM9fk1cDxHKb3QXrYdvyKKKfPa4zFlS5QIrrvpsHZ5wdk54VKf0w6WK2f8PqIM1d/BlsXox6jrI2cPjgNwhblBWnXF4srXaxIdN99grNLBGRnhEoD2KUwPVxVjZh9WF4PyRuW5vbBJPt8ZQdp1xeLK12g+L2O7h+cXXSWbWLiAPaviVBpwnGW2ccisSxQOrz8FmHdd8LiSqX5o17x2/sUoTQ4OxmQfbxfXOhOY7fUaT0PgJ8SodIkMPG63cCJ7rl3UXh5qSDtemBxpTOIgdMaelhi+zG+3szu6sHZsoBsE69L67BUMcQgHt6cFipN8ct3rQ1bj245VDoAHiWCtOuDwS0Nwf67rluFLO+x/+qNwS2kSMOCqkMX0zuGLFMzcObaEOy/emP/1RvDshuO/Vdv7L96Y1h2Q7H/6o39V29ccyUiuhEWVyIiBVhciYgUYHElIlKAxZWISAEWVyIiBVhciYgUYHElIlKAxZWISAEWVyIiBVhciYgUYHElIlKAxZWISAEWVyIiBVhciYgUYFh2g7D/6o39V28My24o9l+9sf/qjWHZREQ3wuJKRKQAiysRkQIsrkRECrC4EhEpwOJKRKQAiysRkQIsrkRECrC4EhEpwOJKRKQAiysRkQIsrkRECrC4EhEpwOJKRKQAiysRkQIMy24Q9l+9sf/qjWHZDcX+qzf2X70xLJuI6EZYXImIFGBxJSJSgMWViEgBFlciIgVYXImIFGBxJSJSgMWViEgBFlciIgVYXImIFGBxJSJSgMWViEgBFlciIgVYXImIFGBxJSJSgGHZDcL+qzf2X71Jw7I/Pz/x7du3u+zULfD46o3HV2+PeHxcFiAiUoDFlYhIARZXIiIFWFyJiBRgcSUiUoDFlYhIgf8H5dPQMQArj3MAAAAASUVORK5CYII=;" vertex="1" parent="1">
          <mxGeometry x="2481" y="285" width="343" height="145" as="geometry" />
        </mxCell>
        <mxCell id="0TxXQybrsUDYrA-Kx0nE-13" value="" style="shape=image;verticalLabelPosition=bottom;labelBackgroundColor=default;verticalAlign=top;aspect=fixed;imageAspect=0;image=data:image/png,iVBORw0KGgoAAAANSUhEUgAAAVIAAADECAYAAADNnakFAAAacElEQVR4nO3dvY/r2HkG8If2Aok7L2wkVRawLQ0Mraqko/wPkNMICCBsp1QUthIR+HYC3EynhqwMsRtsY6gSEAxZpxi1KaIrA0OmcYAUTuIULmIjBVOQFA8pHpIS9UXp+QEX2JXEz0O+PKRGz1E2m0349ddf4159/vwZ3L724va126NsnwIgvPbKEBG11WaziQppGLKW0m1SFAU8PulWJcfn9669IkREbcdCSkTUEAspEVFDD1BIPUwUBYqiQFEGsINrrw8R3ZszFVIPk3zRCmwMlAm88yywUGAPoCgv6PkhwjBEGL5j2rngClQKYA/E/VSw34jo5l2oRxrAHptYX2ZhMQ9zsw/35opnCW8FRx3huS3rS0QALlRIA3uM5ciCkb4Ce6BAEXuogY2BokCZpH1Wb5LckpfclnsT4TMKdpMHH9ioPXwI8xjYAbK3+sU95KgnG39mN0MPk93no/WfeOK8xHnmX8/3OoX1hPC67sCYTdERPiefxwS2sJ7725bbRsl+CuxBPG1+G4u2t2q9iB7T+QtpYGO8HOF1+pR7Q4WqOlglJ/TbElBVYPOBAAC8CfSNBT8MEYauUISz8x7oG1jJrbtvYaPHJ7a/xXptYjtM34M5hh1oWMT/r5asb7TcEC70/aLnzWHCwictnlfowoABNwwRhgtoSF6P/7l9mGM72q74vYWWzGwNs6tAUXTAFV8vmwcAOFjiNX7fRV/ctvz6lOynv/nvGvcJu+2ts15Ej+fMhTTAvGti9Jr0shI+tus+ZjMDzsoDEOBtCYxmI6jrLfy6s/e3WBuz9Na9M8XMWMN8/T3wxR8ANTn50/e2mZk70HM9t+BtifXaRDd+XXeAzUeQ/fxLD/57fptyWy72anWn5JNqXOBcQM/2VMvnYWC223ANw71tq7GffvNf+PcfqVhLJyze3vrbRvQYzlpIt/MxVpa//4wyvu3uakMYzgpe8IZlf4ap9oR+8hltAX+0jAuajkNO1y9/8VfAT36R63EG+NjkP5n02kK4hoMXO8CP/7QGDDftcYUh3ncbEH9+tkV3UNILC2yMzf5u3tLeb4aGT5YK5yWe71HzOIzxdz9GZzqD4ehxYczv54LtvcB6EbXNGQvpGo7TF3pNRTQMDQcv4yX6Qw1AFz11g6gD6GFuYtdbK7y17/agOi/pM7rAxouj4lc/A9B5Qn9tYr57ZvqG5drAUCuaUeqHf29BdVblf12gDWGsl3iTVVJ/i7XaQzf+X29e74u2znSWzrdyHlHhB7Db7l4XxST7Kfq8eKsu2c/i9h65bUT37Kw9UsNdoLBu+Vus+0/oANCGBtbrflzgOnjqR7eogf0CR7wdLdKZ4t3tx88YFShdE303+ZZew8K3sNGT95YY+fn1SW/t9Y2F12kH6Ezxam2EW/6iL1M0fLKApaySagu4feHxAAyhQMm+bIrmOzTW0XxL5wEABkYYF2z3ofupDmF7K9eL6PEwtKSVPEyUFYah5EJ1RxhaQreMoSVERCfCHindNPZI6ZaxR0pEdAKfP39mj5RuG3ukdMvYIyUiOhEWUiKihlhIiYgaYiElaiUGlt8SFlKiQrcRTl7ktgPLxfjF2I3st3NiISWq5Rrh5EVaGFj+AFpcSEtCjAF54DOANFg6/rdLciq4mhbMSwyfli8nv35iYHJRMLJ8e4qDpsu2o2YoNtV2nnDyI4LBpYHl+fWqOLYzvcTce94kN13R8ZMPAZflR+ztyez6CcstPs6j4Xgmk4GwrfJ5XEuLCymQZnnmkovKAp8BRHmocURcnRg4bSHE6rlR9F+t5SQxfT6sXaqVLBhZHsosD5qWbEedUGyq72zh5EcEg0sDy5N51jm2PUy6p+xd58PKS3hzmH0xpjLOiyg9ztdwMEsjLWXzuKKWF1IJSZDxLq0p+MBeNOnOftgzIPYsdCBJtapazm5eXZj99HOHBCOXBk2XbgedxpnDyWVLLTtGygLLaxwT3kQH3EMusOs0Oazp3Y02jPNvs73I8kB1FdYnrXIe13SfhVSi/xSfCv4Wa2MouYplw571+LKoLdIe6S7J/vvFRXC3HHFe0KPbkmOCkWVB07LtaBCKTVlXCScvO0a6vfLA8tJjG1EvGW693uOOcOdXa2iZ5O6rSNLbHmKVvy2XBqofMI8ruc9CWhpkHMB+cWBUJTzHVGlaMoCfWiXLkTgwGLnzPJIETZdtR41QbKrhAuHkRcqOkdLA8qpj24GuA+5hVXRfnCVcLMrUNefCc+K5WVDcNSxCH1b8aER+nJfJzuOavrju4s+kM8W7u4XSVWDGLxluiGkngD3oRs9XpMeSA12J+w6qBX/RQWAP0DXTcqdaPt41AJAtRz4vYAF3paCrxFMYFcHInSlerQG6ipIsHZb/Cozl25GEYof8Vrex8nDyIToAOkMDugPMhHDylQ8Eb0e2g1Z2jESB5YOuguiIUGH579BQ59hWYe2FmyeEYzXWHQD++xOSW/tobQy4oQZkSp6HiTB4o7bwYQ26SA9ZC350wuydSzCS9S06zov/MkE+j+thaAndNIaWXElgYzAGXisGeXx0DC0hIjoR9kjpprFHSrcsOT4VADxKiYiOtNls2CNtO/bY2o3t1258RkpEdCIspEREDbGQEhE1dH+F1JvskmMCe5BLxiEiOr2bKKSZqLFB1e94K2ifYG10KIqCrln18z66rHz82e3EoNGBksjAvX+PGdl49ULqTRToEMIKZluMG7VEB9P324nXojwx+rBmaAvdns4U73Eb+pYK1fJvMK3/cq5bSAMbL46RDVHQFnHqiywYGRVhyrLw2vx0A9hB3WDduoHR1NhRgdxl4dd0eVUh0vd3R3LdQppLudlXEIxcGaacyIfXepiI04XvmHZkwbpNl01HOTaQuzQUmK6rKERaEsjeYle/tS9XEIxcGaYc2Quv9VZw1BGea992HL9sOtKRgdzlocB0TYeHSLfTdQtpt1eRJl4QjPwX/1z4yTRMGUeG155o2XRytQK5a4cC08Wc5Dxsh+sW0s4zRmqaQg8gur0ruy/76tuKMGVJeG23B3W9RKPOY+WyqZEjA7mPCwWm8zpRiHRLXDnYuYPpuw+IIbAw4IZTRMGxRcHIVWHKkvDazhSv1hLd3XTy4NjIMcumRo4N5C4Mv37Mb49vR1mI9P1haEnLMfSi3dh+7cbQEiKiE2EhJSJqiMHOREQNMNj5DvAZW7ux/dqNz0iJiE6EhZSIqCEWUiKihlhIieiCcslQdyJbSPOxc0S1xfFomWDuS500BcvhsUwXxB4pnZAKFSbmrF70YMoLqTRkNwnYzYe3ZkN1i8N2o96DLbxXPK5SRQDsUQHAkh5Sbl6ZYODSEOmidcu/nuRpyrdHHkosDzJOhme5NaORAUcv6gnm9734/x4mAxv2RNwv6f5qPu5WfogT9lTl9s9PaXB6gzb8kJz/xedCAHswwGQyONHxcHrfA5CuuBjAWhmyq0JVHazibQ3eloCqApuP6GQvDdt1sMTrLti1b44l4ciSANhjA4BltIUQwebCSJKEKpdTEP6MJCw6/uf2YY5tBJCESJfuJ8l2eBPoGwv+Lf794fMCruHg5dCDfW1i2YuGq3ANB7rygp4fbTfMebPC582jwJNduzxOmMZxHJjbWXz8yi6MBWq3oXD++xaQnP+l58IaDmY3G5H4PQDF4+eUhuz62K77mM0MOCsPQIC3JTCajXb5ouVhu4YwKJ2GobHGVh5Kuu/IAOBIEtic7ZmkA/DpgBufaJVBzgXhz8hdVXWndFNK91Ppdtwu7dMxxS89Jro9FUj2e+cZo91F6tgVGsJwdPZEaxOG/9GGB4Qy121D4fyPz6lf/66qZqiwPt3u5e/gZ6S//XknOsHVHrraMOq9BW9Y9meYak/oix++cNhurQBgMbDZSLNQtUXaI4Ue3858v7gIpkHOBeHPgY2x2d+9XqtHLNtPsu3QFvBHSyE27sZ0ppgZDl7sjwsutKzYJncDQ6x4a3+zfvTHdWsDuuWFVBKy+6ufAfjLP8cvahgaDl7GS/SHGoAuevGVpzxsV7j1OyYc+cgA4CJq2YJ/ah0e5Jwbh8qb58eryZLvp7Lt8DA3Acu/wVv7WNQrNZG9FAmPguwXlPfVD1oahsYapvAtlzc3Cy5CGhahD0t4JEWHOkUb7p//334FfPmN1dqAbnkh7Uzx7vZhdtPnp303Dsv913/Duv+EDgBtaGC97iM63zt46se36Z0pXq2NcBudfbY4wnh/vnVJ1y0NAJYHc6e39vrGwuu0k70VV3RsLD+avmwfSOYFbQG3L9yewCi/NSrcT+XbEdgvcMRHDreoM8Uss+EaFq4BR4+2c4zRScfx0RY+rI2+a0d9Y8GPd162fauOD5I7VRtmz39Yr/EjgLKacduuEFriYaKsMOQD/5Ng6EW7sf3ajaEl1DJFfz52qj+PImqGMXotxx5Nu7H92i1pPwY7ExE1wGDnO8AeTbux/dqNz0iJiE6EhZSIqCEWUiKihlhIiaiBU2fOBrAHTecXJVFd8o/iWlhI6zSch0n+VxEVQb/ZX7/kA4rpPPLxdunfhAb2YO/vQ9lGD8Cbw+wnP+3dPz7KIi7T40XDsH/ZXNwWFdLkD7J1OLufZtb9CVkAeyz/zbs3UdAV4rvCMIx+5skT9QLEqER5SAXb6DF4q/18CcMVYil3v+31MMlFXEKI49SGSTLdZbSkkHqYKDrg5vI83T7MbnUxDewxliOr+HfBgY0Xx4D7PoV4CmsLF8Z6iTeepdfHNjqaNykITp54kAeQA9Ig5UwPMHvefUiDoA9ZhodV3QAjb5XNm8hHXHZ7Fw1AaUch9VZwjIKgCW0BN5MPWiAOi32dPhW/n0trSnXRUw/MSaUjrNNQGCU/0kGMbXQ0bWhgvXyLe+1RbnCU6ykLIE/kg5RzPcAwG95THAR96DIAoI+n3E1JEpIiHh/Bx35Sb7cnBFZ2cpGeZ9aOQlqhn9/zOwHmXROj12xPhm5J9taeqUwnpg3TXnvwhiVGeK4VQJ4LUvZWcNR02ix5EPRBy9gLMu9g+i4W4gPS+gGUZ9SeVjsKabcH1dH3eyveBLpjQBY9up2PsbL88ri5bm+X6p/lY7s+MCeVzoNt1ECc1fr2e/z+n0xg9Bx1Ko4JID/Uocuo6kVqQxhxcfzhf+5/4+Fv86/t927PpR2FtDPFu29ho+e+bNIBVxrHt4bj9IUhTWTzfsZITZPyIwHsgX77mZ+Pgm3USBSy/Uv88h+B0bMw+sIBAeTRxezA59GHLgNAaS/SW8GJi+OP/6E4dH23fRcepqcdhRSIimnR4HG7D0QPtsVzzXBlRVb8bAfT92wosKJ0sRz5wjeEdF1so0Y6z7DU7/CdaqW35kcFkEN4nl3jL2YOXcbe+G25L6vEjlNV6HrpcEOnx9CSlmPoRbux/XK8CZTVsPEF0psoWA3P/8ydoSVEdHuSATUbzcTDquS7k3Ngj7Tl2KNpN7ZfuzHYmYjoBBjsfAfYo2k3tl+78RkpEdGJsJASETXEQkpE1NDjFVJvsss0LMq8pGs4dTgwXQ6DnYGKQupNcqGq95D9qH3a/UKma9b4CSk1FP86pTDWiSjnXoOdd6GqbvmPu9pDTJSR/YSUTiWwX7AxjItmQ1J73WGwc4CPTUmyTu5qkF4okquI0D0PbAwyV5OywFfxViH/38nn8rcTsmmSZdd5L7NxJesnbmO+px7N3xaiw/ZCdSuvrMKySoJ02yHKvxx9+oSR6iBzXIvbNlllpikKFS7ed/keS9KWstcfD4OdL6OkkPrYriUxVIGNQe5qsNHFnaRCFU6c4G0JqCqw+YgLTlXg66l4mHRliTNl71Wtn4/tOg5O2YsGc7DEazyti35ylYwDppOhMlwksYCywNyyIN2W2OVfdjCdiT2E7Lb5vQ2ySZW5wF/ZvvPmMPtu2k7JHYbs9QfEYOfLkBfS4AObwlRyxMkqsqtBVIBnuxMn7pXMRplMyfLA1zqScZuSaL193kQHXLcwcabsvcr1K9s3MITnrlGaza9/F11M1mshCccBNh+BPDC3NEi3HYK3ZZp/qQ1hJLFnuW3rTGe5dsgG/kr3nTaE4ej7PU7Z64+Iwc4XIS2kwdsS6/7TQcnyv/15Jy0ySfhA8IZlf4apJlwhThIqa6TThwUF0ZtAR8HwJFXv1Vi/TIGo6Ud/XAOG2EuSD/R2HzzMzTXWZle42MUX2y/+cPjsCvdd0uMZYpW5hZe9/ogY7HwJkkIq3gIU6PYKQ1V/9TMAf/nn+EUNQ8PBy3iJ/lBDNL5OfIU4KvD1EA50HelVsvZ7sdL1i3vY0q6ig5dkx8T75duvgC+/sYqf2cgCc48J0r0l3gqOamVG/Qzd+DbzJ7/IbFtgvxTeUSQ6z6OK510aFqEPK/8cVvr6Y2Gw82WEWW5oREEmxf9UK/TDMAxdI/O64SaTGyGS/3GNEDDC9K30c64hzNMwQiOZb+ny1dDyk8+k883+vxsau88d8l5uLxSunx9aatl+ieZnWer+fgnD0Bdeh7Aeh74u2m+/2+AaCNW9FU73v7htquWGlpq0gx9a6v62Fu2L7GvYHXey12/RZdovPm5351hEfg7Wb4Pyc/HwZYg1Yr8W5M5VWQ1K3rtAuyftVxBa4mGirDAsekAf2BiMgdf3Rx1MLoA9mOPpPbdvdvvlCXPZvjsThl60G9svh8HOREQNMdiZroE9mnZj+7Ubg52JiE6Awc53gD2admP7tRufkRIRnQgLKRFRQyykREQNsZDSxTFQ+54w2Bm4+UKaxKEVRcglEV2P/DvqW7UfyHv1wimNTKSbcq/BztenwjCQ5gwmvBUcVT190AKdTBrI66JvdsGQfKpyh8HOt6M3HAHmXOhNBLBfNrBmo8zn6gcn5wNnhZ6tNLCajqdhaMTRd3sqQrQlYcLStqYMBjtfRisKKf72m2zCevAGcz3Es7jDDwpOTmLWXBi7OL4FtMrAajpKPpknoyz8VxImLG1rymOw82W0opD+7//9dSZh3ZubMNxPmeCUg4OTi5QGVtOhdidA10TflSf8S8N/JW0nbWvax2Dni2hFIf3BnyAkrJcEEpwpOLl/qXTYOyM+2zo2RLtk5g8Ukt0Eg50voRWFNBIfEF0dG+vTXkydNPz3kEBaSWB1rWc2dJyy8F9J21UHPZOIwc7n16JCGh0QKiTP2jpTvFobYRyn+NlmZ4pXCzC7NUbj7Ezx7vbTz1bcktIJaAu4feE2HUZ6ayhrO1lbF4q/8OiaQMEF+CF0nmGp3+E71Upvzcv2e+E8DjiPEocuI+4sbZOB3fJfVumAm2T9Vp2r/hZrY3i5XGAwtKTVGHrRbmy/HAY7E11T0Z+03ciPAag+BjvTNbBH025sv3ZjsDMR0Qkw2PkOsEfTbmy/duMzUiKiE2EhJSJqiIWUiKghFlIiooZYSImIGmIhJSJqiIWUiKghFlIiooYespByFMtbceoRKOnyOIoocAuFNLAxKAyb4BAf9+EGRxSl25UZRTR5bVI8fpo4hlSmcD7iKKKdKd7jBG3fUqFafsGYMNR2HFGU6siPIupNFCirIdy9IFMPk5dePG6XDwsmxsIFmqOI5shHi8z1dIQrknSauPfbNddYm939q5x0BNH87QtvSY+3P6Jo8QiUqGwPWzIdRxhNtX0UUW0RSrJJNSzep/G4bR08j3KDmHAUUUHpaJE+tut4BFBxLBjZNIGNQXeJkS/0fMVRQjmC6GXsjSgqGYGysj3k03GE0dQ9jCJaLcDbcp0dW42jiKZKR4uUjMkineY/XrMjhAK7UULN3/wP8LtfV4wg6ghDW+jIj4dI5eQjikpGoKwc0bV4Oo4wmtPqUUTrCewxzL5bkIbPUURTstEiy8ZkKZgm+JcfHLX49CpnpKMhhm7F2DOUV2tE0RpqjejKEUYFdzSKaOEiBuguR/ALDyqOIgqgbLTIAPZL9qF01TTR6y/ZW/X4NtP65kvgq285gugtOXJEV44wuu9uRhHN8SYKutsZwt2zUgFHERUUjhYZwB50JV152TTIjDq4+7Kpu8TIj28zOYLobTm2PQ4aYfRBtHYU0fhb+/gRTfR4KP1O48UB4OjCl1nCF8AcRfT8AnuAMV7v4paPCevtxvbL4SiiREQNcRRRugb2aNqN7dduHEWUiOgEOIroHWCPpt3Yfu3GZ6RERCfCQkpE1BALKRFRQyyk9NgCG4NHTjW5UW0LX2chpaNkD/T98OZ68XUFcYSBjcFFIgqjiLfBfIt+7wOTouBgOilvcr+xhiykdCKqELHmw9roudTyWxNFvL32NnDMLYYNw1SomjxbtP1YSOkMOpi+uzDWTYd7yPd0055qcXhzUViwbB5Rj3S87cOwelixR1riFO2Qv4spC31uHxZSOpP9JPyDeXOYfTESbxGFUJSGN+fCgmXziHuk75962GyfsGCPVO4U7bCnKvS5XVhI6axq5YfKaEMYjp5N9UFVeHMuLFgyj53OFO+soOVO0Q4FykOf24WFlM5kf/ydYmX5k0mvZYhVPiatdnhzyTyoplO0Q84lgqUviIWUzsKb6CVDUyTi9HbhQao3NwtyJDUsQh+W6mDlHRvenJ0HHeMU7RA7KvT5drGQ0omshdBfBTrc4uTyHG0Rf8OfTLexdsNGZG79FCHM+4DwZuk8qLZTtMOeg0OfbxtDS1qOoRftxvZrN4aW0IXk/8wl/demX64QlWGPtOXYo2k3tl+7MdiZiOgEGOx8B9ijaTe2X7vxGSkR0YmwkBIRNcRCSkTUEAspEVFDLKRERA2xkBIRNcRCSkTUEAspEVFDLKRERA2xkBIRNcRCSkTUEAspEVFDLKRERA2xkBIRNcRCSkTUEIOdiYgaYLDzHWAwcLux/dqNwc5ERCfCQkpE1BALKRFRQyykREQNsZASETXEQkpE1BALKRFRQyykREQNsZASETXEQkpE1BALKRFRQyykREQNsZASETXEQkpE1BALKRFRQwx2JiJqYLPZ4IvNZoOvv/762utyNp8/f+b2tRi3r90eZft4a09E1ND/A10wjb2rKsLZAAAAAElFTkSuQmCC;" vertex="1" parent="1">
          <mxGeometry x="2140" y="563" width="338" height="196" as="geometry" />
        </mxCell>
        <mxCell id="0TxXQybrsUDYrA-Kx0nE-15" value="" style="endArrow=none;html=1;rounded=0;exitX=1;exitY=1;exitDx=0;exitDy=0;entryX=0;entryY=0.75;entryDx=0;entryDy=0;" edge="1" parent="1" source="0TxXQybrsUDYrA-Kx0nE-1" target="0TxXQybrsUDYrA-Kx0nE-2">
          <mxGeometry width="50" height="50" relative="1" as="geometry">
            <mxPoint x="480" y="310" as="sourcePoint" />
            <mxPoint x="530" y="260" as="targetPoint" />
          </mxGeometry>
        </mxCell>
        <mxCell id="0TxXQybrsUDYrA-Kx0nE-16" value="" style="endArrow=none;html=1;rounded=0;entryX=0;entryY=1;entryDx=0;entryDy=0;" edge="1" parent="1" target="0TxXQybrsUDYrA-Kx0nE-8">
          <mxGeometry width="50" height="50" relative="1" as="geometry">
            <mxPoint x="800" y="134" as="sourcePoint" />
            <mxPoint x="530" y="260" as="targetPoint" />
          </mxGeometry>
        </mxCell>
        <mxCell id="0TxXQybrsUDYrA-Kx0nE-17" value="" style="endArrow=none;html=1;rounded=0;exitX=1;exitY=1;exitDx=0;exitDy=0;entryX=0;entryY=0.75;entryDx=0;entryDy=0;" edge="1" parent="1" source="0TxXQybrsUDYrA-Kx0nE-3" target="0TxXQybrsUDYrA-Kx0nE-4">
          <mxGeometry width="50" height="50" relative="1" as="geometry">
            <mxPoint x="480" y="310" as="sourcePoint" />
            <mxPoint x="530" y="260" as="targetPoint" />
          </mxGeometry>
        </mxCell>
        <mxCell id="0TxXQybrsUDYrA-Kx0nE-18" value="" style="endArrow=none;html=1;rounded=0;entryX=0.344;entryY=0.996;entryDx=0;entryDy=0;entryPerimeter=0;exitX=1;exitY=1;exitDx=0;exitDy=0;" edge="1" parent="1" source="0TxXQybrsUDYrA-Kx0nE-4" target="0TxXQybrsUDYrA-Kx0nE-8">
          <mxGeometry width="50" height="50" relative="1" as="geometry">
            <mxPoint x="480" y="310" as="sourcePoint" />
            <mxPoint x="1390" y="310" as="targetPoint" />
            <Array as="points">
              <mxPoint x="1260" y="320" />
            </Array>
          </mxGeometry>
        </mxCell>
        <mxCell id="0TxXQybrsUDYrA-Kx0nE-21" value="" style="endArrow=none;html=1;rounded=0;exitX=1;exitY=0.75;exitDx=0;exitDy=0;" edge="1" parent="1" source="0TxXQybrsUDYrA-Kx0nE-5">
          <mxGeometry width="50" height="50" relative="1" as="geometry">
            <mxPoint x="480" y="310" as="sourcePoint" />
            <mxPoint x="1240" y="230" as="targetPoint" />
            <Array as="points">
              <mxPoint x="580" y="540" />
            </Array>
          </mxGeometry>
        </mxCell>
        <mxCell id="0TxXQybrsUDYrA-Kx0nE-22" value="" style="endArrow=none;html=1;rounded=0;entryX=-0.01;entryY=0.642;entryDx=0;entryDy=0;entryPerimeter=0;" edge="1" parent="1" target="0TxXQybrsUDYrA-Kx0nE-7">
          <mxGeometry width="50" height="50" relative="1" as="geometry">
            <mxPoint x="190" y="750" as="sourcePoint" />
            <mxPoint x="530" y="260" as="targetPoint" />
          </mxGeometry>
        </mxCell>
        <mxCell id="0TxXQybrsUDYrA-Kx0nE-23" value="" style="endArrow=none;html=1;rounded=0;entryX=0.5;entryY=1;entryDx=0;entryDy=0;exitX=0.999;exitY=0.875;exitDx=0;exitDy=0;exitPerimeter=0;" edge="1" parent="1" source="0TxXQybrsUDYrA-Kx0nE-7" target="0TxXQybrsUDYrA-Kx0nE-8">
          <mxGeometry width="50" height="50" relative="1" as="geometry">
            <mxPoint x="480" y="310" as="sourcePoint" />
            <mxPoint x="1500" y="310" as="targetPoint" />
            <Array as="points">
              <mxPoint x="1340" y="400" />
            </Array>
          </mxGeometry>
        </mxCell>
        <mxCell id="0TxXQybrsUDYrA-Kx0nE-24" value="" style="endArrow=none;html=1;rounded=0;exitX=1.001;exitY=0.966;exitDx=0;exitDy=0;exitPerimeter=0;entryX=-0.002;entryY=0.806;entryDx=0;entryDy=0;entryPerimeter=0;" edge="1" parent="1" source="0TxXQybrsUDYrA-Kx0nE-8" target="0TxXQybrsUDYrA-Kx0nE-10">
          <mxGeometry width="50" height="50" relative="1" as="geometry">
            <mxPoint x="1800" y="270" as="sourcePoint" />
            <mxPoint x="1850" y="220" as="targetPoint" />
          </mxGeometry>
        </mxCell>
        <mxCell id="0TxXQybrsUDYrA-Kx0nE-25" value="" style="endArrow=none;html=1;rounded=0;exitX=0.997;exitY=0.94;exitDx=0;exitDy=0;exitPerimeter=0;entryX=-0.005;entryY=0.896;entryDx=0;entryDy=0;entryPerimeter=0;" edge="1" parent="1" source="0TxXQybrsUDYrA-Kx0nE-9" target="0TxXQybrsUDYrA-Kx0nE-10">
          <mxGeometry width="50" height="50" relative="1" as="geometry">
            <mxPoint x="1800" y="500" as="sourcePoint" />
            <mxPoint x="1850" y="450" as="targetPoint" />
          </mxGeometry>
        </mxCell>
        <mxCell id="0TxXQybrsUDYrA-Kx0nE-26" value="" style="endArrow=none;html=1;rounded=0;exitX=0.997;exitY=0.834;exitDx=0;exitDy=0;exitPerimeter=0;entryX=0;entryY=0.75;entryDx=0;entryDy=0;" edge="1" parent="1" source="0TxXQybrsUDYrA-Kx0nE-63" target="0TxXQybrsUDYrA-Kx0nE-13">
          <mxGeometry width="50" height="50" relative="1" as="geometry">
            <mxPoint x="1850" y="500" as="sourcePoint" />
            <mxPoint x="1900" y="450" as="targetPoint" />
          </mxGeometry>
        </mxCell>
        <mxCell id="0TxXQybrsUDYrA-Kx0nE-27" value="" style="endArrow=none;html=1;rounded=0;exitX=1.003;exitY=0.647;exitDx=0;exitDy=0;exitPerimeter=0;entryX=0;entryY=0.5;entryDx=0;entryDy=0;" edge="1" parent="1" source="0TxXQybrsUDYrA-Kx0nE-10" target="0TxXQybrsUDYrA-Kx0nE-12">
          <mxGeometry width="50" height="50" relative="1" as="geometry">
            <mxPoint x="2490" y="150" as="sourcePoint" />
            <mxPoint x="2540" y="100" as="targetPoint" />
          </mxGeometry>
        </mxCell>
        <mxCell id="0TxXQybrsUDYrA-Kx0nE-28" value="" style="endArrow=none;html=1;rounded=0;exitX=1.003;exitY=0.566;exitDx=0;exitDy=0;exitPerimeter=0;entryX=-0.014;entryY=0.829;entryDx=0;entryDy=0;entryPerimeter=0;" edge="1" parent="1" source="0TxXQybrsUDYrA-Kx0nE-10" target="0TxXQybrsUDYrA-Kx0nE-11">
          <mxGeometry width="50" height="50" relative="1" as="geometry">
            <mxPoint x="2490" y="150" as="sourcePoint" />
            <mxPoint x="2540" y="100" as="targetPoint" />
          </mxGeometry>
        </mxCell>
        <mxCell id="0TxXQybrsUDYrA-Kx0nE-29" value="" style="endArrow=none;html=1;rounded=0;exitX=1;exitY=0.75;exitDx=0;exitDy=0;entryX=1;entryY=0.75;entryDx=0;entryDy=0;" edge="1" parent="1" source="0TxXQybrsUDYrA-Kx0nE-13" target="0TxXQybrsUDYrA-Kx0nE-10">
          <mxGeometry width="50" height="50" relative="1" as="geometry">
            <mxPoint x="2560" y="590" as="sourcePoint" />
            <mxPoint x="2330" y="150" as="targetPoint" />
            <Array as="points">
              <mxPoint x="2550" y="610" />
              <mxPoint x="2470" y="500" />
              <mxPoint x="2370" y="150" />
            </Array>
          </mxGeometry>
        </mxCell>
        <mxCell id="0TxXQybrsUDYrA-Kx0nE-30" value="1" style="text;html=1;strokeColor=none;fillColor=none;align=center;verticalAlign=middle;whiteSpace=wrap;rounded=0;" vertex="1" parent="1">
          <mxGeometry x="1740" y="230" width="50" height="20" as="geometry" />
        </mxCell>
        <mxCell id="0TxXQybrsUDYrA-Kx0nE-31" value="*" style="text;html=1;strokeColor=none;fillColor=none;align=center;verticalAlign=middle;whiteSpace=wrap;rounded=0;" vertex="1" parent="1">
          <mxGeometry x="1870" y="130" width="60" height="51" as="geometry" />
        </mxCell>
        <mxCell id="0TxXQybrsUDYrA-Kx0nE-32" value="1" style="text;html=1;strokeColor=none;fillColor=none;align=center;verticalAlign=middle;whiteSpace=wrap;rounded=0;" vertex="1" parent="1">
          <mxGeometry x="1410" y="-140" width="50" height="20" as="geometry" />
        </mxCell>
        <mxCell id="0TxXQybrsUDYrA-Kx0nE-33" value="*" style="text;html=1;strokeColor=none;fillColor=none;align=center;verticalAlign=middle;whiteSpace=wrap;rounded=0;" vertex="1" parent="1">
          <mxGeometry x="270" y="79" width="60" height="51" as="geometry" />
        </mxCell>
        <mxCell id="0TxXQybrsUDYrA-Kx0nE-41" value="1" style="text;html=1;strokeColor=none;fillColor=none;align=center;verticalAlign=middle;whiteSpace=wrap;rounded=0;" vertex="1" parent="1">
          <mxGeometry x="180" y="123.5" width="50" height="20" as="geometry" />
        </mxCell>
        <mxCell id="0TxXQybrsUDYrA-Kx0nE-42" value="*" style="text;html=1;strokeColor=none;fillColor=none;align=center;verticalAlign=middle;whiteSpace=wrap;rounded=0;" vertex="1" parent="1">
          <mxGeometry x="270" y="290" width="60" height="51" as="geometry" />
        </mxCell>
        <mxCell id="0TxXQybrsUDYrA-Kx0nE-43" value="1" style="text;html=1;strokeColor=none;fillColor=none;align=center;verticalAlign=middle;whiteSpace=wrap;rounded=0;" vertex="1" parent="1">
          <mxGeometry x="180" y="334.5" width="50" height="20" as="geometry" />
        </mxCell>
        <mxCell id="0TxXQybrsUDYrA-Kx0nE-44" value="*" style="text;html=1;strokeColor=none;fillColor=none;align=center;verticalAlign=middle;whiteSpace=wrap;rounded=0;" vertex="1" parent="1">
          <mxGeometry x="270" y="680" width="60" height="51" as="geometry" />
        </mxCell>
        <mxCell id="0TxXQybrsUDYrA-Kx0nE-45" value="1" style="text;html=1;strokeColor=none;fillColor=none;align=center;verticalAlign=middle;whiteSpace=wrap;rounded=0;" vertex="1" parent="1">
          <mxGeometry x="180" y="724.5" width="50" height="20" as="geometry" />
        </mxCell>
        <mxCell id="0TxXQybrsUDYrA-Kx0nE-46" value="1" style="text;html=1;strokeColor=none;fillColor=none;align=center;verticalAlign=middle;whiteSpace=wrap;rounded=0;" vertex="1" parent="1">
          <mxGeometry x="190" y="500" width="50" height="20" as="geometry" />
        </mxCell>
        <mxCell id="0TxXQybrsUDYrA-Kx0nE-47" value="*" style="text;html=1;strokeColor=none;fillColor=none;align=center;verticalAlign=middle;whiteSpace=wrap;rounded=0;" vertex="1" parent="1">
          <mxGeometry x="1200" y="199" width="60" height="51" as="geometry" />
        </mxCell>
        <mxCell id="0TxXQybrsUDYrA-Kx0nE-48" value="*" style="text;html=1;strokeColor=none;fillColor=none;align=center;verticalAlign=middle;whiteSpace=wrap;rounded=0;" vertex="1" parent="1">
          <mxGeometry x="790" y="92.5" width="60" height="51" as="geometry" />
        </mxCell>
        <mxCell id="0TxXQybrsUDYrA-Kx0nE-49" value="1" style="text;html=1;strokeColor=none;fillColor=none;align=center;verticalAlign=middle;whiteSpace=wrap;rounded=0;" vertex="1" parent="1">
          <mxGeometry x="1210" y="265" width="50" height="20" as="geometry" />
        </mxCell>
        <mxCell id="0TxXQybrsUDYrA-Kx0nE-50" value="*" style="text;html=1;strokeColor=none;fillColor=none;align=center;verticalAlign=middle;whiteSpace=wrap;rounded=0;" vertex="1" parent="1">
          <mxGeometry x="790" y="319" width="60" height="51" as="geometry" />
        </mxCell>
        <mxCell id="0TxXQybrsUDYrA-Kx0nE-51" value="1" style="text;html=1;strokeColor=none;fillColor=none;align=center;verticalAlign=middle;whiteSpace=wrap;rounded=0;" vertex="1" parent="1">
          <mxGeometry x="1320" y="270" width="50" height="20" as="geometry" />
        </mxCell>
        <mxCell id="0TxXQybrsUDYrA-Kx0nE-52" value="*" style="text;html=1;strokeColor=none;fillColor=none;align=center;verticalAlign=middle;whiteSpace=wrap;rounded=0;" vertex="1" parent="1">
          <mxGeometry x="780" y="704" width="60" height="51" as="geometry" />
        </mxCell>
        <mxCell id="0TxXQybrsUDYrA-Kx0nE-53" value="1" style="text;html=1;strokeColor=none;fillColor=none;align=center;verticalAlign=middle;whiteSpace=wrap;rounded=0;" vertex="1" parent="1">
          <mxGeometry x="1420" y="280" width="50" height="20" as="geometry" />
        </mxCell>
        <mxCell id="0TxXQybrsUDYrA-Kx0nE-54" value="*" style="text;html=1;strokeColor=none;fillColor=none;align=center;verticalAlign=middle;whiteSpace=wrap;rounded=0;" vertex="1" parent="1">
          <mxGeometry x="2260" y="78.5" width="60" height="51" as="geometry" />
        </mxCell>
        <mxCell id="0TxXQybrsUDYrA-Kx0nE-55" value="1" style="text;html=1;strokeColor=none;fillColor=none;align=center;verticalAlign=middle;whiteSpace=wrap;rounded=0;" vertex="1" parent="1">
          <mxGeometry x="2431" y="94.5" width="50" height="20" as="geometry" />
        </mxCell>
        <mxCell id="0TxXQybrsUDYrA-Kx0nE-56" value="*" style="text;html=1;strokeColor=none;fillColor=none;align=center;verticalAlign=middle;whiteSpace=wrap;rounded=0;" vertex="1" parent="1">
          <mxGeometry x="2250" y="148" width="60" height="51" as="geometry" />
        </mxCell>
        <mxCell id="0TxXQybrsUDYrA-Kx0nE-57" value="1" style="text;html=1;strokeColor=none;fillColor=none;align=center;verticalAlign=middle;whiteSpace=wrap;rounded=0;" vertex="1" parent="1">
          <mxGeometry x="2441" y="314.5" width="50" height="20" as="geometry" />
        </mxCell>
        <mxCell id="0TxXQybrsUDYrA-Kx0nE-58" value="*" style="text;html=1;strokeColor=none;fillColor=none;align=center;verticalAlign=middle;whiteSpace=wrap;rounded=0;" vertex="1" parent="1">
          <mxGeometry x="2260" y="114.5" width="60" height="51" as="geometry" />
        </mxCell>
        <mxCell id="0TxXQybrsUDYrA-Kx0nE-59" value="1" style="text;html=1;strokeColor=none;fillColor=none;align=center;verticalAlign=middle;whiteSpace=wrap;rounded=0;" vertex="1" parent="1">
          <mxGeometry x="2481" y="695.5" width="50" height="20" as="geometry" />
        </mxCell>
        <mxCell id="0TxXQybrsUDYrA-Kx0nE-60" value="1" style="text;html=1;strokeColor=none;fillColor=none;align=center;verticalAlign=middle;whiteSpace=wrap;rounded=0;" vertex="1" parent="1">
          <mxGeometry x="1900" y="210" width="50" height="20" as="geometry" />
        </mxCell>
        <mxCell id="0TxXQybrsUDYrA-Kx0nE-61" value="*" style="text;html=1;strokeColor=none;fillColor=none;align=center;verticalAlign=middle;whiteSpace=wrap;rounded=0;" vertex="1" parent="1">
          <mxGeometry x="1630" y="610" width="60" height="51" as="geometry" />
        </mxCell>
        <mxCell id="0TxXQybrsUDYrA-Kx0nE-62" value="*" style="text;html=1;strokeColor=none;fillColor=none;align=center;verticalAlign=middle;whiteSpace=wrap;rounded=0;" vertex="1" parent="1">
          <mxGeometry x="1639" y="680" width="60" height="51" as="geometry" />
        </mxCell>
        <mxCell id="0TxXQybrsUDYrA-Kx0nE-64" value="" style="endArrow=none;html=1;rounded=0;exitX=0.997;exitY=0.834;exitDx=0;exitDy=0;exitPerimeter=0;entryX=0;entryY=0.75;entryDx=0;entryDy=0;" edge="1" parent="1" source="0TxXQybrsUDYrA-Kx0nE-9" target="0TxXQybrsUDYrA-Kx0nE-13">
          <mxGeometry width="50" height="50" relative="1" as="geometry">
            <mxPoint x="1638" y="681" as="sourcePoint" />
            <mxPoint x="2140" y="710" as="targetPoint" />
          </mxGeometry>
        </mxCell>
        <mxCell id="0TxXQybrsUDYrA-Kx0nE-63" value="1" style="text;html=1;strokeColor=none;fillColor=none;align=center;verticalAlign=middle;whiteSpace=wrap;rounded=0;" vertex="1" parent="1">
          <mxGeometry x="2100" y="684" width="50" height="20" as="geometry" />
        </mxCell>
      </root>
    </mxGraphModel>
  </diagram>
</mxfile>
